<svg width="160" height="160" viewBox="0 0 160 160" fill="none" xmlns="http://www.w3.org/2000/svg">
<path fill-rule="evenodd" clip-rule="evenodd" d="M27.2 27.5395C18.2221 29.5768 12.8 37.6056 12.8 47.2C12.8 58.3341 21.8259 67.36 32.96 67.36C44.0941 67.36 53.12 58.3341 53.12 47.2C53.12 37.6056 48.9779 29.5768 40 27.5395V18.08C40 15.6057 36.0743 13.6 33.6 13.6C31.1258 13.6 27.2 15.6057 27.2 18.08L27.2 27.5395Z" fill="#789904"/>
<path d="M40 76.32C40 73.8457 37.1347 71.84 33.6 71.84C30.0654 71.84 27.2 73.8457 27.2 76.32L27.2 143.52C27.2 145.994 30.0654 148 33.6 148C37.1347 148 40 145.994 40 143.52V76.32Z" fill="#789904"/>
<path fill-rule="evenodd" clip-rule="evenodd" d="M107.2 47.2C107.2 37.6056 112.622 29.5768 121.6 27.5395V18.08C121.6 15.6057 125.526 13.6 128 13.6C130.474 13.6 134.4 15.6057 134.4 18.08V27.5395C143.378 29.5768 147.52 37.6056 147.52 47.2C147.52 58.3341 138.494 67.36 127.36 67.36C116.226 67.36 107.2 58.3341 107.2 47.2Z" fill="#789904"/>
<path d="M128 71.84C131.535 71.84 134.4 73.8457 134.4 76.32V143.52C134.4 145.994 131.535 148 128 148C124.465 148 121.6 145.994 121.6 143.52V76.32C121.6 73.8457 124.465 71.84 128 71.84Z" fill="#789904"/>
<path fill-rule="evenodd" clip-rule="evenodd" d="M86.4 134.06C95.3779 132.023 99.52 123.994 99.52 114.4C99.52 103.266 90.4942 94.24 79.36 94.24C68.2259 94.24 59.2 103.266 59.2 114.4C59.2 123.994 64.6221 132.023 73.6 134.06V143.52C73.6 145.994 77.5257 148 80 148C82.4743 148 86.4 145.994 86.4 143.52V134.06Z" fill="#789904"/>
<path d="M80 89.76C77.7908 89.76 76 87.7543 76 85.28V18.08C76 15.6057 77.7908 13.6 80 13.6C82.2092 13.6 84 15.6057 84 18.08V85.28C84 87.7543 82.2092 89.76 80 89.76Z" fill="#789904"/>
</svg>
