<svg width="160" height="160" viewBox="0 0 160 160" fill="none" xmlns="http://www.w3.org/2000/svg">
<path d="M80 12C66.5509 12 53.4038 15.9881 42.2213 23.4601C31.0387 30.932 22.323 41.5522 17.1762 53.9775C12.0295 66.4029 10.6828 80.0754 13.3066 93.2661C15.9304 106.457 22.4068 118.573 31.9168 128.083C41.4267 137.593 53.5432 144.07 66.7339 146.693C79.9246 149.317 93.5971 147.971 106.023 142.824C118.448 137.677 129.068 128.961 136.54 117.779C144.012 106.596 148 93.4491 148 80C147.988 61.9691 140.819 44.6802 128.07 31.9305C115.32 19.1807 98.0309 12.0124 80 12ZM126.897 82.3448H121.316C120.734 92.491 116.441 102.069 109.255 109.255C102.069 116.441 92.491 120.734 82.3449 121.316V126.897C82.3449 127.518 82.0978 128.115 81.6581 128.555C81.2183 128.994 80.6219 129.241 80 129.241C79.3781 129.241 78.7817 128.994 78.342 128.555C77.9022 128.115 77.6552 127.518 77.6552 126.897V121.316C67.509 120.734 57.9311 116.441 50.7449 109.255C43.5586 102.069 39.266 92.491 38.6842 82.3448H33.1035C32.4816 82.3448 31.8852 82.0978 31.4454 81.658C31.0057 81.2183 30.7587 80.6219 30.7587 80C30.7587 79.3781 31.0057 78.7817 31.4454 78.342C31.8852 77.9022 32.4816 77.6552 33.1035 77.6552H38.6842C39.266 67.509 43.5586 57.931 50.7449 50.7448C57.9311 43.5586 67.509 39.266 77.6552 38.6841V33.1034C77.6552 32.4816 77.9022 31.8851 78.342 31.4454C78.7817 31.0057 79.3781 30.7586 80 30.7586C80.6219 30.7586 81.2183 31.0057 81.6581 31.4454C82.0978 31.8851 82.3449 32.4816 82.3449 33.1034V38.6841C92.491 39.266 102.069 43.5586 109.255 50.7448C116.441 57.931 120.734 67.509 121.316 77.6552H126.897C127.518 77.6552 128.115 77.9022 128.555 78.342C128.994 78.7817 129.241 79.3781 129.241 80C129.241 80.6219 128.994 81.2183 128.555 81.658C128.115 82.0978 127.518 82.3448 126.897 82.3448Z" fill="#789904"/>
<path d="M111.28 77.6549H116.626C116.043 68.7548 112.243 60.3703 105.937 54.0635C99.6296 47.7566 91.2452 43.9574 82.3451 43.3735V48.7197C82.3451 49.3416 82.098 49.938 81.6583 50.3778C81.2185 50.8175 80.6221 51.0646 80.0002 51.0646C79.3783 51.0646 78.7819 50.8175 78.3422 50.3778C77.9024 49.938 77.6554 49.3416 77.6554 48.7197V43.3735C68.7553 43.9574 60.3708 47.7566 54.0639 54.0635C47.7571 60.3703 43.9579 68.7548 43.374 77.6549H48.7202C49.3421 77.6549 49.9385 77.902 50.3783 78.3417C50.818 78.7814 51.0651 79.3779 51.0651 79.9997C51.0651 80.6216 50.818 81.218 50.3783 81.6578C49.9385 82.0975 49.3421 82.3446 48.7202 82.3446H43.374C43.9579 91.2447 47.7571 99.6292 54.0639 105.936C60.3708 112.243 68.7553 116.042 77.6554 116.626V111.28C77.6554 110.658 77.9024 110.061 78.3422 109.622C78.7819 109.182 79.3783 108.935 80.0002 108.935C80.6221 108.935 81.2185 109.182 81.6583 109.622C82.098 110.061 82.3451 110.658 82.3451 111.28V116.626C91.2452 116.042 99.6296 112.243 105.937 105.936C112.243 99.6292 116.043 91.2447 116.626 82.3446H111.28C110.658 82.3446 110.062 82.0975 109.622 81.6578C109.182 81.218 108.935 80.6216 108.935 79.9997C108.935 79.3779 109.182 78.7814 109.622 78.3417C110.062 77.902 110.658 77.6549 111.28 77.6549ZM80.0002 94.0687C77.2177 94.0687 74.4976 93.2436 72.1839 91.6977C69.8703 90.1517 68.067 87.9545 67.0022 85.3837C65.9374 82.8129 65.6587 79.9841 66.2016 77.255C66.7444 74.5259 68.0844 72.0191 70.052 70.0515C72.0195 68.0839 74.5264 66.744 77.2555 66.2011C79.9846 65.6583 82.8134 65.9369 85.3842 67.0017C87.955 68.0666 90.1522 69.8698 91.6981 72.1834C93.2441 74.4971 94.0692 77.2172 94.0692 79.9997C94.0692 83.7311 92.5869 87.3096 89.9485 89.948C87.31 92.5864 83.7316 94.0687 80.0002 94.0687Z" fill="#789904"/>
<path d="M80.0004 89.3792C85.1805 89.3792 89.3797 85.18 89.3797 79.9999C89.3797 74.8199 85.1805 70.6206 80.0004 70.6206C74.8204 70.6206 70.6211 74.8199 70.6211 79.9999C70.6211 85.18 74.8204 89.3792 80.0004 89.3792Z" fill="#789904"/>
</svg>
