<svg width="160" height="160" viewBox="0 0 160 160" fill="none" xmlns="http://www.w3.org/2000/svg">
<path d="M59.924 100.792C53.4 105.916 49.2 113.868 49.2 122.8V131.2H32.4C27.752 131.2 24 127.448 24 122.8V117.2C24 106.364 32.764 97.6001 43.6 97.6001H49.2C53.176 97.6001 56.844 98.7761 59.924 100.792Z" fill="#789904"/>
<path d="M113.6 97.5999C120.559 97.5999 126.2 91.9587 126.2 84.9999C126.2 78.0411 120.559 72.3999 113.6 72.3999C106.641 72.3999 101 78.0411 101 84.9999C101 91.9587 106.641 97.5999 113.6 97.5999Z" fill="#789904"/>
<path d="M46.3998 97.5999C53.3586 97.5999 58.9998 91.9587 58.9998 84.9999C58.9998 78.0411 53.3586 72.3999 46.3998 72.3999C39.441 72.3999 33.7998 78.0411 33.7998 84.9999C33.7998 91.9587 39.441 97.5999 46.3998 97.5999Z" fill="#789904"/>
<path d="M136 117.2V122.8C136 127.448 132.248 131.2 127.6 131.2H110.8V122.8C110.8 113.868 106.6 105.916 100.076 100.792C103.156 98.7761 106.824 97.6001 110.8 97.6001H116.4C127.236 97.6001 136 106.364 136 117.2Z" fill="#789904"/>
<path d="M79.9996 99.0002C88.5048 99.0002 95.3996 92.1054 95.3996 83.6002C95.3996 75.095 88.5048 68.2002 79.9996 68.2002C71.4944 68.2002 64.5996 75.095 64.5996 83.6002C64.5996 92.1054 71.4944 99.0002 79.9996 99.0002Z" fill="#789904"/>
<path d="M82.9868 99.2803H77.0134C63.8393 99.2803 53.1201 109.617 53.1201 122.32V130.96C53.1201 135.724 57.1402 139.6 62.0801 139.6H97.9201C102.86 139.6 106.88 135.724 106.88 130.96V122.32C106.88 109.617 96.161 99.2803 82.9868 99.2803Z" fill="#789904"/>
<path d="M120.6 60.3154L113.843 62.7178C111.925 63.3982 109.923 61.945 109.979 59.9094L110.175 52.7414L105.802 47.0574C104.561 45.4446 105.326 43.0898 107.277 42.513L114.157 40.4858L118.211 34.5694C119.362 32.8922 121.837 32.8922 122.988 34.5694L127.042 40.4858L133.922 42.513C135.874 43.087 136.638 45.4446 135.398 47.0574L131.024 52.7414L131.22 59.9094C131.276 61.9422 129.271 63.3982 127.356 62.7178L120.6 60.3154Z" fill="#789904"/>
<path d="M39.3995 60.3154L32.6431 62.7178C30.7251 63.3982 28.723 61.945 28.779 59.9094L28.9751 52.7414L24.6015 47.0574C23.3611 45.4446 24.1255 43.0898 26.0771 42.513L32.9567 40.4858L37.0111 34.5694C38.1619 32.8922 40.637 32.8922 41.7878 34.5694L45.8422 40.4858L52.7219 42.513C54.6735 43.087 55.4379 45.4446 54.1975 47.0574L49.8239 52.7414L50.0199 59.9094C50.0759 61.9422 48.0711 63.3982 46.1559 62.7178L39.3995 60.3154Z" fill="#789904"/>
<path d="M79.9996 54.0151L71.9888 56.8627C69.7152 57.6719 67.3408 55.9443 67.408 53.5335L67.6404 45.0355L62.4548 38.2959C60.9848 36.3835 61.892 33.5919 64.2048 32.9087L72.3612 30.5035L77.4797 21.9998C78.8433 20.009 81.7805 20.009 83.1441 21.9998L87.6408 30.5035L95.7972 32.9087C98.11 33.5919 99.0172 36.3835 97.5472 38.2959L92.3616 45.0355L92.594 53.5335C92.6612 55.9443 90.284 57.6719 88.0132 56.8627L79.9996 54.0151Z" fill="#789904"/>
</svg>
