<svg width="160" height="160" viewBox="0 0 160 160" fill="none" xmlns="http://www.w3.org/2000/svg">
<path d="M72.5793 62.1105C72.524 62.5414 73.0078 62.845 73.3781 62.6177C81.0004 57.9391 88.441 58.2755 95.4856 59.8867C95.8652 59.9736 96.2002 59.6166 96.0888 59.2434C91.7577 44.7381 92.595 28.0194 93.4372 19.6362C93.4863 19.1469 92.8649 18.8761 92.5331 19.239C83.087 29.5698 74.2072 31.6268 70.2462 31.9999C69.9217 32.0305 69.7061 32.3535 69.8021 32.665C73.8067 45.6646 73.2839 56.6168 72.5793 62.1105Z" fill="#789904"/>
<path d="M34.1698 72.5567C34.2658 72.9426 34.7538 73.0805 35.0312 72.7955C40.0716 67.6153 46.1486 63.3023 55.1367 63.1343C55.5667 63.1263 55.8116 62.6217 55.5383 62.2897C51.291 57.1291 42.4892 45.1986 38.5875 30.7613C38.5416 30.5915 38.4131 30.4573 38.2432 30.4115C34.8985 29.5094 22.2241 27.1056 16.1649 40.4032C16.0684 40.6149 16.131 40.8695 16.3148 41.0121C19.5326 43.5069 29.1641 52.4321 34.1698 72.5567Z" fill="#789904"/>
<path d="M92.4913 16.0269C92.75 15.7205 92.5522 15.2515 92.1517 15.2311C79.3326 14.5766 72.6236 24.4902 70.2186 29.1022C70.0388 29.4471 70.3131 29.841 70.6982 29.7867C74.7944 29.2088 83.505 26.6724 92.4913 16.0269Z" fill="#789904"/>
<path d="M143.294 67.8016C143.638 67.7548 143.816 67.3737 143.636 67.0767C141.24 63.1389 138.192 60.5454 134.538 59.3864C129.947 57.93 125.44 59.0366 122.991 59.9109C122.668 60.0263 122.571 60.4316 122.802 60.6857C129.934 68.5337 139.229 68.354 143.294 67.8016Z" fill="#789904"/>
<path d="M42.156 109.508C42.1721 109.504 42.1879 109.504 42.2038 109.504C42.2376 109.505 42.2705 109.497 42.3024 109.486C44.3673 108.737 46.6334 108.325 49.1038 108.387C49.5897 108.399 49.8424 107.777 49.4697 107.465C33.5713 94.1564 21.8185 99.4059 17.768 102.029C17.4893 102.21 17.4862 102.607 17.7481 102.811C30.0085 112.361 42.0304 109.54 42.156 109.508Z" fill="#789904"/>
<path d="M72.46 65.7943C72.2831 65.9257 72.2141 66.1605 72.29 66.3675C76.9933 79.2025 77.4037 93.118 77.216 100.372C77.2159 100.373 77.216 100.375 77.2159 100.376C77.1892 101.407 77.1518 102.293 77.1127 103.025C77.0921 103.411 77.4964 103.68 77.8459 103.514C83.5319 100.82 90.909 99.1125 97.1754 100.325C97.5424 100.396 97.8684 100.062 97.7828 99.6978C93.5817 81.8485 95.6991 67.3812 96.5861 62.8217C96.6371 62.5598 96.4746 62.3052 96.2157 62.2408C87.6341 60.1042 80.1794 60.063 72.46 65.7943Z" fill="#789904"/>
<path d="M28.502 126.503C28.3439 126.834 28.5944 127.206 28.9609 127.195C37.8319 126.93 44.4922 124.664 48.7827 120.443C52.1344 117.147 53.1347 113.439 53.4329 111.57C53.4724 111.323 53.3135 111.091 53.0701 111.032C51.5388 110.663 50.0774 110.494 48.6906 110.494C37.3639 110.494 30.794 121.705 28.502 126.503Z" fill="#789904"/>
<path d="M129.389 108.079C122.775 108.079 116.105 106.683 110.068 101.134C109.752 100.843 109.227 101.041 109.195 101.469C108.775 107.042 107.379 118.218 102.758 129.362C102.717 129.46 102.708 129.57 102.733 129.673C103.457 132.625 104.361 135.671 105.53 138.759C105.713 139.243 105.519 139.788 105.071 140.048C105.056 140.057 105.032 140.071 105.001 140.088C104.661 140.28 104.649 140.768 104.994 140.949C108.289 142.682 113.246 143.929 120.393 142.717C120.638 142.675 120.815 142.46 120.81 142.211C120.737 138.243 121.551 126.267 131.72 108.808C131.921 108.463 131.664 108.024 131.265 108.04C130.641 108.064 130.015 108.079 129.389 108.079Z" fill="#789904"/>
<path d="M57.9305 65.6958C57.8812 65.4812 57.6956 65.322 57.4759 65.3081C47.8798 64.703 41.6475 68.7959 35.618 75.2555C35.4358 75.4507 35.4384 75.753 35.624 75.9449C38.8609 79.291 48.5422 90.2876 54.7553 107.566C54.8819 107.918 55.3381 108.02 55.6069 107.76C60.2017 103.31 67.301 100.721 73.5526 99.8914C73.9366 99.8405 74.1345 99.4004 73.9061 99.0876C70.4145 94.3072 61.4298 80.9382 57.9305 65.6958Z" fill="#789904"/>
<path d="M122.113 63.0764C121.812 62.7792 121.29 62.94 121.229 63.3579C120.254 69.9695 117.357 84.7484 109.822 97.361C109.709 97.5503 109.733 97.794 109.883 97.956C116.383 105.001 123.686 106.354 132.484 105.862C132.759 105.846 132.969 105.614 132.957 105.339C132.762 100.813 133.172 87.3083 142.939 70.7726C143.151 70.4134 142.865 69.9544 142.45 69.9894C137.733 70.3866 129.061 69.9541 122.113 63.0764Z" fill="#789904"/>
<path d="M74.8612 105.562C74.8322 105.445 74.824 105.322 74.8373 105.201C74.8421 105.156 74.9411 104.145 75.0244 102.419C75.039 102.116 74.7815 101.871 74.4802 101.905C68.0723 102.624 60.5682 105.313 56.2735 110.099C56.1152 110.275 56.1097 110.538 56.2534 110.727C58.9173 114.22 67.4343 126.308 71.3196 142.704C71.3774 142.948 71.6064 143.115 71.8559 143.088C72.9428 142.97 74.6222 142.74 76.5815 142.319C76.7478 142.284 76.8075 142.125 76.8244 141.956V141.956C76.845 141.754 78.8001 121.595 74.8612 105.562Z" fill="#789904"/>
<path d="M100.555 129.68C97.5977 117.297 97.9982 106.784 98.2642 103.21C98.2817 102.974 98.1336 102.76 97.905 102.699C91.4594 100.961 83.3358 102.993 77.5164 106.062C77.3183 106.166 77.2177 106.39 77.2658 106.608C80.3435 120.589 79.3513 136.939 79.0198 141.143C79.004 141.343 79.1099 141.531 79.2904 141.62C87.6898 145.747 99.1756 140.68 102.838 138.837C103.063 138.724 103.162 138.462 103.077 138.225C102.068 135.408 101.27 132.632 100.617 129.934C100.61 129.906 100.6 129.878 100.592 129.85C100.574 129.795 100.567 129.738 100.555 129.68Z" fill="#789904"/>
</svg>
