<svg width="272" height="100" viewBox="0 0 272 100" fill="none" xmlns="http://www.w3.org/2000/svg">
<path d="M96.4238 70.1212C95.2478 71.3658 94.006 72.5421 92.7024 73.6421C90.2744 75.6905 87.6155 77.4901 84.7793 79.0156L96.8796 99.8133L113.939 100L96.4238 70.1212Z" fill="#3D3D3D"/>
<path d="M68.2586 48.7073C68.9828 48.6792 69.7061 48.6551 70.4273 48.631C74.1183 48.5096 77.6048 48.3942 80.9414 47.7518C81.9685 47.5541 82.9834 47.2982 83.9821 46.9911L58.1324 2.89656L0 99.16H19.9079L58.1314 31.302L68.2586 48.7073Z" fill="#3D3D3D"/>
<path d="M41.5499 97.4698C39.591 90.0488 39.5028 81.5629 40.6849 73.9974C41.867 66.4318 45.7343 58.8944 52.453 55.1136C61.0486 50.276 71.817 52.5764 81.5207 50.7086C92.6071 48.5748 102.331 40.4814 106.367 30.0303C108.401 44.7338 102.409 60.2875 91.0057 69.9085C79.6023 79.5295 63.1504 82.9118 48.8257 78.579C57.3606 66.754 81.0031 67.6462 87.9781 56.4605C82.2369 62.1492 73.2199 63.0053 68.2961 64.5861C63.3713 66.1669 58.1294 68.4482 53.626 70.9764C44.5239 76.086 39.4005 87.3269 41.5499 97.4698Z" fill="#3D3D3D"/>
<path d="M158.716 20.6568L140.979 71.1002H125.124L107.387 20.6568H122.251L132.787 56.7488H133.316L143.819 20.6568H158.716Z" fill="#3D3D3D"/>
<path d="M165.916 71.1002V20.6568H179.987V71.1002H165.916ZM172.985 14.1544C170.893 14.1544 169.098 13.4647 167.601 12.0854C166.125 10.6842 165.388 9.00931 165.388 7.06076C165.388 5.1341 166.125 3.48112 167.601 2.10181C169.098 0.700603 170.893 0 172.985 0C175.077 0 176.86 0.700603 178.335 2.10181C179.833 3.48112 180.582 5.1341 180.582 7.06076C180.582 9.00931 179.833 10.6842 178.335 12.0854C176.86 13.4647 175.077 14.1544 172.985 14.1544Z" fill="#3D3D3D"/>
<path d="M191.258 71.1002V20.6568H204.9V29.4581H205.428C206.353 26.3273 207.906 23.9628 210.086 22.3645C212.266 20.7444 214.776 19.9343 217.616 19.9343C218.321 19.9343 219.081 19.9781 219.895 20.0657C220.71 20.1533 221.426 20.2737 222.042 20.4269V32.8407C221.382 32.6437 220.468 32.4685 219.301 32.3153C218.134 32.162 217.066 32.0854 216.097 32.0854C214.027 32.0854 212.177 32.5342 210.548 33.4319C208.941 34.3076 207.663 35.5337 206.716 37.11C205.792 38.6864 205.329 40.5036 205.329 42.5616V71.1002H191.258Z" fill="#3D3D3D"/>
<path d="M242.331 72.0525C239.094 72.0525 236.21 71.4943 233.677 70.3777C231.145 69.2392 229.141 67.5643 227.666 65.353C226.212 63.1199 225.486 60.3394 225.486 57.0115C225.486 54.2091 226.003 51.8555 227.038 49.9507C228.073 48.046 229.482 46.5134 231.266 45.353C233.05 44.1927 235.075 43.3169 237.344 42.7258C239.634 42.1346 242.034 41.7187 244.544 41.4778C247.495 41.1713 249.873 40.8867 251.679 40.624C253.484 40.3394 254.794 39.9234 255.609 39.376C256.424 38.8287 256.831 38.0186 256.831 36.9458V36.7488C256.831 34.6689 256.171 33.0597 254.849 31.9212C253.55 30.7827 251.701 30.2135 249.3 30.2135C246.768 30.2135 244.753 30.7718 243.256 31.8883C241.759 32.983 240.768 34.3623 240.283 36.0263L227.269 34.9754C227.93 31.9102 229.229 29.2611 231.167 27.0279C233.105 24.7729 235.604 23.0432 238.665 21.8391C241.748 20.613 245.315 20 249.366 20C252.185 20 254.882 20.3284 257.459 20.9852C260.057 21.642 262.358 22.6601 264.362 24.0394C266.388 25.4187 267.984 27.1921 269.151 29.3596C270.318 31.5052 270.902 34.0777 270.902 37.0772V71.1002H257.558V64.1051H257.162C256.347 65.6814 255.257 67.0717 253.892 68.2759C252.526 69.4581 250.886 70.3886 248.97 71.0673C247.054 71.7241 244.841 72.0525 242.331 72.0525ZM246.361 62.3974C248.431 62.3974 250.258 61.9923 251.844 61.1823C253.429 60.3503 254.673 59.2337 255.576 57.8325C256.479 56.4313 256.93 54.844 256.93 53.0706V47.7176C256.49 48.0022 255.884 48.2649 255.114 48.5057C254.365 48.7247 253.517 48.9327 252.57 49.1297C251.623 49.3049 250.677 49.4691 249.73 49.6223C248.783 49.7537 247.924 49.8741 247.153 49.9836C245.502 50.2244 244.06 50.6076 242.827 51.133C241.593 51.6585 240.636 52.37 239.953 53.2677C239.27 54.1434 238.929 55.2381 238.929 56.5517C238.929 58.4565 239.623 59.9124 241.01 60.9195C242.419 61.9048 244.203 62.3974 246.361 62.3974Z" fill="#3D3D3D"/>
<path d="M152.035 98.6521C151.422 98.7048 150.923 98.8402 150.537 99.0585C150.037 98.3134 149.447 97.478 148.765 96.5523L146.574 93.6172L144.088 90.4224L139.569 84.7328V95.446C139.569 96.2212 139.641 96.7367 139.784 96.9926C139.936 97.2485 140.087 97.4141 140.238 97.4893C140.39 97.5646 140.553 97.6022 140.727 97.6022C140.901 97.6022 141.064 97.5985 141.215 97.5909C141.366 97.5759 141.51 97.5571 141.646 97.5345L142.021 97.4893C142.142 97.4743 142.237 97.4592 142.305 97.4442L142.169 98.844H135.833L135.981 97.6022C136.685 97.6022 137.139 97.5232 137.343 97.3652C137.729 97.0641 137.922 96.4884 137.922 95.6379V85.0601C137.922 84.2248 137.873 83.7017 137.775 83.491C137.676 83.2727 137.559 83.1335 137.423 83.0733C137.294 83.0055 137.131 82.9717 136.934 82.9717C136.692 82.9717 136.31 83.0131 135.788 83.0959L135.958 81.5718H140.704C140.946 82.2943 141.298 82.9717 141.76 83.6039L143.247 85.6133C147.229 90.746 149.553 93.715 150.219 94.5203V84.8005C150.219 83.92 150.173 83.3969 150.082 83.2313C149.992 83.0582 149.882 82.9566 149.753 82.9265C149.632 82.8889 149.443 82.8701 149.185 82.8701C148.936 82.8701 148.542 82.9115 148.005 82.9943L148.13 81.5718H153.966L153.807 82.8701C153.375 82.8701 153.031 82.8776 152.773 82.8927C152.516 82.9002 152.323 82.9566 152.194 83.062C151.975 83.22 151.865 83.7055 151.865 84.5183V95.9879C151.865 96.8609 151.922 97.749 152.035 98.6521Z" fill="#3D3D3D"/>
<path d="M154.34 97.6135C154.915 97.6135 155.302 97.5383 155.498 97.3877C155.801 97.1544 156.066 96.7668 156.293 96.225H156.282L161.959 81.5718C162.383 81.5718 162.791 81.5079 163.185 81.3799C163.579 81.252 163.825 81.1542 163.923 81.0864L169.169 95.0622C169.577 96.2438 170.028 97.0302 170.52 97.4216C170.671 97.542 170.811 97.6022 170.94 97.6022C171.318 97.6022 171.621 97.5307 171.848 97.3877L171.598 98.844H164.843L165.013 97.6022C166.292 97.6248 166.985 97.384 167.091 96.8797C167.129 96.7292 167.129 96.5636 167.091 96.383L165.638 92.556H159.574L158.121 96.6878C157.977 97.034 158.061 97.3087 158.371 97.5119C158.454 97.5721 158.609 97.6022 158.836 97.6022C159.071 97.6022 159.272 97.5947 159.438 97.5796C159.847 97.5571 160.15 97.5081 160.347 97.4329L160.165 98.844H154.193L154.34 97.6135ZM165.115 91.1675L162.504 84.2699L160.063 91.1675H165.115Z" fill="#3D3D3D"/>
<path d="M188.073 82.1814L187.937 86.11H186.336C186.336 85.4477 186.321 84.9134 186.291 84.507C186.26 84.1006 186.162 83.7845 185.995 83.5587C185.836 83.3329 185.583 83.1824 185.235 83.1071C184.886 83.0244 184.398 82.9754 183.77 82.9604H181.624V95.5702C181.624 96.4282 181.688 96.955 181.817 97.1507C181.953 97.3388 182.112 97.4592 182.294 97.5119C182.476 97.5571 182.653 97.5796 182.828 97.5796C183.009 97.5796 183.183 97.5759 183.35 97.5684C183.516 97.5533 183.694 97.5345 183.883 97.5119C184.391 97.4668 184.693 97.4291 184.792 97.399L184.656 98.844L175.936 98.8327L176.026 97.5796C176.768 97.5796 177.344 97.5571 177.752 97.5119C178.169 97.4668 178.475 97.3689 178.672 97.2184C178.876 97.0603 179.001 96.8346 179.047 96.5411C179.092 96.24 179.115 95.8336 179.115 95.3218V82.9604H177.332C176.076 82.9905 175.228 83.22 174.789 83.649C174.357 84.0705 174.089 84.8908 173.983 86.11H172.393C172.461 85.5079 172.548 84.8833 172.654 84.236C172.76 83.5813 172.84 83.0695 172.893 82.7007L173.052 81.5718H188.05C188.066 81.6546 188.073 81.7449 188.073 81.8428V82.1814Z" fill="#3D3D3D"/>
<path d="M202.618 83.5361C202.489 83.2577 202.349 83.0808 202.198 83.0055C202.054 82.9228 201.872 82.8814 201.653 82.8814C201.433 82.8814 201.115 82.9265 200.699 83.0168L200.824 81.5718H206.285L206.115 82.8814C205.396 82.8814 204.945 83.0469 204.764 83.3781C204.612 83.6641 204.537 84.3301 204.537 85.3762V91.9577C204.537 94.2757 204.007 96.0331 202.947 97.2297C201.895 98.4188 200.264 99.0133 198.053 99.0133C195.73 99.0133 194 98.3586 192.865 97.0491C191.828 95.8449 191.309 94.1214 191.309 91.8787V87.397L191.298 85.2746V84.6199C191.298 83.8146 191.241 83.3329 191.127 83.1749C191.021 83.0168 190.912 82.9303 190.798 82.9152C190.685 82.8927 190.571 82.8814 190.457 82.8814C190.223 82.8814 189.905 82.9265 189.504 83.0168L189.663 81.5718H196.055L195.885 82.8814C194.954 82.8814 194.371 83.0055 194.136 83.2539C193.909 83.4947 193.796 84.0968 193.796 85.0601V91.5513C193.796 95.5702 195.211 97.5796 198.042 97.5796C199.018 97.5796 199.753 97.4705 200.245 97.2523C200.737 97.034 201.127 96.7857 201.414 96.5072C201.709 96.2287 201.963 95.8712 202.175 95.4347C202.606 94.509 202.822 93.2522 202.822 91.6642V85.3424C202.822 84.4167 202.754 83.8146 202.618 83.5361Z" fill="#3D3D3D"/>
<path d="M212.609 97.0603C212.73 97.2636 212.874 97.4065 213.041 97.4893C213.207 97.5646 213.449 97.6022 213.767 97.6022C214.093 97.6022 214.498 97.542 214.982 97.4216L214.857 98.844H208.158L208.295 97.6022C209.074 97.5872 209.57 97.384 209.782 96.9926C209.964 96.6765 210.055 95.9766 210.055 94.8929L210.043 84.7215C210.043 83.9839 210.009 83.5286 209.941 83.3555C209.805 83.0394 209.494 82.8814 209.01 82.8814C208.624 82.8814 208.23 82.9265 207.829 83.0168L208.011 81.5718H211.281L215.891 81.4025C218.676 81.4025 220.44 82.2642 221.182 83.9877C221.409 84.5296 221.522 85.1429 221.522 85.8278C221.522 86.5051 221.397 87.126 221.147 87.6905C220.898 88.2549 220.576 88.7516 220.182 89.1806C219.395 90.0386 218.479 90.5918 217.435 90.8401C218.192 91.2239 219.009 92.1534 219.887 93.6285L221.193 95.8411C221.867 96.9475 222.393 97.5006 222.771 97.5006C223.066 97.5157 223.388 97.4668 223.736 97.3539L223.679 98.844H221.954C220.811 98.844 219.887 98.4564 219.183 97.6812C218.835 97.2447 218.528 96.6803 218.264 95.9879L217.639 94.4074C217.359 93.715 217.026 93.1167 216.64 92.6125C216.254 92.1007 215.928 91.7583 215.663 91.5852C215.179 91.2766 214.422 91.1223 213.393 91.1223H212.439V95.6831C212.439 96.3981 212.496 96.8571 212.609 97.0603ZM216.685 82.9491C216.201 82.7911 215.769 82.712 215.391 82.712H213.983C213.415 82.712 212.901 82.7722 212.439 82.8927V89.7677H215.175C216.205 89.7526 217.064 89.4365 217.753 88.8194C218.487 88.1496 218.854 87.269 218.854 86.1778C218.854 84.4769 218.131 83.4007 216.685 82.9491Z" fill="#3D3D3D"/>
<path d="M224.1 97.6135C224.675 97.6135 225.061 97.5383 225.258 97.3877C225.56 97.1544 225.825 96.7668 226.052 96.225H226.041L231.718 81.5718C232.142 81.5718 232.551 81.5079 232.944 81.3799C233.338 81.252 233.584 81.1542 233.682 81.0864L238.928 95.0622C239.337 96.2438 239.787 97.0302 240.279 97.4216C240.43 97.542 240.57 97.6022 240.699 97.6022C241.078 97.6022 241.38 97.5307 241.608 97.3877L241.358 98.844H234.602L234.772 97.6022C236.052 97.6248 236.744 97.384 236.85 96.8797C236.888 96.7292 236.888 96.5636 236.85 96.383L235.397 92.556H229.334L227.88 96.6878C227.737 97.034 227.82 97.3087 228.13 97.5119C228.214 97.5721 228.369 97.6022 228.596 97.6022C228.83 97.6022 229.031 97.5947 229.198 97.5796C229.606 97.5571 229.909 97.5081 230.106 97.4329L229.924 98.844H223.952L224.1 97.6135ZM234.875 91.1675L232.263 84.2699L229.822 91.1675H234.875Z" fill="#3D3D3D"/>
<path d="M255.868 93.7978C255.906 94.2118 255.925 94.6407 255.925 95.0848C255.925 95.7094 255.857 96.3905 255.721 97.1281C255.539 98.0764 255.441 98.6483 255.425 98.844H242.118L242.255 97.5458C242.981 97.5608 243.488 97.4141 243.776 97.1055C244.117 96.7518 244.287 96.0857 244.287 95.1074L244.276 84.7553C244.276 83.9425 244.223 83.4458 244.117 83.2652C244.011 83.0846 243.897 82.9754 243.776 82.9378C243.663 82.9002 243.5 82.8814 243.288 82.8814C243.084 82.8814 242.906 82.8964 242.754 82.9265C242.573 82.9717 242.451 82.9943 242.391 82.9943L242.573 81.5718H249.385L249.226 82.8927C248.25 82.8927 247.64 82.9679 247.398 83.1184C247.156 83.269 246.989 83.4646 246.898 83.7055C246.815 83.9463 246.774 84.2737 246.774 84.6876L246.785 85.0376V95.6831C246.785 96.7969 247.156 97.4178 247.898 97.5458C248.117 97.5834 248.352 97.6022 248.602 97.6022H250.475C252.557 97.6022 253.798 96.8082 254.199 95.2202C254.32 94.7612 254.407 94.287 254.46 93.7978H255.868Z" fill="#3D3D3D"/>
<path d="M270.254 81.617C270.269 81.918 270.276 82.4486 270.276 83.2087C270.276 83.9613 270.155 84.9849 269.913 86.2794H268.664C268.619 84.3753 267.862 83.2276 266.393 82.8362C265.932 82.7083 265.387 82.6443 264.758 82.6443C264.13 82.6443 263.597 82.7271 263.158 82.8927C262.726 83.0582 262.389 83.2727 262.147 83.5361C261.716 83.9952 261.519 84.5973 261.557 85.3424C261.617 86.4863 262.45 87.4722 264.054 88.3001C264.531 88.5484 265.008 88.778 265.485 88.9887C265.97 89.1994 266.42 89.4102 266.836 89.6209C267.26 89.8241 267.669 90.0499 268.062 90.2982C268.456 90.5391 268.823 90.7987 269.164 91.0772C269.512 91.3556 269.819 91.6604 270.083 91.9916C270.644 92.699 270.954 93.4629 271.015 94.2833C271.015 95.811 270.405 97.0001 269.187 97.8506C268.059 98.6333 266.571 99.0246 264.724 99.0246C264.134 99.0246 263.309 98.9268 262.249 98.7311C261.189 98.5354 260.451 98.4376 260.035 98.4376C259.626 98.4376 259.271 98.4602 258.968 98.5053L258.877 98.4828C258.869 98.3172 258.866 98.1516 258.866 97.986V97.5119C258.866 95.9239 258.953 94.637 259.127 93.6511H260.41C260.501 95.7659 261.269 97.0603 262.715 97.5345C263.229 97.7076 263.808 97.7941 264.452 97.7941C265.103 97.7941 265.663 97.7226 266.132 97.5796C266.602 97.4291 267.003 97.2259 267.336 96.97C268.032 96.4357 268.38 95.7508 268.38 94.9154C268.305 93.7263 267.393 92.7178 265.644 91.89C265.137 91.6492 264.728 91.461 264.418 91.3255L263.839 91.0772C263.755 91.0396 263.551 90.953 263.226 90.8175C262.908 90.6821 262.48 90.4488 261.943 90.1176C261.413 89.7865 260.94 89.4064 260.523 88.9774C259.615 88.0367 259.146 86.9642 259.115 85.7601C259.085 84.4581 259.626 83.4007 260.739 82.5879C261.829 81.7976 263.26 81.4025 265.031 81.4025C265.303 81.4025 265.72 81.4364 266.28 81.5041L267.71 81.6847C268.119 81.7374 268.528 81.7638 268.937 81.7638C269.353 81.7638 269.792 81.7148 270.254 81.617Z" fill="#3D3D3D"/>
</svg>
