<svg width="81" height="115" viewBox="0 0 81 115" fill="none" xmlns="http://www.w3.org/2000/svg">
<g clip-path="url(#clip0_5552_12189)">
<path d="M20.19 59.7691C18.5087 59.4088 16.803 59.5809 15.3537 59.5352C13.7641 59.5352 12.4228 59.554 11.0788 59.5244C10.5066 59.5136 10.288 59.7072 10.2934 60.2906C10.315 62.6996 10.3096 65.1112 10.2961 67.5201C10.2934 68.0175 10.45 68.2568 10.9843 68.2461C13.9773 68.1762 16.9838 68.4423 19.9633 68.0283C22.2331 67.711 23.6985 66.0818 23.7093 64.0008C23.7201 61.7989 22.4274 60.2476 20.19 59.7691ZM20.8728 70.4722C19.016 70.0232 17.135 70.2517 15.5454 70.1818C13.8802 70.1818 12.493 70.1979 11.1085 70.1764C10.5849 70.1684 10.2853 70.2625 10.2907 70.8943C10.3177 73.6581 10.3069 76.4219 10.2988 79.1831C10.2988 79.589 10.3636 79.8794 10.8683 79.8606C14.2094 79.7342 17.5776 80.2047 20.8944 79.538C23.3315 79.046 24.5972 77.3495 24.5837 74.8438C24.5675 72.5424 23.291 71.0583 20.8728 70.4722ZM20.8728 70.4722C19.016 70.0232 17.135 70.2517 15.5454 70.1818C13.8802 70.1818 12.493 70.1979 11.1085 70.1764C10.5849 70.1684 10.2853 70.2625 10.2907 70.8943C10.3177 73.6581 10.3069 76.4219 10.2988 79.1831C10.2988 79.589 10.3636 79.8794 10.8683 79.8606C14.2094 79.7342 17.5776 80.2047 20.8944 79.538C23.3315 79.046 24.5972 77.3495 24.5837 74.8438C24.5675 72.5424 23.291 71.0583 20.8728 70.4722ZM20.19 59.7691C18.5087 59.4088 16.803 59.5809 15.3537 59.5352C13.7641 59.5352 12.4228 59.554 11.0788 59.5244C10.5066 59.5136 10.288 59.7072 10.2934 60.2906C10.315 62.6996 10.3096 65.1112 10.2961 67.5201C10.2934 68.0175 10.45 68.2568 10.9843 68.2461C13.9773 68.1762 16.9838 68.4423 19.9633 68.0283C22.2331 67.711 23.6985 66.0818 23.7093 64.0008C23.7201 61.7989 22.4274 60.2476 20.19 59.7691ZM20.19 59.7691C18.5087 59.4088 16.803 59.5809 15.3537 59.5352C13.7641 59.5352 12.4228 59.554 11.0788 59.5244C10.5066 59.5136 10.288 59.7072 10.2934 60.2906C10.315 62.6996 10.3096 65.1112 10.2961 67.5201C10.2934 68.0175 10.45 68.2568 10.9843 68.2461C13.9773 68.1762 16.9838 68.4423 19.9633 68.0283C22.2331 67.711 23.6985 66.0818 23.7093 64.0008C23.7201 61.7989 22.4274 60.2476 20.19 59.7691ZM20.8728 70.4722C19.016 70.0232 17.135 70.2517 15.5454 70.1818C13.8802 70.1818 12.493 70.1979 11.1085 70.1764C10.5849 70.1684 10.2853 70.2625 10.2907 70.8943C10.3177 73.6581 10.3069 76.4219 10.2988 79.1831C10.2988 79.589 10.3636 79.8794 10.8683 79.8606C14.2094 79.7342 17.5776 80.2047 20.8944 79.538C23.3315 79.046 24.5972 77.3495 24.5837 74.8438C24.5675 72.5424 23.291 71.0583 20.8728 70.4722ZM42.8143 59.6857C41.2112 59.4007 39.5946 59.6077 38.256 59.5352C36.5989 59.5352 35.209 59.5674 33.8218 59.5217C33.1039 59.4975 32.888 59.7691 32.9015 60.4493C32.9366 62.2345 32.9258 64.0197 32.9285 65.8022C32.9285 69.101 32.9285 69.1279 36.2535 69.093C38.4827 69.0688 40.7308 69.3457 42.9439 68.8994C45.3728 68.4101 46.8869 66.4985 46.8086 64.138C46.7276 61.6833 45.3243 60.132 42.8143 59.6857ZM42.8143 59.6857C41.2112 59.4007 39.5946 59.6077 38.256 59.5352C36.5989 59.5352 35.209 59.5674 33.8218 59.5217C33.1039 59.4975 32.888 59.7691 32.9015 60.4493C32.9366 62.2345 32.9258 64.0197 32.9285 65.8022C32.9285 69.101 32.9285 69.1279 36.2535 69.093C38.4827 69.0688 40.7308 69.3457 42.9439 68.8994C45.3728 68.4101 46.8869 66.4985 46.8086 64.138C46.7276 61.6833 45.3243 60.132 42.8143 59.6857ZM20.8728 70.4722C19.016 70.0232 17.135 70.2517 15.5454 70.1818C13.8802 70.1818 12.493 70.1979 11.1085 70.1764C10.5849 70.1684 10.2853 70.2625 10.2907 70.8943C10.3177 73.6581 10.3069 76.4219 10.2988 79.1831C10.2988 79.589 10.3636 79.8794 10.8683 79.8606C14.2094 79.7342 17.5776 80.2047 20.8944 79.538C23.3315 79.046 24.5972 77.3495 24.5837 74.8438C24.5675 72.5424 23.291 71.0583 20.8728 70.4722ZM20.19 59.7691C18.5087 59.4088 16.803 59.5809 15.3537 59.5352C13.7641 59.5352 12.4228 59.554 11.0788 59.5244C10.5066 59.5136 10.288 59.7072 10.2934 60.2906C10.315 62.6996 10.3096 65.1112 10.2961 67.5201C10.2934 68.0175 10.45 68.2568 10.9843 68.2461C13.9773 68.1762 16.9838 68.4423 19.9633 68.0283C22.2331 67.711 23.6985 66.0818 23.7093 64.0008C23.7201 61.7989 22.4274 60.2476 20.19 59.7691ZM20.19 59.7691C18.5087 59.4088 16.803 59.5809 15.3537 59.5352C13.7641 59.5352 12.4228 59.554 11.0788 59.5244C10.5066 59.5136 10.288 59.7072 10.2934 60.2906C10.315 62.6996 10.3096 65.1112 10.2961 67.5201C10.2934 68.0175 10.45 68.2568 10.9843 68.2461C13.9773 68.1762 16.9838 68.4423 19.9633 68.0283C22.2331 67.711 23.6985 66.0818 23.7093 64.0008C23.7201 61.7989 22.4274 60.2476 20.19 59.7691ZM20.8728 70.4722C19.016 70.0232 17.135 70.2517 15.5454 70.1818C13.8802 70.1818 12.493 70.1979 11.1085 70.1764C10.5849 70.1684 10.2853 70.2625 10.2907 70.8943C10.3177 73.6581 10.3069 76.4219 10.2988 79.1831C10.2988 79.589 10.3636 79.8794 10.8683 79.8606C14.2094 79.7342 17.5776 80.2047 20.8944 79.538C23.3315 79.046 24.5972 77.3495 24.5837 74.8438C24.5675 72.5424 23.291 71.0583 20.8728 70.4722ZM42.8143 59.6857C41.2112 59.4007 39.5946 59.6077 38.256 59.5352C36.5989 59.5352 35.209 59.5674 33.8218 59.5217C33.1039 59.4975 32.888 59.7691 32.9015 60.4493C32.9366 62.2345 32.9258 64.0197 32.9285 65.8022C32.9285 69.101 32.9285 69.1279 36.2535 69.093C38.4827 69.0688 40.7308 69.3457 42.9439 68.8994C45.3728 68.4101 46.8869 66.4985 46.8086 64.138C46.7276 61.6833 45.3243 60.132 42.8143 59.6857ZM45.972 86.5847C44.9653 86.4126 45.0625 87.2353 45.2163 87.7676C45.416 88.4559 44.3581 89.7114 46.0017 89.7975C47.0758 89.8539 47.8315 89.4049 47.8908 88.222C47.9421 87.2165 47.2188 86.5981 45.972 86.5847ZM46.1501 91.623C44.5362 91.5558 45.4484 92.7737 45.1191 93.4055C45.5429 94.0104 44.404 95.3547 46.1204 95.3251C47.3943 95.3036 48.1283 94.653 48.1472 93.5319C48.1661 92.2494 47.5103 91.6795 46.1501 91.623ZM59.7414 91.6606C59.4607 90.2787 59.145 88.9049 58.84 87.5283C58.7536 87.5256 58.6673 87.5203 58.5809 87.5176C58.2759 88.8834 57.9548 90.2491 57.6741 91.6203C57.6201 91.8838 57.4042 92.3301 57.8279 92.4107C58.3866 92.5156 58.9857 92.5102 59.5525 92.4296C60.0221 92.3624 59.7927 91.9187 59.7414 91.6606ZM59.7414 91.6606C59.4607 90.2787 59.145 88.9049 58.84 87.5283C58.7536 87.5256 58.6673 87.5203 58.5809 87.5176C58.2759 88.8834 57.9548 90.2491 57.6741 91.6203C57.6201 91.8838 57.4042 92.3301 57.8279 92.4107C58.3866 92.5156 58.9857 92.5102 59.5525 92.4296C60.0221 92.3624 59.7927 91.9187 59.7414 91.6606ZM46.1501 91.623C44.5362 91.5558 45.4484 92.7737 45.1191 93.4055C45.5429 94.0104 44.404 95.3547 46.1204 95.3251C47.3943 95.3036 48.1283 94.653 48.1472 93.5319C48.1661 92.2494 47.5103 91.6795 46.1501 91.623ZM45.972 86.5847C44.9653 86.4126 45.0625 87.2353 45.2163 87.7676C45.416 88.4559 44.3581 89.7114 46.0017 89.7975C47.0758 89.8539 47.8315 89.4049 47.8908 88.222C47.9421 87.2165 47.2188 86.5981 45.972 86.5847ZM42.8143 59.6857C41.2112 59.4007 39.5946 59.6077 38.256 59.5352C36.5989 59.5352 35.209 59.5674 33.8218 59.5217C33.1039 59.4975 32.888 59.7691 32.9015 60.4493C32.9366 62.2345 32.9258 64.0197 32.9285 65.8022C32.9285 69.101 32.9285 69.1279 36.2535 69.093C38.4827 69.0688 40.7308 69.3457 42.9439 68.8994C45.3728 68.4101 46.8869 66.4985 46.8086 64.138C46.7276 61.6833 45.3243 60.132 42.8143 59.6857ZM20.8728 70.4722C19.016 70.0232 17.135 70.2517 15.5454 70.1818C13.8802 70.1818 12.493 70.1979 11.1085 70.1764C10.5849 70.1684 10.2853 70.2625 10.2907 70.8943C10.3177 73.6581 10.3069 76.4219 10.2988 79.1831C10.2988 79.589 10.3636 79.8794 10.8683 79.8606C14.2094 79.7342 17.5776 80.2047 20.8944 79.538C23.3315 79.046 24.5972 77.3495 24.5837 74.8438C24.5675 72.5424 23.291 71.0583 20.8728 70.4722ZM20.19 59.7691C18.5087 59.4088 16.803 59.5809 15.3537 59.5352C13.7641 59.5352 12.4228 59.554 11.0788 59.5244C10.5066 59.5136 10.288 59.7072 10.2934 60.2906C10.315 62.6996 10.3096 65.1112 10.2961 67.5201C10.2934 68.0175 10.45 68.2568 10.9843 68.2461C13.9773 68.1762 16.9838 68.4423 19.9633 68.0283C22.2331 67.711 23.6985 66.0818 23.7093 64.0008C23.7201 61.7989 22.4274 60.2476 20.19 59.7691ZM20.19 59.7691C18.5087 59.4088 16.803 59.5809 15.3537 59.5352C13.7641 59.5352 12.4228 59.554 11.0788 59.5244C10.5066 59.5136 10.288 59.7072 10.2934 60.2906C10.315 62.6996 10.3096 65.1112 10.2961 67.5201C10.2934 68.0175 10.45 68.2568 10.9843 68.2461C13.9773 68.1762 16.9838 68.4423 19.9633 68.0283C22.2331 67.711 23.6985 66.0818 23.7093 64.0008C23.7201 61.7989 22.4274 60.2476 20.19 59.7691ZM20.8728 70.4722C19.016 70.0232 17.135 70.2517 15.5454 70.1818C13.8802 70.1818 12.493 70.1979 11.1085 70.1764C10.5849 70.1684 10.2853 70.2625 10.2907 70.8943C10.3177 73.6581 10.3069 76.4219 10.2988 79.1831C10.2988 79.589 10.3636 79.8794 10.8683 79.8606C14.2094 79.7342 17.5776 80.2047 20.8944 79.538C23.3315 79.046 24.5972 77.3495 24.5837 74.8438C24.5675 72.5424 23.291 71.0583 20.8728 70.4722ZM36.1104 90.9778H36.105C36.105 90.0421 36.1752 89.0985 36.0862 88.1709C35.9971 87.2353 35.6193 86.3669 34.4804 86.3776C33.417 86.3857 33.0473 87.1977 32.9474 88.0956C32.7369 90.0072 32.7369 91.9268 32.9258 93.8384C33.0176 94.7417 33.4224 95.5402 34.4696 95.5564C35.5896 95.5725 36.0133 94.7444 36.0943 93.7846C36.1725 92.8544 36.1104 91.9134 36.1104 90.9778ZM42.8143 59.6857C41.2112 59.4007 39.5946 59.6077 38.256 59.5352C36.5989 59.5352 35.209 59.5674 33.8218 59.5217C33.1039 59.4975 32.888 59.7691 32.9015 60.4493C32.9366 62.2345 32.9258 64.0197 32.9285 65.8022C32.9285 69.101 32.9285 69.1279 36.2535 69.093C38.4827 69.0688 40.7308 69.3457 42.9439 68.8994C45.3728 68.4101 46.8869 66.4985 46.8086 64.138C46.7276 61.6833 45.3243 60.132 42.8143 59.6857ZM45.972 86.5847C44.9653 86.4126 45.0625 87.2353 45.2163 87.7676C45.416 88.4559 44.3581 89.7114 46.0017 89.7975C47.0758 89.8539 47.8315 89.4049 47.8908 88.222C47.9421 87.2165 47.2188 86.5981 45.972 86.5847ZM46.1501 91.623C44.5362 91.5558 45.4484 92.7737 45.1191 93.4055C45.5429 94.0104 44.404 95.3547 46.1204 95.3251C47.3943 95.3036 48.1283 94.653 48.1472 93.5319C48.1661 92.2494 47.5103 91.6795 46.1501 91.623ZM59.7414 91.6606C59.4607 90.2787 59.145 88.9049 58.84 87.5283C58.7536 87.5256 58.6673 87.5203 58.5809 87.5176C58.2759 88.8834 57.9548 90.2491 57.6741 91.6203C57.6201 91.8838 57.4042 92.3301 57.8279 92.4107C58.3866 92.5156 58.9857 92.5102 59.5525 92.4296C60.0221 92.3624 59.7927 91.9187 59.7414 91.6606ZM59.7414 91.6606C59.4607 90.2787 59.145 88.9049 58.84 87.5283C58.7536 87.5256 58.6673 87.5203 58.5809 87.5176C58.2759 88.8834 57.9548 90.2491 57.6741 91.6203C57.6201 91.8838 57.4042 92.3301 57.8279 92.4107C58.3866 92.5156 58.9857 92.5102 59.5525 92.4296C60.0221 92.3624 59.7927 91.9187 59.7414 91.6606ZM46.1501 91.623C44.5362 91.5558 45.4484 92.7737 45.1191 93.4055C45.5429 94.0104 44.404 95.3547 46.1204 95.3251C47.3943 95.3036 48.1283 94.653 48.1472 93.5319C48.1661 92.2494 47.5103 91.6795 46.1501 91.623ZM45.972 86.5847C44.9653 86.4126 45.0625 87.2353 45.2163 87.7676C45.416 88.4559 44.3581 89.7114 46.0017 89.7975C47.0758 89.8539 47.8315 89.4049 47.8908 88.222C47.9421 87.2165 47.2188 86.5981 45.972 86.5847ZM36.1104 90.9778H36.105C36.105 90.0421 36.1752 89.0985 36.0862 88.1709C35.9971 87.2353 35.6193 86.3669 34.4804 86.3776C33.417 86.3857 33.0473 87.1977 32.9474 88.0956C32.7369 90.0072 32.7369 91.9268 32.9258 93.8384C33.0176 94.7417 33.4224 95.5402 34.4696 95.5564C35.5896 95.5725 36.0133 94.7444 36.0943 93.7846C36.1725 92.8544 36.1104 91.9134 36.1104 90.9778ZM42.8143 59.6857C41.2112 59.4007 39.5946 59.6077 38.256 59.5352C36.5989 59.5352 35.209 59.5674 33.8218 59.5217C33.1039 59.4975 32.888 59.7691 32.9015 60.4493C32.9366 62.2345 32.9258 64.0197 32.9285 65.8022C32.9285 69.101 32.9285 69.1279 36.2535 69.093C38.4827 69.0688 40.7308 69.3457 42.9439 68.8994C45.3728 68.4101 46.8869 66.4985 46.8086 64.138C46.7276 61.6833 45.3243 60.132 42.8143 59.6857ZM20.8728 70.4722C19.016 70.0232 17.135 70.2517 15.5454 70.1818C13.8802 70.1818 12.493 70.1979 11.1085 70.1764C10.5849 70.1684 10.2853 70.2625 10.2907 70.8943C10.3177 73.6581 10.3069 76.4219 10.2988 79.1831C10.2988 79.589 10.3636 79.8794 10.8683 79.8606C14.2094 79.7342 17.5776 80.2047 20.8944 79.538C23.3315 79.046 24.5972 77.3495 24.5837 74.8438C24.5675 72.5424 23.291 71.0583 20.8728 70.4722ZM20.19 59.7691C18.5087 59.4088 16.803 59.5809 15.3537 59.5352C13.7641 59.5352 12.4228 59.554 11.0788 59.5244C10.5066 59.5136 10.288 59.7072 10.2934 60.2906C10.315 62.6996 10.3096 65.1112 10.2961 67.5201C10.2934 68.0175 10.45 68.2568 10.9843 68.2461C13.9773 68.1762 16.9838 68.4423 19.9633 68.0283C22.2331 67.711 23.6985 66.0818 23.7093 64.0008C23.7201 61.7989 22.4274 60.2476 20.19 59.7691ZM20.19 59.7691C18.5087 59.4088 16.803 59.5809 15.3537 59.5352C13.7641 59.5352 12.4228 59.554 11.0788 59.5244C10.5066 59.5136 10.288 59.7072 10.2934 60.2906C10.315 62.6996 10.3096 65.1112 10.2961 67.5201C10.2934 68.0175 10.45 68.2568 10.9843 68.2461C13.9773 68.1762 16.9838 68.4423 19.9633 68.0283C22.2331 67.711 23.6985 66.0818 23.7093 64.0008C23.7201 61.7989 22.4274 60.2476 20.19 59.7691ZM20.8728 70.4722C19.016 70.0232 17.135 70.2517 15.5454 70.1818C13.8802 70.1818 12.493 70.1979 11.1085 70.1764C10.5849 70.1684 10.2853 70.2625 10.2907 70.8943C10.3177 73.6581 10.3069 76.4219 10.2988 79.1831C10.2988 79.589 10.3636 79.8794 10.8683 79.8606C14.2094 79.7342 17.5776 80.2047 20.8944 79.538C23.3315 79.046 24.5972 77.3495 24.5837 74.8438C24.5675 72.5424 23.291 71.0583 20.8728 70.4722ZM36.1104 90.9778H36.105C36.105 90.0421 36.1752 89.0985 36.0862 88.1709C35.9971 87.2353 35.6193 86.3669 34.4804 86.3776C33.417 86.3857 33.0473 87.1977 32.9474 88.0956C32.7369 90.0072 32.7369 91.9268 32.9258 93.8384C33.0176 94.7417 33.4224 95.5402 34.4696 95.5564C35.5896 95.5725 36.0133 94.7444 36.0943 93.7846C36.1725 92.8544 36.1104 91.9134 36.1104 90.9778ZM42.8143 59.6857C41.2112 59.4007 39.5946 59.6077 38.256 59.5352C36.5989 59.5352 35.209 59.5674 33.8218 59.5217C33.1039 59.4975 32.888 59.7691 32.9015 60.4493C32.9366 62.2345 32.9258 64.0197 32.9285 65.8022C32.9285 69.101 32.9285 69.1279 36.2535 69.093C38.4827 69.0688 40.7308 69.3457 42.9439 68.8994C45.3728 68.4101 46.8869 66.4985 46.8086 64.138C46.7276 61.6833 45.3243 60.132 42.8143 59.6857ZM45.972 86.5847C44.9653 86.4126 45.0625 87.2353 45.2163 87.7676C45.416 88.4559 44.3581 89.7114 46.0017 89.7975C47.0758 89.8539 47.8315 89.4049 47.8908 88.222C47.9421 87.2165 47.2188 86.5981 45.972 86.5847ZM46.1501 91.623C44.5362 91.5558 45.4484 92.7737 45.1191 93.4055C45.5429 94.0104 44.404 95.3547 46.1204 95.3251C47.3943 95.3036 48.1283 94.653 48.1472 93.5319C48.1661 92.2494 47.5103 91.6795 46.1501 91.623ZM59.7414 91.6606C59.4607 90.2787 59.145 88.9049 58.84 87.5283C58.7536 87.5256 58.6673 87.5203 58.5809 87.5176C58.2759 88.8834 57.9548 90.2491 57.6741 91.6203C57.6201 91.8838 57.4042 92.3301 57.8279 92.4107C58.3866 92.5156 58.9857 92.5102 59.5525 92.4296C60.0221 92.3624 59.7927 91.9187 59.7414 91.6606ZM59.7414 91.6606C59.4607 90.2787 59.145 88.9049 58.84 87.5283C58.7536 87.5256 58.6673 87.5203 58.5809 87.5176C58.2759 88.8834 57.9548 90.2491 57.6741 91.6203C57.6201 91.8838 57.4042 92.3301 57.8279 92.4107C58.3866 92.5156 58.9857 92.5102 59.5525 92.4296C60.0221 92.3624 59.7927 91.9187 59.7414 91.6606ZM46.1501 91.623C44.5362 91.5558 45.4484 92.7737 45.1191 93.4055C45.5429 94.0104 44.404 95.3547 46.1204 95.3251C47.3943 95.3036 48.1283 94.653 48.1472 93.5319C48.1661 92.2494 47.5103 91.6795 46.1501 91.623ZM45.972 86.5847C44.9653 86.4126 45.0625 87.2353 45.2163 87.7676C45.416 88.4559 44.3581 89.7114 46.0017 89.7975C47.0758 89.8539 47.8315 89.4049 47.8908 88.222C47.9421 87.2165 47.2188 86.5981 45.972 86.5847ZM36.1104 90.9778H36.105C36.105 90.0421 36.1752 89.0985 36.0862 88.1709C35.9971 87.2353 35.6193 86.3669 34.4804 86.3776C33.417 86.3857 33.0473 87.1977 32.9474 88.0956C32.7369 90.0072 32.7369 91.9268 32.9258 93.8384C33.0176 94.7417 33.4224 95.5402 34.4696 95.5564C35.5896 95.5725 36.0133 94.7444 36.0943 93.7846C36.1725 92.8544 36.1104 91.9134 36.1104 90.9778ZM42.8143 59.6857C41.2112 59.4007 39.5946 59.6077 38.256 59.5352C36.5989 59.5352 35.209 59.5674 33.8218 59.5217C33.1039 59.4975 32.888 59.7691 32.9015 60.4493C32.9366 62.2345 32.9258 64.0197 32.9285 65.8022C32.9285 69.101 32.9285 69.1279 36.2535 69.093C38.4827 69.0688 40.7308 69.3457 42.9439 68.8994C45.3728 68.4101 46.8869 66.4985 46.8086 64.138C46.7276 61.6833 45.3243 60.132 42.8143 59.6857ZM20.8728 70.4722C19.016 70.0232 17.135 70.2517 15.5454 70.1818C13.8802 70.1818 12.493 70.1979 11.1085 70.1764C10.5849 70.1684 10.2853 70.2625 10.2907 70.8943C10.3177 73.6581 10.3069 76.4219 10.2988 79.1831C10.2988 79.589 10.3636 79.8794 10.8683 79.8606C14.2094 79.7342 17.5776 80.2047 20.8944 79.538C23.3315 79.046 24.5972 77.3495 24.5837 74.8438C24.5675 72.5424 23.291 71.0583 20.8728 70.4722ZM20.19 59.7691C18.5087 59.4088 16.803 59.5809 15.3537 59.5352C13.7641 59.5352 12.4228 59.554 11.0788 59.5244C10.5066 59.5136 10.288 59.7072 10.2934 60.2906C10.315 62.6996 10.3096 65.1112 10.2961 67.5201C10.2934 68.0175 10.45 68.2568 10.9843 68.2461C13.9773 68.1762 16.9838 68.4423 19.9633 68.0283C22.2331 67.711 23.6985 66.0818 23.7093 64.0008C23.7201 61.7989 22.4274 60.2476 20.19 59.7691ZM20.19 59.7691C18.5087 59.4088 16.803 59.5809 15.3537 59.5352C13.7641 59.5352 12.4228 59.554 11.0788 59.5244C10.5066 59.5136 10.288 59.7072 10.2934 60.2906C10.315 62.6996 10.3096 65.1112 10.2961 67.5201C10.2934 68.0175 10.45 68.2568 10.9843 68.2461C13.9773 68.1762 16.9838 68.4423 19.9633 68.0283C22.2331 67.711 23.6985 66.0818 23.7093 64.0008C23.7201 61.7989 22.4274 60.2476 20.19 59.7691ZM20.8728 70.4722C19.016 70.0232 17.135 70.2517 15.5454 70.1818C13.8802 70.1818 12.493 70.1979 11.1085 70.1764C10.5849 70.1684 10.2853 70.2625 10.2907 70.8943C10.3177 73.6581 10.3069 76.4219 10.2988 79.1831C10.2988 79.589 10.3636 79.8794 10.8683 79.8606C14.2094 79.7342 17.5776 80.2047 20.8944 79.538C23.3315 79.046 24.5972 77.3495 24.5837 74.8438C24.5675 72.5424 23.291 71.0583 20.8728 70.4722ZM25.1019 104.326C24.9211 103.326 24.6836 102.334 24.438 101.21C23.8766 102.283 23.8551 103.326 23.5825 104.302C23.4934 104.622 23.2586 105.076 23.7066 105.23C24.106 105.367 24.6188 105.372 25.0182 105.241C25.5202 105.079 25.1559 104.625 25.1019 104.326ZM36.1104 90.9778H36.105C36.105 90.0421 36.1752 89.0985 36.0862 88.1709C35.9971 87.2353 35.6193 86.3669 34.4804 86.3776C33.417 86.3857 33.0473 87.1977 32.9474 88.0956C32.7369 90.0072 32.7369 91.9268 32.9258 93.8384C33.0176 94.7417 33.4224 95.5402 34.4696 95.5564C35.5896 95.5725 36.0133 94.7444 36.0943 93.7846C36.1725 92.8544 36.1104 91.9134 36.1104 90.9778ZM42.8143 59.6857C41.2112 59.4007 39.5946 59.6077 38.256 59.5352C36.5989 59.5352 35.209 59.5674 33.8218 59.5217C33.1039 59.4975 32.888 59.7691 32.9015 60.4493C32.9366 62.2345 32.9258 64.0197 32.9285 65.8022C32.9285 69.101 32.9285 69.1279 36.2535 69.093C38.4827 69.0688 40.7308 69.3457 42.9439 68.8994C45.3728 68.4101 46.8869 66.4985 46.8086 64.138C46.7276 61.6833 45.3243 60.132 42.8143 59.6857ZM45.972 86.5847C44.9653 86.4126 45.0625 87.2353 45.2163 87.7676C45.416 88.4559 44.3581 89.7114 46.0017 89.7975C47.0758 89.8539 47.8315 89.4049 47.8908 88.222C47.9421 87.2165 47.2188 86.5981 45.972 86.5847ZM46.1501 91.623C44.5362 91.5558 45.4484 92.7737 45.1191 93.4055C45.5429 94.0104 44.404 95.3547 46.1204 95.3251C47.3943 95.3036 48.1283 94.653 48.1472 93.5319C48.1661 92.2494 47.5103 91.6795 46.1501 91.623ZM59.7414 91.6606C59.4607 90.2787 59.145 88.9049 58.84 87.5283C58.7536 87.5256 58.6673 87.5203 58.5809 87.5176C58.2759 88.8834 57.9548 90.2491 57.6741 91.6203C57.6201 91.8838 57.4042 92.3301 57.8279 92.4107C58.3866 92.5156 58.9857 92.5102 59.5525 92.4296C60.0221 92.3624 59.7927 91.9187 59.7414 91.6606ZM59.7414 91.6606C59.4607 90.2787 59.145 88.9049 58.84 87.5283C58.7536 87.5256 58.6673 87.5203 58.5809 87.5176C58.2759 88.8834 57.9548 90.2491 57.6741 91.6203C57.6201 91.8838 57.4042 92.3301 57.8279 92.4107C58.3866 92.5156 58.9857 92.5102 59.5525 92.4296C60.0221 92.3624 59.7927 91.9187 59.7414 91.6606ZM46.1501 91.623C44.5362 91.5558 45.4484 92.7737 45.1191 93.4055C45.5429 94.0104 44.404 95.3547 46.1204 95.3251C47.3943 95.3036 48.1283 94.653 48.1472 93.5319C48.1661 92.2494 47.5103 91.6795 46.1501 91.623ZM45.972 86.5847C44.9653 86.4126 45.0625 87.2353 45.2163 87.7676C45.416 88.4559 44.3581 89.7114 46.0017 89.7975C47.0758 89.8539 47.8315 89.4049 47.8908 88.222C47.9421 87.2165 47.2188 86.5981 45.972 86.5847ZM36.1104 90.9778H36.105C36.105 90.0421 36.1752 89.0985 36.0862 88.1709C35.9971 87.2353 35.6193 86.3669 34.4804 86.3776C33.417 86.3857 33.0473 87.1977 32.9474 88.0956C32.7369 90.0072 32.7369 91.9268 32.9258 93.8384C33.0176 94.7417 33.4224 95.5402 34.4696 95.5564C35.5896 95.5725 36.0133 94.7444 36.0943 93.7846C36.1725 92.8544 36.1104 91.9134 36.1104 90.9778ZM42.8143 59.6857C41.2112 59.4007 39.5946 59.6077 38.256 59.5352C36.5989 59.5352 35.209 59.5674 33.8218 59.5217C33.1039 59.4975 32.888 59.7691 32.9015 60.4493C32.9366 62.2345 32.9258 64.0197 32.9285 65.8022C32.9285 69.101 32.9285 69.1279 36.2535 69.093C38.4827 69.0688 40.7308 69.3457 42.9439 68.8994C45.3728 68.4101 46.8869 66.4985 46.8086 64.138C46.7276 61.6833 45.3243 60.132 42.8143 59.6857ZM25.1019 104.326C24.9211 103.326 24.6836 102.334 24.438 101.21C23.8766 102.283 23.8551 103.326 23.5825 104.302C23.4934 104.622 23.2586 105.076 23.7066 105.23C24.106 105.367 24.6188 105.372 25.0182 105.241C25.5202 105.079 25.1559 104.625 25.1019 104.326ZM20.8728 70.4722C19.016 70.0232 17.135 70.2517 15.5454 70.1818C13.8802 70.1818 12.493 70.1979 11.1085 70.1764C10.5849 70.1684 10.2853 70.2625 10.2907 70.8943C10.3177 73.6581 10.3069 76.4219 10.2988 79.1831C10.2988 79.589 10.3636 79.8794 10.8683 79.8606C14.2094 79.7342 17.5776 80.2047 20.8944 79.538C23.3315 79.046 24.5972 77.3495 24.5837 74.8438C24.5675 72.5424 23.291 71.0583 20.8728 70.4722ZM20.19 59.7691C18.5087 59.4088 16.803 59.5809 15.3537 59.5352C13.7641 59.5352 12.4228 59.554 11.0788 59.5244C10.5066 59.5136 10.288 59.7072 10.2934 60.2906C10.315 62.6996 10.3096 65.1112 10.2961 67.5201C10.2934 68.0175 10.45 68.2568 10.9843 68.2461C13.9773 68.1762 16.9838 68.4423 19.9633 68.0283C22.2331 67.711 23.6985 66.0818 23.7093 64.0008C23.7201 61.7989 22.4274 60.2476 20.19 59.7691ZM20.19 59.7691C18.5087 59.4088 16.803 59.5809 15.3537 59.5352C13.7641 59.5352 12.4228 59.554 11.0788 59.5244C10.5066 59.5136 10.288 59.7072 10.2934 60.2906C10.315 62.6996 10.3096 65.1112 10.2961 67.5201C10.2934 68.0175 10.45 68.2568 10.9843 68.2461C13.9773 68.1762 16.9838 68.4423 19.9633 68.0283C22.2331 67.711 23.6985 66.0818 23.7093 64.0008C23.7201 61.7989 22.4274 60.2476 20.19 59.7691ZM20.8728 70.4722C19.016 70.0232 17.135 70.2517 15.5454 70.1818C13.8802 70.1818 12.493 70.1979 11.1085 70.1764C10.5849 70.1684 10.2853 70.2625 10.2907 70.8943C10.3177 73.6581 10.3069 76.4219 10.2988 79.1831C10.2988 79.589 10.3636 79.8794 10.8683 79.8606C14.2094 79.7342 17.5776 80.2047 20.8944 79.538C23.3315 79.046 24.5972 77.3495 24.5837 74.8438C24.5675 72.5424 23.291 71.0583 20.8728 70.4722ZM25.1019 104.326C24.9211 103.326 24.6836 102.334 24.438 101.21C23.8766 102.283 23.8551 103.326 23.5825 104.302C23.4934 104.622 23.2586 105.076 23.7066 105.23C24.106 105.367 24.6188 105.372 25.0182 105.241C25.5202 105.079 25.1559 104.625 25.1019 104.326ZM36.1104 90.9778H36.105C36.105 90.0421 36.1752 89.0985 36.0862 88.1709C35.9971 87.2353 35.6193 86.3669 34.4804 86.3776C33.417 86.3857 33.0473 87.1977 32.9474 88.0956C32.7369 90.0072 32.7369 91.9268 32.9258 93.8384C33.0176 94.7417 33.4224 95.5402 34.4696 95.5564C35.5896 95.5725 36.0133 94.7444 36.0943 93.7846C36.1725 92.8544 36.1104 91.9134 36.1104 90.9778ZM41.2058 101.71C40.9602 100.839 40.299 100.541 39.457 100.616C38.4989 100.702 38.8848 101.474 38.8687 101.963C38.8228 103.383 38.8201 104.805 38.8713 106.225C38.8875 106.695 38.4719 107.469 39.4867 107.52C40.3152 107.563 41.0304 107.397 41.2166 106.461C41.3651 105.724 41.4217 104.972 41.5162 104.227C41.4973 103.369 41.4379 102.528 41.2058 101.71ZM42.8143 59.6857C41.2112 59.4007 39.5946 59.6077 38.256 59.5352C36.5989 59.5352 35.209 59.5674 33.8218 59.5217C33.1039 59.4975 32.888 59.7691 32.9015 60.4493C32.9366 62.2345 32.9258 64.0197 32.9285 65.8022C32.9285 69.101 32.9285 69.1279 36.2535 69.093C38.4827 69.0688 40.7308 69.3457 42.9439 68.8994C45.3728 68.4101 46.8869 66.4985 46.8086 64.138C46.7276 61.6833 45.3243 60.132 42.8143 59.6857ZM45.972 86.5847C44.9653 86.4126 45.0625 87.2353 45.2163 87.7676C45.416 88.4559 44.3581 89.7114 46.0017 89.7975C47.0758 89.8539 47.8315 89.4049 47.8908 88.222C47.9421 87.2165 47.2188 86.5981 45.972 86.5847ZM46.1501 91.623C44.5362 91.5558 45.4484 92.7737 45.1191 93.4055C45.5429 94.0104 44.404 95.3547 46.1204 95.3251C47.3943 95.3036 48.1283 94.653 48.1472 93.5319C48.1661 92.2494 47.5103 91.6795 46.1501 91.623ZM59.7414 91.6606C59.4607 90.2787 59.145 88.9049 58.84 87.5283C58.7536 87.5256 58.6673 87.5203 58.5809 87.5176C58.2759 88.8834 57.9548 90.2491 57.6741 91.6203C57.6201 91.8838 57.4042 92.3301 57.8279 92.4107C58.3866 92.5156 58.9857 92.5102 59.5525 92.4296C60.0221 92.3624 59.7927 91.9187 59.7414 91.6606ZM59.7414 91.6606C59.4607 90.2787 59.145 88.9049 58.84 87.5283C58.7536 87.5256 58.6673 87.5203 58.5809 87.5176C58.2759 88.8834 57.9548 90.2491 57.6741 91.6203C57.6201 91.8838 57.4042 92.3301 57.8279 92.4107C58.3866 92.5156 58.9857 92.5102 59.5525 92.4296C60.0221 92.3624 59.7927 91.9187 59.7414 91.6606ZM46.1501 91.623C44.5362 91.5558 45.4484 92.7737 45.1191 93.4055C45.5429 94.0104 44.404 95.3547 46.1204 95.3251C47.3943 95.3036 48.1283 94.653 48.1472 93.5319C48.1661 92.2494 47.5103 91.6795 46.1501 91.623ZM45.972 86.5847C44.9653 86.4126 45.0625 87.2353 45.2163 87.7676C45.416 88.4559 44.3581 89.7114 46.0017 89.7975C47.0758 89.8539 47.8315 89.4049 47.8908 88.222C47.9421 87.2165 47.2188 86.5981 45.972 86.5847ZM41.2058 101.71C40.9602 100.839 40.299 100.541 39.457 100.616C38.4989 100.702 38.8848 101.474 38.8687 101.963C38.8228 103.383 38.8201 104.805 38.8713 106.225C38.8875 106.695 38.4719 107.469 39.4867 107.52C40.3152 107.563 41.0304 107.397 41.2166 106.461C41.3651 105.724 41.4217 104.972 41.5162 104.227C41.4973 103.369 41.4379 102.528 41.2058 101.71ZM36.1104 90.9778H36.105C36.105 90.0421 36.1752 89.0985 36.0862 88.1709C35.9971 87.2353 35.6193 86.3669 34.4804 86.3776C33.417 86.3857 33.0473 87.1977 32.9474 88.0956C32.7369 90.0072 32.7369 91.9268 32.9258 93.8384C33.0176 94.7417 33.4224 95.5402 34.4696 95.5564C35.5896 95.5725 36.0133 94.7444 36.0943 93.7846C36.1725 92.8544 36.1104 91.9134 36.1104 90.9778ZM42.8143 59.6857C41.2112 59.4007 39.5946 59.6077 38.256 59.5352C36.5989 59.5352 35.209 59.5674 33.8218 59.5217C33.1039 59.4975 32.888 59.7691 32.9015 60.4493C32.9366 62.2345 32.9258 64.0197 32.9285 65.8022C32.9285 69.101 32.9285 69.1279 36.2535 69.093C38.4827 69.0688 40.7308 69.3457 42.9439 68.8994C45.3728 68.4101 46.8869 66.4985 46.8086 64.138C46.7276 61.6833 45.3243 60.132 42.8143 59.6857ZM25.1019 104.326C24.9211 103.326 24.6836 102.334 24.438 101.21C23.8766 102.283 23.8551 103.326 23.5825 104.302C23.4934 104.622 23.2586 105.076 23.7066 105.23C24.106 105.367 24.6188 105.372 25.0182 105.241C25.5202 105.079 25.1559 104.625 25.1019 104.326ZM20.8728 70.4722C19.016 70.0232 17.135 70.2517 15.5454 70.1818C13.8802 70.1818 12.493 70.1979 11.1085 70.1764C10.5849 70.1684 10.2853 70.2625 10.2907 70.8943C10.3177 73.6581 10.3069 76.4219 10.2988 79.1831C10.2988 79.589 10.3636 79.8794 10.8683 79.8606C14.2094 79.7342 17.5776 80.2047 20.8944 79.538C23.3315 79.046 24.5972 77.3495 24.5837 74.8438C24.5675 72.5424 23.291 71.0583 20.8728 70.4722ZM20.19 59.7691C18.5087 59.4088 16.803 59.5809 15.3537 59.5352C13.7641 59.5352 12.4228 59.554 11.0788 59.5244C10.5066 59.5136 10.288 59.7072 10.2934 60.2906C10.315 62.6996 10.3096 65.1112 10.2961 67.5201C10.2934 68.0175 10.45 68.2568 10.9843 68.2461C13.9773 68.1762 16.9838 68.4423 19.9633 68.0283C22.2331 67.711 23.6985 66.0818 23.7093 64.0008C23.7201 61.7989 22.4274 60.2476 20.19 59.7691ZM20.19 59.7691C18.5087 59.4088 16.803 59.5809 15.3537 59.5352C13.7641 59.5352 12.4228 59.554 11.0788 59.5244C10.5066 59.5136 10.288 59.7072 10.2934 60.2906C10.315 62.6996 10.3096 65.1112 10.2961 67.5201C10.2934 68.0175 10.45 68.2568 10.9843 68.2461C13.9773 68.1762 16.9838 68.4423 19.9633 68.0283C22.2331 67.711 23.6985 66.0818 23.7093 64.0008C23.7201 61.7989 22.4274 60.2476 20.19 59.7691ZM20.8728 70.4722C19.016 70.0232 17.135 70.2517 15.5454 70.1818C13.8802 70.1818 12.493 70.1979 11.1085 70.1764C10.5849 70.1684 10.2853 70.2625 10.2907 70.8943C10.3177 73.6581 10.3069 76.4219 10.2988 79.1831C10.2988 79.589 10.3636 79.8794 10.8683 79.8606C14.2094 79.7342 17.5776 80.2047 20.8944 79.538C23.3315 79.046 24.5972 77.3495 24.5837 74.8438C24.5675 72.5424 23.291 71.0583 20.8728 70.4722ZM25.1019 104.326C24.9211 103.326 24.6836 102.334 24.438 101.21C23.8766 102.283 23.8551 103.326 23.5825 104.302C23.4934 104.622 23.2586 105.076 23.7066 105.23C24.106 105.367 24.6188 105.372 25.0182 105.241C25.5202 105.079 25.1559 104.625 25.1019 104.326ZM36.1104 90.9778H36.105C36.105 90.0421 36.1752 89.0985 36.0862 88.1709C35.9971 87.2353 35.6193 86.3669 34.4804 86.3776C33.417 86.3857 33.0473 87.1977 32.9474 88.0956C32.7369 90.0072 32.7369 91.9268 32.9258 93.8384C33.0176 94.7417 33.4224 95.5402 34.4696 95.5564C35.5896 95.5725 36.0133 94.7444 36.0943 93.7846C36.1725 92.8544 36.1104 91.9134 36.1104 90.9778ZM41.2058 101.71C40.9602 100.839 40.299 100.541 39.457 100.616C38.4989 100.702 38.8848 101.474 38.8687 101.963C38.8228 103.383 38.8201 104.805 38.8713 106.225C38.8875 106.695 38.4719 107.469 39.4867 107.52C40.3152 107.563 41.0304 107.397 41.2166 106.461C41.3651 105.724 41.4217 104.972 41.5162 104.227C41.4973 103.369 41.4379 102.528 41.2058 101.71ZM42.8143 59.6857C41.2112 59.4007 39.5946 59.6077 38.256 59.5352C36.5989 59.5352 35.209 59.5674 33.8218 59.5217C33.1039 59.4975 32.888 59.7691 32.9015 60.4493C32.9366 62.2345 32.9258 64.0197 32.9285 65.8022C32.9285 69.101 32.9285 69.1279 36.2535 69.093C38.4827 69.0688 40.7308 69.3457 42.9439 68.8994C45.3728 68.4101 46.8869 66.4985 46.8086 64.138C46.7276 61.6833 45.3243 60.132 42.8143 59.6857ZM45.972 86.5847C44.9653 86.4126 45.0625 87.2353 45.2163 87.7676C45.416 88.4559 44.3581 89.7114 46.0017 89.7975C47.0758 89.8539 47.8315 89.4049 47.8908 88.222C47.9421 87.2165 47.2188 86.5981 45.972 86.5847ZM47.4833 101.393C47.4024 101.407 47.3187 101.423 47.235 101.436C46.9732 102.678 46.7115 103.918 46.3768 105.517C47.1379 105.012 48.1688 105.872 48.1688 104.77C48.1688 103.668 47.7316 102.52 47.4833 101.393ZM46.1501 91.623C44.5362 91.5558 45.4484 92.7737 45.1191 93.4055C45.5429 94.0104 44.404 95.3547 46.1204 95.3251C47.3943 95.3036 48.1283 94.653 48.1472 93.5319C48.1661 92.2494 47.5103 91.6795 46.1501 91.623ZM54.6757 100.597C53.4477 100.519 54.0253 101.455 53.8499 102.006C54.0766 102.514 53.3587 103.523 54.6946 103.471C55.6635 103.434 56.214 102.996 56.2221 102.03C56.2302 101.036 55.5933 100.659 54.6757 100.597ZM59.7414 91.6606C59.4607 90.2787 59.145 88.9049 58.84 87.5283C58.7536 87.5256 58.6673 87.5203 58.5809 87.5176C58.2759 88.8834 57.9548 90.2491 57.6741 91.6203C57.6201 91.8838 57.4042 92.3301 57.8279 92.4107C58.3866 92.5156 58.9857 92.5102 59.5525 92.4296C60.0221 92.3624 59.7927 91.9187 59.7414 91.6606ZM59.7414 91.6606C59.4607 90.2787 59.145 88.9049 58.84 87.5283C58.7536 87.5256 58.6673 87.5203 58.5809 87.5176C58.2759 88.8834 57.9548 90.2491 57.6741 91.6203C57.6201 91.8838 57.4042 92.3301 57.8279 92.4107C58.3866 92.5156 58.9857 92.5102 59.5525 92.4296C60.0221 92.3624 59.7927 91.9187 59.7414 91.6606ZM54.6757 100.597C53.4477 100.519 54.0253 101.455 53.8499 102.006C54.0766 102.514 53.3587 103.523 54.6946 103.471C55.6635 103.434 56.214 102.996 56.2221 102.03C56.2302 101.036 55.5933 100.659 54.6757 100.597ZM47.4833 101.393C47.4024 101.407 47.3187 101.423 47.235 101.436C46.9732 102.678 46.7115 103.918 46.3768 105.517C47.1379 105.012 48.1688 105.872 48.1688 104.77C48.1688 103.668 47.7316 102.52 47.4833 101.393ZM46.1501 91.623C44.5362 91.5558 45.4484 92.7737 45.1191 93.4055C45.5429 94.0104 44.404 95.3547 46.1204 95.3251C47.3943 95.3036 48.1283 94.653 48.1472 93.5319C48.1661 92.2494 47.5103 91.6795 46.1501 91.623ZM45.972 86.5847C44.9653 86.4126 45.0625 87.2353 45.2163 87.7676C45.416 88.4559 44.3581 89.7114 46.0017 89.7975C47.0758 89.8539 47.8315 89.4049 47.8908 88.222C47.9421 87.2165 47.2188 86.5981 45.972 86.5847ZM41.2058 101.71C40.9602 100.839 40.299 100.541 39.457 100.616C38.4989 100.702 38.8848 101.474 38.8687 101.963C38.8228 103.383 38.8201 104.805 38.8713 106.225C38.8875 106.695 38.4719 107.469 39.4867 107.52C40.3152 107.563 41.0304 107.397 41.2166 106.461C41.3651 105.724 41.4217 104.972 41.5162 104.227C41.4973 103.369 41.4379 102.528 41.2058 101.71ZM36.1104 90.9778H36.105C36.105 90.0421 36.1752 89.0985 36.0862 88.1709C35.9971 87.2353 35.6193 86.3669 34.4804 86.3776C33.417 86.3857 33.0473 87.1977 32.9474 88.0956C32.7369 90.0072 32.7369 91.9268 32.9258 93.8384C33.0176 94.7417 33.4224 95.5402 34.4696 95.5564C35.5896 95.5725 36.0133 94.7444 36.0943 93.7846C36.1725 92.8544 36.1104 91.9134 36.1104 90.9778ZM42.8143 59.6857C41.2112 59.4007 39.5946 59.6077 38.256 59.5352C36.5989 59.5352 35.209 59.5674 33.8218 59.5217C33.1039 59.4975 32.888 59.7691 32.9015 60.4493C32.9366 62.2345 32.9258 64.0197 32.9285 65.8022C32.9285 69.101 32.9285 69.1279 36.2535 69.093C38.4827 69.0688 40.7308 69.3457 42.9439 68.8994C45.3728 68.4101 46.8869 66.4985 46.8086 64.138C46.7276 61.6833 45.3243 60.132 42.8143 59.6857ZM25.1019 104.326C24.9211 103.326 24.6836 102.334 24.438 101.21C23.8766 102.283 23.8551 103.326 23.5825 104.302C23.4934 104.622 23.2586 105.076 23.7066 105.23C24.106 105.367 24.6188 105.372 25.0182 105.241C25.5202 105.079 25.1559 104.625 25.1019 104.326ZM20.8728 70.4722C19.016 70.0232 17.135 70.2517 15.5454 70.1818C13.8802 70.1818 12.493 70.1979 11.1085 70.1764C10.5849 70.1684 10.2853 70.2625 10.2907 70.8943C10.3177 73.6581 10.3069 76.4219 10.2988 79.1831C10.2988 79.589 10.3636 79.8794 10.8683 79.8606C14.2094 79.7342 17.5776 80.2047 20.8944 79.538C23.3315 79.046 24.5972 77.3495 24.5837 74.8438C24.5675 72.5424 23.291 71.0583 20.8728 70.4722ZM20.19 59.7691C18.5087 59.4088 16.803 59.5809 15.3537 59.5352C13.7641 59.5352 12.4228 59.554 11.0788 59.5244C10.5066 59.5136 10.288 59.7072 10.2934 60.2906C10.315 62.6996 10.3096 65.1112 10.2961 67.5201C10.2934 68.0175 10.45 68.2568 10.9843 68.2461C13.9773 68.1762 16.9838 68.4423 19.9633 68.0283C22.2331 67.711 23.6985 66.0818 23.7093 64.0008C23.7201 61.7989 22.4274 60.2476 20.19 59.7691ZM20.19 59.7691C18.5087 59.4088 16.803 59.5809 15.3537 59.5352C13.7641 59.5352 12.4228 59.554 11.0788 59.5244C10.5066 59.5136 10.288 59.7072 10.2934 60.2906C10.315 62.6996 10.3096 65.1112 10.2961 67.5201C10.2934 68.0175 10.45 68.2568 10.9843 68.2461C13.9773 68.1762 16.9838 68.4423 19.9633 68.0283C22.2331 67.711 23.6985 66.0818 23.7093 64.0008C23.7201 61.7989 22.4274 60.2476 20.19 59.7691ZM20.8728 70.4722C19.016 70.0232 17.135 70.2517 15.5454 70.1818C13.8802 70.1818 12.493 70.1979 11.1085 70.1764C10.5849 70.1684 10.2853 70.2625 10.2907 70.8943C10.3177 73.6581 10.3069 76.4219 10.2988 79.1831C10.2988 79.589 10.3636 79.8794 10.8683 79.8606C14.2094 79.7342 17.5776 80.2047 20.8944 79.538C23.3315 79.046 24.5972 77.3495 24.5837 74.8438C24.5675 72.5424 23.291 71.0583 20.8728 70.4722ZM25.1019 104.326C24.9211 103.326 24.6836 102.334 24.438 101.21C23.8766 102.283 23.8551 103.326 23.5825 104.302C23.4934 104.622 23.2586 105.076 23.7066 105.23C24.106 105.367 24.6188 105.372 25.0182 105.241C25.5202 105.079 25.1559 104.625 25.1019 104.326ZM36.1104 90.9778H36.105C36.105 90.0421 36.1752 89.0985 36.0862 88.1709C35.9971 87.2353 35.6193 86.3669 34.4804 86.3776C33.417 86.3857 33.0473 87.1977 32.9474 88.0956C32.7369 90.0072 32.7369 91.9268 32.9258 93.8384C33.0176 94.7417 33.4224 95.5402 34.4696 95.5564C35.5896 95.5725 36.0133 94.7444 36.0943 93.7846C36.1725 92.8544 36.1104 91.9134 36.1104 90.9778ZM41.2058 101.71C40.9602 100.839 40.299 100.541 39.457 100.616C38.4989 100.702 38.8848 101.474 38.8687 101.963C38.8228 103.383 38.8201 104.805 38.8713 106.225C38.8875 106.695 38.4719 107.469 39.4867 107.52C40.3152 107.563 41.0304 107.397 41.2166 106.461C41.3651 105.724 41.4217 104.972 41.5162 104.227C41.4973 103.369 41.4379 102.528 41.2058 101.71ZM42.8143 59.6857C41.2112 59.4007 39.5946 59.6077 38.256 59.5352C36.5989 59.5352 35.209 59.5674 33.8218 59.5217C33.1039 59.4975 32.888 59.7691 32.9015 60.4493C32.9366 62.2345 32.9258 64.0197 32.9285 65.8022C32.9285 69.101 32.9285 69.1279 36.2535 69.093C38.4827 69.0688 40.7308 69.3457 42.9439 68.8994C45.3728 68.4101 46.8869 66.4985 46.8086 64.138C46.7276 61.6833 45.3243 60.132 42.8143 59.6857ZM45.972 86.5847C44.9653 86.4126 45.0625 87.2353 45.2163 87.7676C45.416 88.4559 44.3581 89.7114 46.0017 89.7975C47.0758 89.8539 47.8315 89.4049 47.8908 88.222C47.9421 87.2165 47.2188 86.5981 45.972 86.5847ZM47.4833 101.393C47.4024 101.407 47.3187 101.423 47.235 101.436C46.9732 102.678 46.7115 103.918 46.3768 105.517C47.1379 105.012 48.1688 105.872 48.1688 104.77C48.1688 103.668 47.7316 102.52 47.4833 101.393ZM46.1501 91.623C44.5362 91.5558 45.4484 92.7737 45.1191 93.4055C45.5429 94.0104 44.404 95.3547 46.1204 95.3251C47.3943 95.3036 48.1283 94.653 48.1472 93.5319C48.1661 92.2494 47.5103 91.6795 46.1501 91.623ZM54.6757 100.597C53.4477 100.519 54.0253 101.455 53.8499 102.006C54.0766 102.514 53.3587 103.523 54.6946 103.471C55.6635 103.434 56.214 102.996 56.2221 102.03C56.2302 101.036 55.5933 100.659 54.6757 100.597ZM59.7414 91.6606C59.4607 90.2787 59.145 88.9049 58.84 87.5283C58.7536 87.5256 58.6673 87.5203 58.5809 87.5176C58.2759 88.8834 57.9548 90.2491 57.6741 91.6203C57.6201 91.8838 57.4042 92.3301 57.8279 92.4107C58.3866 92.5156 58.9857 92.5102 59.5525 92.4296C60.0221 92.3624 59.7927 91.9187 59.7414 91.6606ZM63.8868 101.455C63.625 100.616 62.8235 100.519 62.1002 100.638C61.3634 100.761 61.7277 101.431 61.6954 101.856C61.6387 102.611 61.6792 103.372 61.6792 104.133C61.6792 104.848 61.6333 105.566 61.6981 106.276C61.7358 106.695 61.3418 107.351 62.0975 107.491C62.8316 107.628 63.625 107.55 63.8949 106.714C64.4509 104.974 64.4239 103.192 63.8868 101.455ZM63.8868 101.455C63.625 100.616 62.8235 100.519 62.1002 100.638C61.3634 100.761 61.7277 101.431 61.6954 101.856C61.6387 102.611 61.6792 103.372 61.6792 104.133C61.6792 104.848 61.6333 105.566 61.6981 106.276C61.7358 106.695 61.3418 107.351 62.0975 107.491C62.8316 107.628 63.625 107.55 63.8949 106.714C64.4509 104.974 64.4239 103.192 63.8868 101.455ZM59.7414 91.6606C59.4607 90.2787 59.145 88.9049 58.84 87.5283C58.7536 87.5256 58.6673 87.5203 58.5809 87.5176C58.2759 88.8834 57.9548 90.2491 57.6741 91.6203C57.6201 91.8838 57.4042 92.3301 57.8279 92.4107C58.3866 92.5156 58.9857 92.5102 59.5525 92.4296C60.0221 92.3624 59.7927 91.9187 59.7414 91.6606ZM54.6757 100.597C53.4477 100.519 54.0253 101.455 53.8499 102.006C54.0766 102.514 53.3587 103.523 54.6946 103.471C55.6635 103.434 56.214 102.996 56.2221 102.03C56.2302 101.036 55.5933 100.659 54.6757 100.597ZM47.4833 101.393C47.4024 101.407 47.3187 101.423 47.235 101.436C46.9732 102.678 46.7115 103.918 46.3768 105.517C47.1379 105.012 48.1688 105.872 48.1688 104.77C48.1688 103.668 47.7316 102.52 47.4833 101.393ZM46.1501 91.623C44.5362 91.5558 45.4484 92.7737 45.1191 93.4055C45.5429 94.0104 44.404 95.3547 46.1204 95.3251C47.3943 95.3036 48.1283 94.653 48.1472 93.5319C48.1661 92.2494 47.5103 91.6795 46.1501 91.623ZM46.0017 89.7975C47.0758 89.8539 47.8315 89.4049 47.8908 88.222C47.9421 87.2165 47.2188 86.5981 45.972 86.5847C44.9653 86.4126 45.0625 87.2353 45.2163 87.7676C45.416 88.4559 44.3581 89.7114 46.0017 89.7975ZM41.2058 101.71C40.9602 100.839 40.299 100.541 39.457 100.616C38.4989 100.702 38.8848 101.474 38.8687 101.963C38.8228 103.383 38.8201 104.805 38.8713 106.225C38.8875 106.695 38.4719 107.469 39.4867 107.52C40.3152 107.563 41.0304 107.397 41.2166 106.461C41.3651 105.724 41.4217 104.972 41.5162 104.227C41.4973 103.369 41.4379 102.528 41.2058 101.71ZM36.1104 90.9778H36.105C36.105 90.0421 36.1752 89.0985 36.0862 88.1709C35.9971 87.2353 35.6193 86.3669 34.4804 86.3776C33.417 86.3857 33.0473 87.1977 32.9474 88.0956C32.7369 90.0072 32.7369 91.9268 32.9258 93.8384C33.0176 94.7417 33.4224 95.5402 34.4696 95.5564C35.5896 95.5725 36.0133 94.7444 36.0943 93.7846C36.1725 92.8544 36.1104 91.9134 36.1104 90.9778ZM42.8143 59.6857C41.2112 59.4007 39.5946 59.6077 38.256 59.5352C36.5989 59.5352 35.209 59.5674 33.8218 59.5217C33.1039 59.4975 32.888 59.7691 32.9015 60.4493C32.9366 62.2345 32.9258 64.0197 32.9285 65.8022C32.9285 69.101 32.9285 69.1279 36.2535 69.093C38.4827 69.0688 40.7308 69.3457 42.9439 68.8994C45.3728 68.4101 46.8869 66.4985 46.8086 64.138C46.7276 61.6833 45.3243 60.132 42.8143 59.6857ZM25.1019 104.326C24.9211 103.326 24.6836 102.334 24.438 101.21C23.8766 102.283 23.8551 103.326 23.5825 104.302C23.4934 104.622 23.2586 105.076 23.7066 105.23C24.106 105.367 24.6188 105.372 25.0182 105.241C25.5202 105.079 25.1559 104.625 25.1019 104.326ZM20.8728 70.4722C19.016 70.0232 17.135 70.2517 15.5454 70.1818C13.8802 70.1818 12.493 70.1979 11.1085 70.1764C10.5849 70.1684 10.2853 70.2625 10.2907 70.8943C10.3177 73.6581 10.3069 76.4219 10.2988 79.1831C10.2988 79.589 10.3636 79.8794 10.8683 79.8606C14.2094 79.7342 17.5776 80.2047 20.8944 79.538C23.3315 79.046 24.5972 77.3495 24.5837 74.8438C24.5675 72.5424 23.291 71.0583 20.8728 70.4722ZM10.2961 67.5201C10.2934 68.0175 10.45 68.2568 10.9843 68.2461C13.9773 68.1762 16.9838 68.4423 19.9633 68.0283C22.2331 67.711 23.6985 66.0818 23.7093 64.0008C23.7201 61.7989 22.4274 60.2476 20.19 59.7691C18.5087 59.4088 16.803 59.5809 15.3537 59.5352C13.7641 59.5352 12.4228 59.554 11.0788 59.5244C10.5066 59.5136 10.288 59.7072 10.2934 60.2906C10.315 62.6996 10.3096 65.1112 10.2961 67.5201ZM80.9569 14.9859C80.938 6.33145 74.3907 0.00798533 65.7139 0.00529678C48.9542 -0.00545742 32.1917 0.00260823 15.432 -8.03176e-05C14.1285 -8.03176e-05 12.8384 0.0859533 11.57 0.389759C4.48285 2.09161 0.0135838 7.78596 0.00818613 15.1768C-0.00530802 29.2997 8.96423e-05 43.42 8.96423e-05 57.5429C8.96423e-05 71.6659 -0.00260919 85.6974 0.00278847 99.7747C0.00278847 108.601 6.38013 114.989 15.2161 114.995C32.0217 115.003 48.8273 115.003 65.633 114.995C74.423 114.989 80.9353 108.728 80.9542 99.9844C81.0136 71.6525 81.0136 43.3178 80.9542 14.9859H80.9569ZM72.739 62.7023C72.8523 62.9899 72.9819 63.2803 73.0304 63.5814C73.0952 64.0062 73.6242 64.6891 72.9306 64.7966C72.2775 64.8961 71.2627 65.407 70.8633 64.2616C69.6974 60.9251 67.2981 59.1883 63.8139 59.0647C60.2218 58.9383 57.5527 60.5514 55.8227 63.7078C53.5881 67.789 54.1548 74.2361 57.0669 77.4705C59.3798 80.0407 62.3026 80.85 65.5844 80.0273C68.715 79.2449 70.3883 76.9677 71.1602 73.935C71.3005 73.3758 71.0954 72.5746 72.1911 72.5424C73.3408 72.5101 73.7942 72.7064 73.4865 73.9807C72.6148 77.5861 70.8201 80.487 67.1497 81.6646C63.204 82.9309 59.4256 82.4282 56.2113 79.6025C53.2156 76.965 52.2252 73.4726 52.1901 69.2408C52.2764 65.622 53.4099 62.0651 56.5946 59.3954C61.2096 55.5292 70.2345 56.4702 72.739 62.7023ZM8.56078 57.6075C12.5389 57.7338 16.5331 57.309 20.5004 57.8521C23.6041 58.2769 25.4528 59.8551 25.8765 62.2775C26.392 65.2295 25.253 67.3024 22.2762 68.8483C22.2034 68.8859 22.1575 68.9693 22.0684 69.0634C24.9589 69.7086 26.6187 71.4696 26.8696 74.4136C27.0856 76.9596 26.2759 79.1051 24.0278 80.487C22.6406 81.3393 21.0591 81.7238 19.4263 81.7399C15.9394 81.7775 12.4498 81.7399 8.96291 81.7883C8.15326 81.799 7.88877 81.5786 7.89417 80.7398C7.92386 73.3677 7.91036 65.9957 7.91576 58.6237C7.91576 58.1694 7.73494 57.5806 8.56078 57.6075ZM20.0119 90.9535C20.0119 89.1684 20.0578 87.3805 19.9957 85.598C19.9606 84.5656 20.6111 84.7027 21.2264 84.7269C21.8417 84.7511 22.6217 84.4553 22.6055 85.598C22.5677 88.4102 22.6298 91.2224 22.5758 94.0319C22.5569 94.9165 22.8241 95.231 23.7039 95.1504C24.4137 95.0832 25.1343 95.1531 25.8495 95.1316C26.5161 95.11 27.0316 95.0724 27.0235 96.0564C27.0181 96.9867 26.6753 97.1668 25.8495 97.1372C24.3273 97.0834 22.8025 97.0673 21.2858 97.1426C20.3169 97.191 19.9256 96.9598 19.9876 95.9059C20.0794 94.2578 20.0119 92.6043 20.0119 90.9535ZM14.2877 106.886C13.9719 108.426 12.8924 109.117 10.8197 109.112C9.13023 109.107 8.09928 108.434 7.93195 107.136C7.88067 106.738 7.50824 106.031 8.26661 105.958C8.84416 105.902 9.76446 105.448 9.91559 106.649C9.98846 107.249 10.4095 107.558 11.0059 107.658C11.4539 107.733 11.8507 107.58 12.0639 107.235C12.5739 106.413 12.4066 105.684 11.5295 105.222C10.7819 104.826 9.96147 104.566 9.23819 104.138C8.13976 103.488 7.75383 102.192 8.15056 100.847C8.49061 99.686 9.62412 98.9385 11.0464 98.9385C12.6144 98.9359 13.6319 99.5677 13.9611 100.788C14.0583 101.143 14.2931 101.71 13.7884 101.791C13.2702 101.877 12.493 102.227 12.1772 101.452C11.9073 100.788 11.5727 100.369 10.8143 100.482C10.3042 100.557 10.0505 100.861 10.002 101.385C9.92909 102.192 10.3798 102.622 11.0329 102.926C11.3568 103.076 11.6941 103.197 12.0207 103.342C13.9854 104.205 14.6305 105.214 14.2877 106.886ZM14.2526 96.9705C13.9935 96.0242 13.7048 96.5672 13.3458 96.8092C11.4728 98.0674 8.9737 97.3147 8.33678 95.1611C7.53522 92.4591 7.56221 89.6819 8.34757 86.9772C8.87654 85.1544 10.4068 84.3478 12.4579 84.5521C14.5117 84.7591 15.4995 85.6114 15.7289 87.4369C15.7694 87.7596 16.1634 88.3752 15.5022 88.3887C14.8221 88.4021 13.9854 88.8807 13.4376 88.0553C13.3188 87.8805 13.335 87.6198 13.2486 87.4154C12.9869 86.8024 12.5766 86.3266 11.848 86.3696C11.1706 86.4099 10.7981 86.9288 10.6605 87.4988C10.1315 89.698 10.1342 91.9241 10.6092 94.1341C10.7495 94.7874 11.0761 95.4192 11.9019 95.4838C12.5011 95.5295 12.9302 95.2337 13.2325 94.7444C13.6562 94.0508 13.6292 93.2872 13.478 92.5398C13.4133 92.2279 13.03 92.2629 12.7871 92.2924C11.9073 92.3973 11.9127 91.8757 11.8992 91.2332C11.883 90.475 12.3337 90.5153 12.8519 90.4938C14.9264 90.4114 15.9628 91.5459 15.961 93.8975C15.961 94.6584 15.9826 95.4165 15.9502 96.1747C15.9367 96.492 16.1391 96.9705 15.6371 97.07C15.1648 97.1641 14.3444 97.3093 14.2526 96.9705ZM18.9351 102.45C19.0134 104.23 18.9432 106.015 18.9621 107.797C18.9702 108.515 18.9999 109.05 17.95 109.056C16.8138 109.064 17.0135 108.394 17.0108 107.746C17.0054 106.765 17.0108 105.784 17.0108 104.802C17.0108 104.044 16.9784 103.286 17.0162 102.53C17.0756 101.436 17.1161 100.42 15.4914 100.772C14.9246 100.896 14.8383 100.503 14.8545 100.041C14.8706 99.5919 14.7843 99.1456 15.4968 99.1563C17.1512 99.1886 18.8055 99.1832 20.4572 99.159C21.1724 99.1509 21.0564 99.6107 21.0861 100.054C21.1184 100.554 20.9754 100.877 20.4329 100.775C18.9702 100.498 18.8865 101.315 18.9351 102.45ZM27.6658 108.978C27.0316 109.069 26.2003 109.33 25.9655 108.254C25.8684 107.811 26.0654 107.117 25.4501 106.996C24.7619 106.864 24.017 106.881 23.318 106.98C22.7404 107.063 22.8646 107.714 22.8241 108.096C22.6919 109.298 21.8147 109.088 21.1238 108.986C20.1361 108.838 20.7946 108.106 20.8863 107.733C21.5017 105.273 22.2492 102.845 22.843 100.377C23.0724 99.4198 23.434 98.9332 24.4542 99.1886C25.4582 98.9224 25.728 99.4628 25.9413 100.339C26.5512 102.845 27.2826 105.324 27.933 107.822C28.0355 108.214 28.4782 108.857 27.6658 108.978ZM34.7044 109.004C34.0135 108.97 33.2011 109.338 32.8611 108.219C32.3132 106.399 31.6142 104.628 30.7101 102.853C30.7101 104.498 30.7101 106.144 30.7101 107.789C30.7101 108.41 30.8477 109.034 29.8303 109.042C28.8803 109.047 28.8695 108.547 28.8749 107.856C28.8965 105.313 28.8749 102.77 28.8938 100.229C28.8965 99.8016 28.6482 99.0972 29.4821 99.1886C30.1406 99.2612 31.0178 98.6993 31.3956 99.8069C32.0217 101.641 32.7072 103.455 33.3684 105.275C33.4467 105.262 33.525 105.249 33.6032 105.232C33.6032 103.496 33.6356 101.753 33.587 100.017C33.5654 99.2504 33.9217 99.1509 34.5586 99.1509C35.1955 99.1509 35.4087 99.3284 35.398 99.9898C35.3629 102.616 35.398 105.243 35.3872 107.87C35.3845 108.362 35.5842 109.053 34.7017 109.004H34.7044ZM30.6372 58.82C30.6345 57.9167 30.8531 57.5806 31.822 57.6182C35.7542 57.7795 39.7134 57.2929 43.624 57.8656C48.544 58.5861 50.6868 63.4712 48.069 67.6788C47.2647 68.9693 46.0313 69.6011 44.4579 70.1334C47.4644 70.733 48.4144 72.6983 48.6114 75.317C48.7734 77.4382 48.6681 79.6106 49.6208 81.7023C46.9247 81.9147 46.7492 81.7937 46.6332 79.2933C46.5576 77.6856 46.4928 76.0778 46.1177 74.5131C45.5483 72.1203 44.3257 71.1255 41.859 71.0744C39.2222 71.0206 36.5827 71.0852 33.9487 71.0233C33.0985 71.0045 32.8907 71.2922 32.9015 72.0907C32.9393 74.9432 32.8826 77.7985 32.9285 80.651C32.9447 81.4952 32.7504 81.7964 31.8409 81.8071C30.8963 81.8179 30.6291 81.5329 30.6345 80.6134C30.6669 73.3489 30.6669 66.0845 30.6372 58.82ZM34.3292 84.5467C36.6259 84.4688 37.9942 85.4743 38.426 87.7273C38.8579 89.9803 38.9091 92.2575 38.3613 94.5051C37.8512 96.5968 36.5989 97.4518 34.313 97.3738C32.1243 97.2985 30.8396 96.2473 30.5077 94.1691C30.3349 93.0721 30.2864 91.9537 30.1892 90.9374C30.2891 89.9023 30.3511 88.9667 30.4726 88.0392C30.7722 85.7888 32.0703 84.6247 34.3292 84.5467ZM43.2435 106.16C42.8629 108.125 42.1963 108.722 40.2235 108.956C38.0194 109.218 36.9174 108.262 36.9174 106.087C36.9174 105.372 36.9174 104.66 36.9174 103.945H36.9147C36.9147 102.606 36.9309 101.264 36.9039 99.9252C36.8931 99.358 37.0739 99.116 37.6704 99.1509C38.3856 99.1913 39.1034 99.1536 39.8213 99.1617C42.1396 99.1859 43.0006 99.8768 43.3082 102.159C43.489 103.482 43.4998 104.835 43.2435 106.16ZM42.62 96.2527C42.6308 92.693 42.6335 89.1307 42.6227 85.5711C42.62 84.9688 42.8035 84.6785 43.4702 84.7134C44.852 84.7806 46.2365 84.6919 47.6237 84.8479C48.9839 84.9984 49.915 85.5926 50.2442 86.9288C50.5654 88.2327 50.3252 89.4103 49.2079 90.2949C49.0783 90.397 48.9407 90.4857 48.7761 90.604C50.4898 91.5639 51.0269 92.7737 50.6221 94.6234C50.2982 96.0941 49.1593 96.9974 47.3754 97.0861C46.0826 97.1507 44.7818 97.0915 43.4836 97.1291C42.8332 97.148 42.6173 96.8657 42.62 96.2527ZM50.7894 108.964C50.1444 109.077 49.1404 109.413 49.0297 108.19C48.9461 107.233 48.5359 106.784 47.7019 106.889C47.4806 106.915 47.2566 106.913 47.0353 106.883C46.2122 106.781 45.8991 107.356 45.8235 108.158C45.7048 109.419 44.7467 109.056 44.1017 108.972C43.203 108.857 43.8345 108.209 43.9236 107.856C44.5902 105.222 45.3728 102.616 45.9828 99.9709C46.2419 98.8444 46.9948 99.245 47.6291 99.1644C48.3092 99.0783 48.7518 99.2101 48.9434 100.033C49.556 102.63 50.2874 105.2 50.927 107.795C51.0161 108.163 51.653 108.808 50.7894 108.961V108.964ZM28.5051 54.9888C24.1897 44.9068 17.4723 36.9567 10.3825 28.8346C16.4818 30.3993 22.063 32.1953 26.3758 36.5696C27.0613 37.2659 27.4067 37.3439 28.1327 36.5911C34.0135 30.5096 40.0939 24.6512 47.0758 19.793C54.0658 14.9294 61.4713 10.7998 69.1468 7.12726C69.3897 7.01166 69.611 6.8369 70.2237 7.1891C51.2914 18.7042 38.2803 35.2522 28.5051 54.9888ZM57.7146 109.026C56.9886 109.002 56.2302 109.139 56.2167 108.037C56.2059 107.324 56.1331 106.612 56.071 105.902C56.0035 105.144 55.5474 104.843 54.8106 104.8C54.1548 104.759 53.8013 104.899 53.8688 105.66C53.9335 106.37 53.8661 107.09 53.8876 107.803C53.9092 108.515 53.9497 109.085 52.8837 109.053C51.9337 109.026 51.9229 108.564 51.9283 107.873C51.9472 105.284 51.9526 102.692 51.9256 100.103C51.9175 99.4467 52.0524 99.1106 52.8027 99.1617C53.6501 99.2181 54.5057 99.1563 55.3558 99.1778C56.5406 99.2101 57.6309 99.5112 58.0142 100.783C58.4082 102.081 58.2031 103.267 56.7889 104.136C57.7821 104.509 58.0411 105.246 58.1032 106.085C58.1518 106.708 58.1761 107.335 58.1707 107.959C58.168 108.362 58.8346 109.061 57.7146 109.026ZM57.4258 94.5858C56.8887 94.6127 56.8591 95.1262 56.8591 95.5053C56.8564 97.0431 55.9684 97.3012 54.6811 97.1345C54.2034 97.0727 53.9281 97.0377 54.0874 96.4382C55.0967 92.7038 56.0602 88.956 57.0831 85.2269C57.3475 84.2618 58.2409 84.942 58.7752 84.7322C60.0221 84.4392 60.3837 85.0576 60.6482 86.1626C61.4336 89.4426 62.3782 92.685 63.2121 95.9569C63.2985 96.2957 63.8301 97.0781 62.9665 97.0619C62.2675 97.0458 61.2285 97.7798 60.8236 96.5054C60.7966 96.4194 60.7913 96.3226 60.7508 96.2473C60.4512 95.723 60.802 94.7874 60.0896 94.6234C59.2421 94.4298 58.3137 94.5374 57.4258 94.5858ZM66.0675 106.071C65.6222 108.166 64.9501 108.795 62.864 108.994C60.7769 109.193 59.7333 108.251 59.7333 106.168V104.028C59.7333 102.735 59.7684 101.442 59.7198 100.151C59.6955 99.4279 59.8736 99.0568 60.6725 99.1509C61.1151 99.202 61.5658 99.159 62.0138 99.159C65.2011 99.159 66.0783 99.9763 66.197 103.141C66.2348 104.117 66.2753 105.098 66.0675 106.071ZM73.5513 106.934C73.2356 108.421 72.1695 109.12 70.194 109.131C68.3075 109.142 67.4682 108.486 67.201 106.803C67.1389 106.423 66.9068 105.872 67.568 105.948C68.1105 106.012 68.9876 105.356 69.1846 106.464C69.2602 106.881 69.3654 107.265 69.7352 107.477C70.3559 107.835 70.9874 107.773 71.3976 107.174C71.8807 106.469 71.7053 105.751 70.9982 105.327C70.2399 104.872 69.36 104.617 68.5882 104.181C67.4682 103.552 67.0282 102.232 67.4061 100.915C67.7488 99.7236 68.8661 98.952 70.2641 98.9385C71.8214 98.9278 72.9765 99.5838 73.2221 100.721C73.2976 101.062 73.7213 101.692 73.0331 101.802C72.5042 101.888 71.6729 102.232 71.4192 101.39C71.2141 100.702 70.9011 100.406 70.2021 100.476C69.6785 100.53 69.3897 100.837 69.2899 101.313C69.1414 102.044 69.5436 102.495 70.1454 102.807C70.5421 103.012 70.947 103.197 71.3545 103.377C73.33 104.251 73.9157 105.197 73.5513 106.934ZM72.7471 97.1399C71.1386 97.0808 69.5274 97.0781 67.9216 97.1399C66.9932 97.1749 66.7988 96.8038 66.8285 95.9569C66.8933 94.2712 66.8474 92.5801 66.8474 90.8917H66.8258C66.8258 89.1576 66.8636 87.4235 66.8096 85.6921C66.78 84.7995 67.1983 84.6328 67.9458 84.7161C68.5936 84.7914 69.4275 84.4258 69.4032 85.6571C69.3519 88.4182 69.4221 91.1848 69.3681 93.9459C69.3519 94.8493 69.5678 95.2552 70.5394 95.1504C71.2465 95.0751 71.9698 95.1665 72.6823 95.1262C73.3975 95.0885 73.8428 95.1531 73.8158 96.0887C73.7942 96.9114 73.5702 97.1695 72.7471 97.1399ZM62.1002 100.638C61.3634 100.761 61.7277 101.431 61.6954 101.856C61.6387 102.611 61.6792 103.372 61.6792 104.133C61.6792 104.848 61.6333 105.566 61.6981 106.276C61.7358 106.695 61.3418 107.351 62.0975 107.491C62.8316 107.628 63.625 107.55 63.8949 106.714C64.4509 104.974 64.4239 103.192 63.8868 101.455C63.625 100.616 62.8235 100.519 62.1002 100.638ZM58.84 87.5283C58.7536 87.5256 58.6673 87.5203 58.5809 87.5176C58.2759 88.8834 57.9548 90.2491 57.6741 91.6203C57.6201 91.8838 57.4042 92.3301 57.8279 92.4107C58.3866 92.5156 58.9857 92.5102 59.5525 92.4296C60.0221 92.3624 59.7927 91.9187 59.7414 91.6606C59.4607 90.2787 59.145 88.9049 58.84 87.5283ZM54.6757 100.597C53.4477 100.519 54.0253 101.455 53.8499 102.006C54.0766 102.514 53.3587 103.523 54.6946 103.471C55.6635 103.434 56.214 102.996 56.2221 102.03C56.2302 101.036 55.5933 100.659 54.6757 100.597ZM46.1501 91.623C44.5362 91.5558 45.4484 92.7737 45.1191 93.4055C45.5429 94.0104 44.404 95.3547 46.1204 95.3251C47.3943 95.3036 48.1283 94.653 48.1472 93.5319C48.1661 92.2494 47.5103 91.6795 46.1501 91.623ZM47.235 101.436C46.9732 102.678 46.7115 103.918 46.3768 105.517C47.1379 105.012 48.1688 105.872 48.1688 104.77C48.1688 103.668 47.7316 102.52 47.4833 101.393C47.4024 101.407 47.3187 101.423 47.235 101.436ZM46.0017 89.7975C47.0758 89.8539 47.8315 89.4049 47.8908 88.222C47.9421 87.2165 47.2188 86.5981 45.972 86.5847C44.9653 86.4126 45.0625 87.2353 45.2163 87.7676C45.416 88.4559 44.3581 89.7114 46.0017 89.7975ZM36.2535 69.093C38.4827 69.0688 40.7308 69.3457 42.9439 68.8994C45.3728 68.4101 46.8869 66.4985 46.8086 64.138C46.7276 61.6833 45.3243 60.132 42.8143 59.6857C41.2112 59.4007 39.5946 59.6077 38.256 59.5352C36.5989 59.5352 35.209 59.5674 33.8218 59.5217C33.1039 59.4975 32.888 59.7691 32.9015 60.4493C32.9366 62.2345 32.9258 64.0197 32.9285 65.8022C32.9285 69.101 32.9285 69.1279 36.2535 69.093ZM39.457 100.616C38.4989 100.702 38.8848 101.474 38.8687 101.963C38.8228 103.383 38.8201 104.805 38.8713 106.225C38.8875 106.695 38.4719 107.469 39.4867 107.52C40.3152 107.563 41.0304 107.397 41.2166 106.461C41.3651 105.724 41.4217 104.972 41.5162 104.227C41.4973 103.369 41.4379 102.528 41.2058 101.71C40.9602 100.839 40.299 100.541 39.457 100.616ZM34.4696 95.5564C35.5896 95.5725 36.0133 94.7444 36.0943 93.7846C36.1725 92.8544 36.1104 91.9134 36.1104 90.9778H36.105C36.105 90.0421 36.1752 89.0985 36.0862 88.1709C35.9971 87.2353 35.6193 86.3669 34.4804 86.3776C33.417 86.3857 33.0473 87.1977 32.9474 88.0956C32.7369 90.0072 32.7369 91.9268 32.9258 93.8384C33.0176 94.7417 33.4224 95.5402 34.4696 95.5564ZM24.438 101.21C23.8766 102.283 23.8551 103.326 23.5825 104.302C23.4934 104.622 23.2586 105.076 23.7066 105.23C24.106 105.367 24.6188 105.372 25.0182 105.241C25.5202 105.079 25.1559 104.625 25.1019 104.326C24.9211 103.326 24.6836 102.334 24.438 101.21ZM10.2988 79.1831C10.2988 79.589 10.3636 79.8794 10.8683 79.8606C14.2094 79.7342 17.5776 80.2047 20.8944 79.538C23.3315 79.046 24.5972 77.3495 24.5837 74.8438C24.5675 72.5424 23.291 71.0583 20.8728 70.4722C19.016 70.0232 17.135 70.2517 15.5454 70.1818C13.8802 70.1818 12.493 70.1979 11.1085 70.1764C10.5849 70.1684 10.2853 70.2625 10.2907 70.8943C10.3177 73.6581 10.3069 76.4219 10.2988 79.1831ZM10.2961 67.5201C10.2934 68.0175 10.45 68.2568 10.9843 68.2461C13.9773 68.1762 16.9838 68.4423 19.9633 68.0283C22.2331 67.711 23.6985 66.0818 23.7093 64.0008C23.7201 61.7989 22.4274 60.2476 20.19 59.7691C18.5087 59.4088 16.803 59.5809 15.3537 59.5352C13.7641 59.5352 12.4228 59.554 11.0788 59.5244C10.5066 59.5136 10.288 59.7072 10.2934 60.2906C10.315 62.6996 10.3096 65.1112 10.2961 67.5201ZM20.19 59.7691C18.5087 59.4088 16.803 59.5809 15.3537 59.5352C13.7641 59.5352 12.4228 59.554 11.0788 59.5244C10.5066 59.5136 10.288 59.7072 10.2934 60.2906C10.315 62.6996 10.3096 65.1112 10.2961 67.5201C10.2934 68.0175 10.45 68.2568 10.9843 68.2461C13.9773 68.1762 16.9838 68.4423 19.9633 68.0283C22.2331 67.711 23.6985 66.0818 23.7093 64.0008C23.7201 61.7989 22.4274 60.2476 20.19 59.7691ZM20.8728 70.4722C19.016 70.0232 17.135 70.2517 15.5454 70.1818C13.8802 70.1818 12.493 70.1979 11.1085 70.1764C10.5849 70.1684 10.2853 70.2625 10.2907 70.8943C10.3177 73.6581 10.3069 76.4219 10.2988 79.1831C10.2988 79.589 10.3636 79.8794 10.8683 79.8606C14.2094 79.7342 17.5776 80.2047 20.8944 79.538C23.3315 79.046 24.5972 77.3495 24.5837 74.8438C24.5675 72.5424 23.291 71.0583 20.8728 70.4722ZM25.1019 104.326C24.9211 103.326 24.6836 102.334 24.438 101.21C23.8766 102.283 23.8551 103.326 23.5825 104.302C23.4934 104.622 23.2586 105.076 23.7066 105.23C24.106 105.367 24.6188 105.372 25.0182 105.241C25.5202 105.079 25.1559 104.625 25.1019 104.326ZM42.8143 59.6857C41.2112 59.4007 39.5946 59.6077 38.256 59.5352C36.5989 59.5352 35.209 59.5674 33.8218 59.5217C33.1039 59.4975 32.888 59.7691 32.9015 60.4493C32.9366 62.2345 32.9258 64.0197 32.9285 65.8022C32.9285 69.101 32.9285 69.1279 36.2535 69.093C38.4827 69.0688 40.7308 69.3457 42.9439 68.8994C45.3728 68.4101 46.8869 66.4985 46.8086 64.138C46.7276 61.6833 45.3243 60.132 42.8143 59.6857ZM36.1104 90.9778H36.105C36.105 90.0421 36.1752 89.0985 36.0862 88.1709C35.9971 87.2353 35.6193 86.3669 34.4804 86.3776C33.417 86.3857 33.0473 87.1977 32.9474 88.0956C32.7369 90.0072 32.7369 91.9268 32.9258 93.8384C33.0176 94.7417 33.4224 95.5402 34.4696 95.5564C35.5896 95.5725 36.0133 94.7444 36.0943 93.7846C36.1725 92.8544 36.1104 91.9134 36.1104 90.9778ZM41.2058 101.71C40.9602 100.839 40.299 100.541 39.457 100.616C38.4989 100.702 38.8848 101.474 38.8687 101.963C38.8228 103.383 38.8201 104.805 38.8713 106.225C38.8875 106.695 38.4719 107.469 39.4867 107.52C40.3152 107.563 41.0304 107.397 41.2166 106.461C41.3651 105.724 41.4217 104.972 41.5162 104.227C41.4973 103.369 41.4379 102.528 41.2058 101.71ZM45.972 86.5847C44.9653 86.4126 45.0625 87.2353 45.2163 87.7676C45.416 88.4559 44.3581 89.7114 46.0017 89.7975C47.0758 89.8539 47.8315 89.4049 47.8908 88.222C47.9421 87.2165 47.2188 86.5981 45.972 86.5847ZM46.1501 91.623C44.5362 91.5558 45.4484 92.7737 45.1191 93.4055C45.5429 94.0104 44.404 95.3547 46.1204 95.3251C47.3943 95.3036 48.1283 94.653 48.1472 93.5319C48.1661 92.2494 47.5103 91.6795 46.1501 91.623ZM47.4833 101.393C47.4024 101.407 47.3187 101.423 47.235 101.436C46.9732 102.678 46.7115 103.918 46.3768 105.517C47.1379 105.012 48.1688 105.872 48.1688 104.77C48.1688 103.668 47.7316 102.52 47.4833 101.393ZM54.6757 100.597C53.4477 100.519 54.0253 101.455 53.8499 102.006C54.0766 102.514 53.3587 103.523 54.6946 103.471C55.6635 103.434 56.214 102.996 56.2221 102.03C56.2302 101.036 55.5933 100.659 54.6757 100.597ZM59.7414 91.6606C59.4607 90.2787 59.145 88.9049 58.84 87.5283C58.7536 87.5256 58.6673 87.5203 58.5809 87.5176C58.2759 88.8834 57.9548 90.2491 57.6741 91.6203C57.6201 91.8838 57.4042 92.3301 57.8279 92.4107C58.3866 92.5156 58.9857 92.5102 59.5525 92.4296C60.0221 92.3624 59.7927 91.9187 59.7414 91.6606ZM63.8868 101.455C63.625 100.616 62.8235 100.519 62.1002 100.638C61.3634 100.761 61.7277 101.431 61.6954 101.856C61.6387 102.611 61.6792 103.372 61.6792 104.133C61.6792 104.848 61.6333 105.566 61.6981 106.276C61.7358 106.695 61.3418 107.351 62.0975 107.491C62.8316 107.628 63.625 107.55 63.8949 106.714C64.4509 104.974 64.4239 103.192 63.8868 101.455ZM63.8868 101.455C63.625 100.616 62.8235 100.519 62.1002 100.638C61.3634 100.761 61.7277 101.431 61.6954 101.856C61.6387 102.611 61.6792 103.372 61.6792 104.133C61.6792 104.848 61.6333 105.566 61.6981 106.276C61.7358 106.695 61.3418 107.351 62.0975 107.491C62.8316 107.628 63.625 107.55 63.8949 106.714C64.4509 104.974 64.4239 103.192 63.8868 101.455ZM59.7414 91.6606C59.4607 90.2787 59.145 88.9049 58.84 87.5283C58.7536 87.5256 58.6673 87.5203 58.5809 87.5176C58.2759 88.8834 57.9548 90.2491 57.6741 91.6203C57.6201 91.8838 57.4042 92.3301 57.8279 92.4107C58.3866 92.5156 58.9857 92.5102 59.5525 92.4296C60.0221 92.3624 59.7927 91.9187 59.7414 91.6606ZM54.6757 100.597C53.4477 100.519 54.0253 101.455 53.8499 102.006C54.0766 102.514 53.3587 103.523 54.6946 103.471C55.6635 103.434 56.214 102.996 56.2221 102.03C56.2302 101.036 55.5933 100.659 54.6757 100.597ZM46.1501 91.623C44.5362 91.5558 45.4484 92.7737 45.1191 93.4055C45.5429 94.0104 44.404 95.3547 46.1204 95.3251C47.3943 95.3036 48.1283 94.653 48.1472 93.5319C48.1661 92.2494 47.5103 91.6795 46.1501 91.623ZM47.4833 101.393C47.4024 101.407 47.3187 101.423 47.235 101.436C46.9732 102.678 46.7115 103.918 46.3768 105.517C47.1379 105.012 48.1688 105.872 48.1688 104.77C48.1688 103.668 47.7316 102.52 47.4833 101.393ZM45.972 86.5847C44.9653 86.4126 45.0625 87.2353 45.2163 87.7676C45.416 88.4559 44.3581 89.7114 46.0017 89.7975C47.0758 89.8539 47.8315 89.4049 47.8908 88.222C47.9421 87.2165 47.2188 86.5981 45.972 86.5847ZM42.8143 59.6857C41.2112 59.4007 39.5946 59.6077 38.256 59.5352C36.5989 59.5352 35.209 59.5674 33.8218 59.5217C33.1039 59.4975 32.888 59.7691 32.9015 60.4493C32.9366 62.2345 32.9258 64.0197 32.9285 65.8022C32.9285 69.101 32.9285 69.1279 36.2535 69.093C38.4827 69.0688 40.7308 69.3457 42.9439 68.8994C45.3728 68.4101 46.8869 66.4985 46.8086 64.138C46.7276 61.6833 45.3243 60.132 42.8143 59.6857ZM41.2058 101.71C40.9602 100.839 40.299 100.541 39.457 100.616C38.4989 100.702 38.8848 101.474 38.8687 101.963C38.8228 103.383 38.8201 104.805 38.8713 106.225C38.8875 106.695 38.4719 107.469 39.4867 107.52C40.3152 107.563 41.0304 107.397 41.2166 106.461C41.3651 105.724 41.4217 104.972 41.5162 104.227C41.4973 103.369 41.4379 102.528 41.2058 101.71ZM36.1104 90.9778H36.105C36.105 90.0421 36.1752 89.0985 36.0862 88.1709C35.9971 87.2353 35.6193 86.3669 34.4804 86.3776C33.417 86.3857 33.0473 87.1977 32.9474 88.0956C32.7369 90.0072 32.7369 91.9268 32.9258 93.8384C33.0176 94.7417 33.4224 95.5402 34.4696 95.5564C35.5896 95.5725 36.0133 94.7444 36.0943 93.7846C36.1725 92.8544 36.1104 91.9134 36.1104 90.9778ZM25.1019 104.326C24.9211 103.326 24.6836 102.334 24.438 101.21C23.8766 102.283 23.8551 103.326 23.5825 104.302C23.4934 104.622 23.2586 105.076 23.7066 105.23C24.106 105.367 24.6188 105.372 25.0182 105.241C25.5202 105.079 25.1559 104.625 25.1019 104.326ZM20.8728 70.4722C19.016 70.0232 17.135 70.2517 15.5454 70.1818C13.8802 70.1818 12.493 70.1979 11.1085 70.1764C10.5849 70.1684 10.2853 70.2625 10.2907 70.8943C10.3177 73.6581 10.3069 76.4219 10.2988 79.1831C10.2988 79.589 10.3636 79.8794 10.8683 79.8606C14.2094 79.7342 17.5776 80.2047 20.8944 79.538C23.3315 79.046 24.5972 77.3495 24.5837 74.8438C24.5675 72.5424 23.291 71.0583 20.8728 70.4722ZM20.19 59.7691C18.5087 59.4088 16.803 59.5809 15.3537 59.5352C13.7641 59.5352 12.4228 59.554 11.0788 59.5244C10.5066 59.5136 10.288 59.7072 10.2934 60.2906C10.315 62.6996 10.3096 65.1112 10.2961 67.5201C10.2934 68.0175 10.45 68.2568 10.9843 68.2461C13.9773 68.1762 16.9838 68.4423 19.9633 68.0283C22.2331 67.711 23.6985 66.0818 23.7093 64.0008C23.7201 61.7989 22.4274 60.2476 20.19 59.7691ZM20.19 59.7691C18.5087 59.4088 16.803 59.5809 15.3537 59.5352C13.7641 59.5352 12.4228 59.554 11.0788 59.5244C10.5066 59.5136 10.288 59.7072 10.2934 60.2906C10.315 62.6996 10.3096 65.1112 10.2961 67.5201C10.2934 68.0175 10.45 68.2568 10.9843 68.2461C13.9773 68.1762 16.9838 68.4423 19.9633 68.0283C22.2331 67.711 23.6985 66.0818 23.7093 64.0008C23.7201 61.7989 22.4274 60.2476 20.19 59.7691ZM20.8728 70.4722C19.016 70.0232 17.135 70.2517 15.5454 70.1818C13.8802 70.1818 12.493 70.1979 11.1085 70.1764C10.5849 70.1684 10.2853 70.2625 10.2907 70.8943C10.3177 73.6581 10.3069 76.4219 10.2988 79.1831C10.2988 79.589 10.3636 79.8794 10.8683 79.8606C14.2094 79.7342 17.5776 80.2047 20.8944 79.538C23.3315 79.046 24.5972 77.3495 24.5837 74.8438C24.5675 72.5424 23.291 71.0583 20.8728 70.4722ZM25.1019 104.326C24.9211 103.326 24.6836 102.334 24.438 101.21C23.8766 102.283 23.8551 103.326 23.5825 104.302C23.4934 104.622 23.2586 105.076 23.7066 105.23C24.106 105.367 24.6188 105.372 25.0182 105.241C25.5202 105.079 25.1559 104.625 25.1019 104.326ZM42.8143 59.6857C41.2112 59.4007 39.5946 59.6077 38.256 59.5352C36.5989 59.5352 35.209 59.5674 33.8218 59.5217C33.1039 59.4975 32.888 59.7691 32.9015 60.4493C32.9366 62.2345 32.9258 64.0197 32.9285 65.8022C32.9285 69.101 32.9285 69.1279 36.2535 69.093C38.4827 69.0688 40.7308 69.3457 42.9439 68.8994C45.3728 68.4101 46.8869 66.4985 46.8086 64.138C46.7276 61.6833 45.3243 60.132 42.8143 59.6857ZM36.1104 90.9778H36.105C36.105 90.0421 36.1752 89.0985 36.0862 88.1709C35.9971 87.2353 35.6193 86.3669 34.4804 86.3776C33.417 86.3857 33.0473 87.1977 32.9474 88.0956C32.7369 90.0072 32.7369 91.9268 32.9258 93.8384C33.0176 94.7417 33.4224 95.5402 34.4696 95.5564C35.5896 95.5725 36.0133 94.7444 36.0943 93.7846C36.1725 92.8544 36.1104 91.9134 36.1104 90.9778ZM41.2058 101.71C40.9602 100.839 40.299 100.541 39.457 100.616C38.4989 100.702 38.8848 101.474 38.8687 101.963C38.8228 103.383 38.8201 104.805 38.8713 106.225C38.8875 106.695 38.4719 107.469 39.4867 107.52C40.3152 107.563 41.0304 107.397 41.2166 106.461C41.3651 105.724 41.4217 104.972 41.5162 104.227C41.4973 103.369 41.4379 102.528 41.2058 101.71ZM45.972 86.5847C44.9653 86.4126 45.0625 87.2353 45.2163 87.7676C45.416 88.4559 44.3581 89.7114 46.0017 89.7975C47.0758 89.8539 47.8315 89.4049 47.8908 88.222C47.9421 87.2165 47.2188 86.5981 45.972 86.5847ZM46.1501 91.623C44.5362 91.5558 45.4484 92.7737 45.1191 93.4055C45.5429 94.0104 44.404 95.3547 46.1204 95.3251C47.3943 95.3036 48.1283 94.653 48.1472 93.5319C48.1661 92.2494 47.5103 91.6795 46.1501 91.623ZM47.4833 101.393C47.4024 101.407 47.3187 101.423 47.235 101.436C46.9732 102.678 46.7115 103.918 46.3768 105.517C47.1379 105.012 48.1688 105.872 48.1688 104.77C48.1688 103.668 47.7316 102.52 47.4833 101.393ZM59.7414 91.6606C59.4607 90.2787 59.145 88.9049 58.84 87.5283C58.7536 87.5256 58.6673 87.5203 58.5809 87.5176C58.2759 88.8834 57.9548 90.2491 57.6741 91.6203C57.6201 91.8838 57.4042 92.3301 57.8279 92.4107C58.3866 92.5156 58.9857 92.5102 59.5525 92.4296C60.0221 92.3624 59.7927 91.9187 59.7414 91.6606ZM59.7414 91.6606C59.4607 90.2787 59.145 88.9049 58.84 87.5283C58.7536 87.5256 58.6673 87.5203 58.5809 87.5176C58.2759 88.8834 57.9548 90.2491 57.6741 91.6203C57.6201 91.8838 57.4042 92.3301 57.8279 92.4107C58.3866 92.5156 58.9857 92.5102 59.5525 92.4296C60.0221 92.3624 59.7927 91.9187 59.7414 91.6606ZM46.1501 91.623C44.5362 91.5558 45.4484 92.7737 45.1191 93.4055C45.5429 94.0104 44.404 95.3547 46.1204 95.3251C47.3943 95.3036 48.1283 94.653 48.1472 93.5319C48.1661 92.2494 47.5103 91.6795 46.1501 91.623ZM45.972 86.5847C44.9653 86.4126 45.0625 87.2353 45.2163 87.7676C45.416 88.4559 44.3581 89.7114 46.0017 89.7975C47.0758 89.8539 47.8315 89.4049 47.8908 88.222C47.9421 87.2165 47.2188 86.5981 45.972 86.5847ZM42.8143 59.6857C41.2112 59.4007 39.5946 59.6077 38.256 59.5352C36.5989 59.5352 35.209 59.5674 33.8218 59.5217C33.1039 59.4975 32.888 59.7691 32.9015 60.4493C32.9366 62.2345 32.9258 64.0197 32.9285 65.8022C32.9285 69.101 32.9285 69.1279 36.2535 69.093C38.4827 69.0688 40.7308 69.3457 42.9439 68.8994C45.3728 68.4101 46.8869 66.4985 46.8086 64.138C46.7276 61.6833 45.3243 60.132 42.8143 59.6857ZM41.2058 101.71C40.9602 100.839 40.299 100.541 39.457 100.616C38.4989 100.702 38.8848 101.474 38.8687 101.963C38.8228 103.383 38.8201 104.805 38.8713 106.225C38.8875 106.695 38.4719 107.469 39.4867 107.52C40.3152 107.563 41.0304 107.397 41.2166 106.461C41.3651 105.724 41.4217 104.972 41.5162 104.227C41.4973 103.369 41.4379 102.528 41.2058 101.71ZM36.1104 90.9778H36.105C36.105 90.0421 36.1752 89.0985 36.0862 88.1709C35.9971 87.2353 35.6193 86.3669 34.4804 86.3776C33.417 86.3857 33.0473 87.1977 32.9474 88.0956C32.7369 90.0072 32.7369 91.9268 32.9258 93.8384C33.0176 94.7417 33.4224 95.5402 34.4696 95.5564C35.5896 95.5725 36.0133 94.7444 36.0943 93.7846C36.1725 92.8544 36.1104 91.9134 36.1104 90.9778ZM25.1019 104.326C24.9211 103.326 24.6836 102.334 24.438 101.21C23.8766 102.283 23.8551 103.326 23.5825 104.302C23.4934 104.622 23.2586 105.076 23.7066 105.23C24.106 105.367 24.6188 105.372 25.0182 105.241C25.5202 105.079 25.1559 104.625 25.1019 104.326ZM20.8728 70.4722C19.016 70.0232 17.135 70.2517 15.5454 70.1818C13.8802 70.1818 12.493 70.1979 11.1085 70.1764C10.5849 70.1684 10.2853 70.2625 10.2907 70.8943C10.3177 73.6581 10.3069 76.4219 10.2988 79.1831C10.2988 79.589 10.3636 79.8794 10.8683 79.8606C14.2094 79.7342 17.5776 80.2047 20.8944 79.538C23.3315 79.046 24.5972 77.3495 24.5837 74.8438C24.5675 72.5424 23.291 71.0583 20.8728 70.4722ZM20.19 59.7691C18.5087 59.4088 16.803 59.5809 15.3537 59.5352C13.7641 59.5352 12.4228 59.554 11.0788 59.5244C10.5066 59.5136 10.288 59.7072 10.2934 60.2906C10.315 62.6996 10.3096 65.1112 10.2961 67.5201C10.2934 68.0175 10.45 68.2568 10.9843 68.2461C13.9773 68.1762 16.9838 68.4423 19.9633 68.0283C22.2331 67.711 23.6985 66.0818 23.7093 64.0008C23.7201 61.7989 22.4274 60.2476 20.19 59.7691ZM20.19 59.7691C18.5087 59.4088 16.803 59.5809 15.3537 59.5352C13.7641 59.5352 12.4228 59.554 11.0788 59.5244C10.5066 59.5136 10.288 59.7072 10.2934 60.2906C10.315 62.6996 10.3096 65.1112 10.2961 67.5201C10.2934 68.0175 10.45 68.2568 10.9843 68.2461C13.9773 68.1762 16.9838 68.4423 19.9633 68.0283C22.2331 67.711 23.6985 66.0818 23.7093 64.0008C23.7201 61.7989 22.4274 60.2476 20.19 59.7691ZM20.8728 70.4722C19.016 70.0232 17.135 70.2517 15.5454 70.1818C13.8802 70.1818 12.493 70.1979 11.1085 70.1764C10.5849 70.1684 10.2853 70.2625 10.2907 70.8943C10.3177 73.6581 10.3069 76.4219 10.2988 79.1831C10.2988 79.589 10.3636 79.8794 10.8683 79.8606C14.2094 79.7342 17.5776 80.2047 20.8944 79.538C23.3315 79.046 24.5972 77.3495 24.5837 74.8438C24.5675 72.5424 23.291 71.0583 20.8728 70.4722ZM25.1019 104.326C24.9211 103.326 24.6836 102.334 24.438 101.21C23.8766 102.283 23.8551 103.326 23.5825 104.302C23.4934 104.622 23.2586 105.076 23.7066 105.23C24.106 105.367 24.6188 105.372 25.0182 105.241C25.5202 105.079 25.1559 104.625 25.1019 104.326ZM42.8143 59.6857C41.2112 59.4007 39.5946 59.6077 38.256 59.5352C36.5989 59.5352 35.209 59.5674 33.8218 59.5217C33.1039 59.4975 32.888 59.7691 32.9015 60.4493C32.9366 62.2345 32.9258 64.0197 32.9285 65.8022C32.9285 69.101 32.9285 69.1279 36.2535 69.093C38.4827 69.0688 40.7308 69.3457 42.9439 68.8994C45.3728 68.4101 46.8869 66.4985 46.8086 64.138C46.7276 61.6833 45.3243 60.132 42.8143 59.6857ZM36.1104 90.9778H36.105C36.105 90.0421 36.1752 89.0985 36.0862 88.1709C35.9971 87.2353 35.6193 86.3669 34.4804 86.3776C33.417 86.3857 33.0473 87.1977 32.9474 88.0956C32.7369 90.0072 32.7369 91.9268 32.9258 93.8384C33.0176 94.7417 33.4224 95.5402 34.4696 95.5564C35.5896 95.5725 36.0133 94.7444 36.0943 93.7846C36.1725 92.8544 36.1104 91.9134 36.1104 90.9778ZM45.972 86.5847C44.9653 86.4126 45.0625 87.2353 45.2163 87.7676C45.416 88.4559 44.3581 89.7114 46.0017 89.7975C47.0758 89.8539 47.8315 89.4049 47.8908 88.222C47.9421 87.2165 47.2188 86.5981 45.972 86.5847ZM46.1501 91.623C44.5362 91.5558 45.4484 92.7737 45.1191 93.4055C45.5429 94.0104 44.404 95.3547 46.1204 95.3251C47.3943 95.3036 48.1283 94.653 48.1472 93.5319C48.1661 92.2494 47.5103 91.6795 46.1501 91.623ZM59.7414 91.6606C59.4607 90.2787 59.145 88.9049 58.84 87.5283C58.7536 87.5256 58.6673 87.5203 58.5809 87.5176C58.2759 88.8834 57.9548 90.2491 57.6741 91.6203C57.6201 91.8838 57.4042 92.3301 57.8279 92.4107C58.3866 92.5156 58.9857 92.5102 59.5525 92.4296C60.0221 92.3624 59.7927 91.9187 59.7414 91.6606ZM59.7414 91.6606C59.4607 90.2787 59.145 88.9049 58.84 87.5283C58.7536 87.5256 58.6673 87.5203 58.5809 87.5176C58.2759 88.8834 57.9548 90.2491 57.6741 91.6203C57.6201 91.8838 57.4042 92.3301 57.8279 92.4107C58.3866 92.5156 58.9857 92.5102 59.5525 92.4296C60.0221 92.3624 59.7927 91.9187 59.7414 91.6606ZM46.1501 91.623C44.5362 91.5558 45.4484 92.7737 45.1191 93.4055C45.5429 94.0104 44.404 95.3547 46.1204 95.3251C47.3943 95.3036 48.1283 94.653 48.1472 93.5319C48.1661 92.2494 47.5103 91.6795 46.1501 91.623ZM45.972 86.5847C44.9653 86.4126 45.0625 87.2353 45.2163 87.7676C45.416 88.4559 44.3581 89.7114 46.0017 89.7975C47.0758 89.8539 47.8315 89.4049 47.8908 88.222C47.9421 87.2165 47.2188 86.5981 45.972 86.5847ZM42.8143 59.6857C41.2112 59.4007 39.5946 59.6077 38.256 59.5352C36.5989 59.5352 35.209 59.5674 33.8218 59.5217C33.1039 59.4975 32.888 59.7691 32.9015 60.4493C32.9366 62.2345 32.9258 64.0197 32.9285 65.8022C32.9285 69.101 32.9285 69.1279 36.2535 69.093C38.4827 69.0688 40.7308 69.3457 42.9439 68.8994C45.3728 68.4101 46.8869 66.4985 46.8086 64.138C46.7276 61.6833 45.3243 60.132 42.8143 59.6857ZM36.1104 90.9778H36.105C36.105 90.0421 36.1752 89.0985 36.0862 88.1709C35.9971 87.2353 35.6193 86.3669 34.4804 86.3776C33.417 86.3857 33.0473 87.1977 32.9474 88.0956C32.7369 90.0072 32.7369 91.9268 32.9258 93.8384C33.0176 94.7417 33.4224 95.5402 34.4696 95.5564C35.5896 95.5725 36.0133 94.7444 36.0943 93.7846C36.1725 92.8544 36.1104 91.9134 36.1104 90.9778ZM25.1019 104.326C24.9211 103.326 24.6836 102.334 24.438 101.21C23.8766 102.283 23.8551 103.326 23.5825 104.302C23.4934 104.622 23.2586 105.076 23.7066 105.23C24.106 105.367 24.6188 105.372 25.0182 105.241C25.5202 105.079 25.1559 104.625 25.1019 104.326ZM20.8728 70.4722C19.016 70.0232 17.135 70.2517 15.5454 70.1818C13.8802 70.1818 12.493 70.1979 11.1085 70.1764C10.5849 70.1684 10.2853 70.2625 10.2907 70.8943C10.3177 73.6581 10.3069 76.4219 10.2988 79.1831C10.2988 79.589 10.3636 79.8794 10.8683 79.8606C14.2094 79.7342 17.5776 80.2047 20.8944 79.538C23.3315 79.046 24.5972 77.3495 24.5837 74.8438C24.5675 72.5424 23.291 71.0583 20.8728 70.4722ZM20.19 59.7691C18.5087 59.4088 16.803 59.5809 15.3537 59.5352C13.7641 59.5352 12.4228 59.554 11.0788 59.5244C10.5066 59.5136 10.288 59.7072 10.2934 60.2906C10.315 62.6996 10.3096 65.1112 10.2961 67.5201C10.2934 68.0175 10.45 68.2568 10.9843 68.2461C13.9773 68.1762 16.9838 68.4423 19.9633 68.0283C22.2331 67.711 23.6985 66.0818 23.7093 64.0008C23.7201 61.7989 22.4274 60.2476 20.19 59.7691ZM20.19 59.7691C18.5087 59.4088 16.803 59.5809 15.3537 59.5352C13.7641 59.5352 12.4228 59.554 11.0788 59.5244C10.5066 59.5136 10.288 59.7072 10.2934 60.2906C10.315 62.6996 10.3096 65.1112 10.2961 67.5201C10.2934 68.0175 10.45 68.2568 10.9843 68.2461C13.9773 68.1762 16.9838 68.4423 19.9633 68.0283C22.2331 67.711 23.6985 66.0818 23.7093 64.0008C23.7201 61.7989 22.4274 60.2476 20.19 59.7691ZM20.8728 70.4722C19.016 70.0232 17.135 70.2517 15.5454 70.1818C13.8802 70.1818 12.493 70.1979 11.1085 70.1764C10.5849 70.1684 10.2853 70.2625 10.2907 70.8943C10.3177 73.6581 10.3069 76.4219 10.2988 79.1831C10.2988 79.589 10.3636 79.8794 10.8683 79.8606C14.2094 79.7342 17.5776 80.2047 20.8944 79.538C23.3315 79.046 24.5972 77.3495 24.5837 74.8438C24.5675 72.5424 23.291 71.0583 20.8728 70.4722ZM42.8143 59.6857C41.2112 59.4007 39.5946 59.6077 38.256 59.5352C36.5989 59.5352 35.209 59.5674 33.8218 59.5217C33.1039 59.4975 32.888 59.7691 32.9015 60.4493C32.9366 62.2345 32.9258 64.0197 32.9285 65.8022C32.9285 69.101 32.9285 69.1279 36.2535 69.093C38.4827 69.0688 40.7308 69.3457 42.9439 68.8994C45.3728 68.4101 46.8869 66.4985 46.8086 64.138C46.7276 61.6833 45.3243 60.132 42.8143 59.6857ZM36.1104 90.9778H36.105C36.105 90.0421 36.1752 89.0985 36.0862 88.1709C35.9971 87.2353 35.6193 86.3669 34.4804 86.3776C33.417 86.3857 33.0473 87.1977 32.9474 88.0956C32.7369 90.0072 32.7369 91.9268 32.9258 93.8384C33.0176 94.7417 33.4224 95.5402 34.4696 95.5564C35.5896 95.5725 36.0133 94.7444 36.0943 93.7846C36.1725 92.8544 36.1104 91.9134 36.1104 90.9778ZM45.972 86.5847C44.9653 86.4126 45.0625 87.2353 45.2163 87.7676C45.416 88.4559 44.3581 89.7114 46.0017 89.7975C47.0758 89.8539 47.8315 89.4049 47.8908 88.222C47.9421 87.2165 47.2188 86.5981 45.972 86.5847ZM46.1501 91.623C44.5362 91.5558 45.4484 92.7737 45.1191 93.4055C45.5429 94.0104 44.404 95.3547 46.1204 95.3251C47.3943 95.3036 48.1283 94.653 48.1472 93.5319C48.1661 92.2494 47.5103 91.6795 46.1501 91.623ZM59.7414 91.6606C59.4607 90.2787 59.145 88.9049 58.84 87.5283C58.7536 87.5256 58.6673 87.5203 58.5809 87.5176C58.2759 88.8834 57.9548 90.2491 57.6741 91.6203C57.6201 91.8838 57.4042 92.3301 57.8279 92.4107C58.3866 92.5156 58.9857 92.5102 59.5525 92.4296C60.0221 92.3624 59.7927 91.9187 59.7414 91.6606ZM59.7414 91.6606C59.4607 90.2787 59.145 88.9049 58.84 87.5283C58.7536 87.5256 58.6673 87.5203 58.5809 87.5176C58.2759 88.8834 57.9548 90.2491 57.6741 91.6203C57.6201 91.8838 57.4042 92.3301 57.8279 92.4107C58.3866 92.5156 58.9857 92.5102 59.5525 92.4296C60.0221 92.3624 59.7927 91.9187 59.7414 91.6606ZM46.1501 91.623C44.5362 91.5558 45.4484 92.7737 45.1191 93.4055C45.5429 94.0104 44.404 95.3547 46.1204 95.3251C47.3943 95.3036 48.1283 94.653 48.1472 93.5319C48.1661 92.2494 47.5103 91.6795 46.1501 91.623ZM45.972 86.5847C44.9653 86.4126 45.0625 87.2353 45.2163 87.7676C45.416 88.4559 44.3581 89.7114 46.0017 89.7975C47.0758 89.8539 47.8315 89.4049 47.8908 88.222C47.9421 87.2165 47.2188 86.5981 45.972 86.5847ZM42.8143 59.6857C41.2112 59.4007 39.5946 59.6077 38.256 59.5352C36.5989 59.5352 35.209 59.5674 33.8218 59.5217C33.1039 59.4975 32.888 59.7691 32.9015 60.4493C32.9366 62.2345 32.9258 64.0197 32.9285 65.8022C32.9285 69.101 32.9285 69.1279 36.2535 69.093C38.4827 69.0688 40.7308 69.3457 42.9439 68.8994C45.3728 68.4101 46.8869 66.4985 46.8086 64.138C46.7276 61.6833 45.3243 60.132 42.8143 59.6857ZM36.1104 90.9778H36.105C36.105 90.0421 36.1752 89.0985 36.0862 88.1709C35.9971 87.2353 35.6193 86.3669 34.4804 86.3776C33.417 86.3857 33.0473 87.1977 32.9474 88.0956C32.7369 90.0072 32.7369 91.9268 32.9258 93.8384C33.0176 94.7417 33.4224 95.5402 34.4696 95.5564C35.5896 95.5725 36.0133 94.7444 36.0943 93.7846C36.1725 92.8544 36.1104 91.9134 36.1104 90.9778ZM20.8728 70.4722C19.016 70.0232 17.135 70.2517 15.5454 70.1818C13.8802 70.1818 12.493 70.1979 11.1085 70.1764C10.5849 70.1684 10.2853 70.2625 10.2907 70.8943C10.3177 73.6581 10.3069 76.4219 10.2988 79.1831C10.2988 79.589 10.3636 79.8794 10.8683 79.8606C14.2094 79.7342 17.5776 80.2047 20.8944 79.538C23.3315 79.046 24.5972 77.3495 24.5837 74.8438C24.5675 72.5424 23.291 71.0583 20.8728 70.4722ZM20.19 59.7691C18.5087 59.4088 16.803 59.5809 15.3537 59.5352C13.7641 59.5352 12.4228 59.554 11.0788 59.5244C10.5066 59.5136 10.288 59.7072 10.2934 60.2906C10.315 62.6996 10.3096 65.1112 10.2961 67.5201C10.2934 68.0175 10.45 68.2568 10.9843 68.2461C13.9773 68.1762 16.9838 68.4423 19.9633 68.0283C22.2331 67.711 23.6985 66.0818 23.7093 64.0008C23.7201 61.7989 22.4274 60.2476 20.19 59.7691ZM20.19 59.7691C18.5087 59.4088 16.803 59.5809 15.3537 59.5352C13.7641 59.5352 12.4228 59.554 11.0788 59.5244C10.5066 59.5136 10.288 59.7072 10.2934 60.2906C10.315 62.6996 10.3096 65.1112 10.2961 67.5201C10.2934 68.0175 10.45 68.2568 10.9843 68.2461C13.9773 68.1762 16.9838 68.4423 19.9633 68.0283C22.2331 67.711 23.6985 66.0818 23.7093 64.0008C23.7201 61.7989 22.4274 60.2476 20.19 59.7691ZM20.8728 70.4722C19.016 70.0232 17.135 70.2517 15.5454 70.1818C13.8802 70.1818 12.493 70.1979 11.1085 70.1764C10.5849 70.1684 10.2853 70.2625 10.2907 70.8943C10.3177 73.6581 10.3069 76.4219 10.2988 79.1831C10.2988 79.589 10.3636 79.8794 10.8683 79.8606C14.2094 79.7342 17.5776 80.2047 20.8944 79.538C23.3315 79.046 24.5972 77.3495 24.5837 74.8438C24.5675 72.5424 23.291 71.0583 20.8728 70.4722ZM42.8143 59.6857C41.2112 59.4007 39.5946 59.6077 38.256 59.5352C36.5989 59.5352 35.209 59.5674 33.8218 59.5217C33.1039 59.4975 32.888 59.7691 32.9015 60.4493C32.9366 62.2345 32.9258 64.0197 32.9285 65.8022C32.9285 69.101 32.9285 69.1279 36.2535 69.093C38.4827 69.0688 40.7308 69.3457 42.9439 68.8994C45.3728 68.4101 46.8869 66.4985 46.8086 64.138C46.7276 61.6833 45.3243 60.132 42.8143 59.6857ZM36.1104 90.9778H36.105C36.105 90.0421 36.1752 89.0985 36.0862 88.1709C35.9971 87.2353 35.6193 86.3669 34.4804 86.3776C33.417 86.3857 33.0473 87.1977 32.9474 88.0956C32.7369 90.0072 32.7369 91.9268 32.9258 93.8384C33.0176 94.7417 33.4224 95.5402 34.4696 95.5564C35.5896 95.5725 36.0133 94.7444 36.0943 93.7846C36.1725 92.8544 36.1104 91.9134 36.1104 90.9778ZM45.972 86.5847C44.9653 86.4126 45.0625 87.2353 45.2163 87.7676C45.416 88.4559 44.3581 89.7114 46.0017 89.7975C47.0758 89.8539 47.8315 89.4049 47.8908 88.222C47.9421 87.2165 47.2188 86.5981 45.972 86.5847ZM46.1501 91.623C44.5362 91.5558 45.4484 92.7737 45.1191 93.4055C45.5429 94.0104 44.404 95.3547 46.1204 95.3251C47.3943 95.3036 48.1283 94.653 48.1472 93.5319C48.1661 92.2494 47.5103 91.6795 46.1501 91.623ZM59.7414 91.6606C59.4607 90.2787 59.145 88.9049 58.84 87.5283C58.7536 87.5256 58.6673 87.5203 58.5809 87.5176C58.2759 88.8834 57.9548 90.2491 57.6741 91.6203C57.6201 91.8838 57.4042 92.3301 57.8279 92.4107C58.3866 92.5156 58.9857 92.5102 59.5525 92.4296C60.0221 92.3624 59.7927 91.9187 59.7414 91.6606ZM59.7414 91.6606C59.4607 90.2787 59.145 88.9049 58.84 87.5283C58.7536 87.5256 58.6673 87.5203 58.5809 87.5176C58.2759 88.8834 57.9548 90.2491 57.6741 91.6203C57.6201 91.8838 57.4042 92.3301 57.8279 92.4107C58.3866 92.5156 58.9857 92.5102 59.5525 92.4296C60.0221 92.3624 59.7927 91.9187 59.7414 91.6606ZM46.1501 91.623C44.5362 91.5558 45.4484 92.7737 45.1191 93.4055C45.5429 94.0104 44.404 95.3547 46.1204 95.3251C47.3943 95.3036 48.1283 94.653 48.1472 93.5319C48.1661 92.2494 47.5103 91.6795 46.1501 91.623ZM45.972 86.5847C44.9653 86.4126 45.0625 87.2353 45.2163 87.7676C45.416 88.4559 44.3581 89.7114 46.0017 89.7975C47.0758 89.8539 47.8315 89.4049 47.8908 88.222C47.9421 87.2165 47.2188 86.5981 45.972 86.5847ZM42.8143 59.6857C41.2112 59.4007 39.5946 59.6077 38.256 59.5352C36.5989 59.5352 35.209 59.5674 33.8218 59.5217C33.1039 59.4975 32.888 59.7691 32.9015 60.4493C32.9366 62.2345 32.9258 64.0197 32.9285 65.8022C32.9285 69.101 32.9285 69.1279 36.2535 69.093C38.4827 69.0688 40.7308 69.3457 42.9439 68.8994C45.3728 68.4101 46.8869 66.4985 46.8086 64.138C46.7276 61.6833 45.3243 60.132 42.8143 59.6857ZM36.1104 90.9778H36.105C36.105 90.0421 36.1752 89.0985 36.0862 88.1709C35.9971 87.2353 35.6193 86.3669 34.4804 86.3776C33.417 86.3857 33.0473 87.1977 32.9474 88.0956C32.7369 90.0072 32.7369 91.9268 32.9258 93.8384C33.0176 94.7417 33.4224 95.5402 34.4696 95.5564C35.5896 95.5725 36.0133 94.7444 36.0943 93.7846C36.1725 92.8544 36.1104 91.9134 36.1104 90.9778ZM20.8728 70.4722C19.016 70.0232 17.135 70.2517 15.5454 70.1818C13.8802 70.1818 12.493 70.1979 11.1085 70.1764C10.5849 70.1684 10.2853 70.2625 10.2907 70.8943C10.3177 73.6581 10.3069 76.4219 10.2988 79.1831C10.2988 79.589 10.3636 79.8794 10.8683 79.8606C14.2094 79.7342 17.5776 80.2047 20.8944 79.538C23.3315 79.046 24.5972 77.3495 24.5837 74.8438C24.5675 72.5424 23.291 71.0583 20.8728 70.4722ZM20.19 59.7691C18.5087 59.4088 16.803 59.5809 15.3537 59.5352C13.7641 59.5352 12.4228 59.554 11.0788 59.5244C10.5066 59.5136 10.288 59.7072 10.2934 60.2906C10.315 62.6996 10.3096 65.1112 10.2961 67.5201C10.2934 68.0175 10.45 68.2568 10.9843 68.2461C13.9773 68.1762 16.9838 68.4423 19.9633 68.0283C22.2331 67.711 23.6985 66.0818 23.7093 64.0008C23.7201 61.7989 22.4274 60.2476 20.19 59.7691ZM20.19 59.7691C18.5087 59.4088 16.803 59.5809 15.3537 59.5352C13.7641 59.5352 12.4228 59.554 11.0788 59.5244C10.5066 59.5136 10.288 59.7072 10.2934 60.2906C10.315 62.6996 10.3096 65.1112 10.2961 67.5201C10.2934 68.0175 10.45 68.2568 10.9843 68.2461C13.9773 68.1762 16.9838 68.4423 19.9633 68.0283C22.2331 67.711 23.6985 66.0818 23.7093 64.0008C23.7201 61.7989 22.4274 60.2476 20.19 59.7691ZM20.8728 70.4722C19.016 70.0232 17.135 70.2517 15.5454 70.1818C13.8802 70.1818 12.493 70.1979 11.1085 70.1764C10.5849 70.1684 10.2853 70.2625 10.2907 70.8943C10.3177 73.6581 10.3069 76.4219 10.2988 79.1831C10.2988 79.589 10.3636 79.8794 10.8683 79.8606C14.2094 79.7342 17.5776 80.2047 20.8944 79.538C23.3315 79.046 24.5972 77.3495 24.5837 74.8438C24.5675 72.5424 23.291 71.0583 20.8728 70.4722ZM42.8143 59.6857C41.2112 59.4007 39.5946 59.6077 38.256 59.5352C36.5989 59.5352 35.209 59.5674 33.8218 59.5217C33.1039 59.4975 32.888 59.7691 32.9015 60.4493C32.9366 62.2345 32.9258 64.0197 32.9285 65.8022C32.9285 69.101 32.9285 69.1279 36.2535 69.093C38.4827 69.0688 40.7308 69.3457 42.9439 68.8994C45.3728 68.4101 46.8869 66.4985 46.8086 64.138C46.7276 61.6833 45.3243 60.132 42.8143 59.6857ZM36.1104 90.9778H36.105C36.105 90.0421 36.1752 89.0985 36.0862 88.1709C35.9971 87.2353 35.6193 86.3669 34.4804 86.3776C33.417 86.3857 33.0473 87.1977 32.9474 88.0956C32.7369 90.0072 32.7369 91.9268 32.9258 93.8384C33.0176 94.7417 33.4224 95.5402 34.4696 95.5564C35.5896 95.5725 36.0133 94.7444 36.0943 93.7846C36.1725 92.8544 36.1104 91.9134 36.1104 90.9778ZM45.972 86.5847C44.9653 86.4126 45.0625 87.2353 45.2163 87.7676C45.416 88.4559 44.3581 89.7114 46.0017 89.7975C47.0758 89.8539 47.8315 89.4049 47.8908 88.222C47.9421 87.2165 47.2188 86.5981 45.972 86.5847ZM46.1501 91.623C44.5362 91.5558 45.4484 92.7737 45.1191 93.4055C45.5429 94.0104 44.404 95.3547 46.1204 95.3251C47.3943 95.3036 48.1283 94.653 48.1472 93.5319C48.1661 92.2494 47.5103 91.6795 46.1501 91.623ZM59.7414 91.6606C59.4607 90.2787 59.145 88.9049 58.84 87.5283C58.7536 87.5256 58.6673 87.5203 58.5809 87.5176C58.2759 88.8834 57.9548 90.2491 57.6741 91.6203C57.6201 91.8838 57.4042 92.3301 57.8279 92.4107C58.3866 92.5156 58.9857 92.5102 59.5525 92.4296C60.0221 92.3624 59.7927 91.9187 59.7414 91.6606ZM59.7414 91.6606C59.4607 90.2787 59.145 88.9049 58.84 87.5283C58.7536 87.5256 58.6673 87.5203 58.5809 87.5176C58.2759 88.8834 57.9548 90.2491 57.6741 91.6203C57.6201 91.8838 57.4042 92.3301 57.8279 92.4107C58.3866 92.5156 58.9857 92.5102 59.5525 92.4296C60.0221 92.3624 59.7927 91.9187 59.7414 91.6606ZM46.1501 91.623C44.5362 91.5558 45.3404 92.6984 45.1191 93.4055C45.2811 94.083 44.404 95.3547 46.1204 95.3251C47.3943 95.3036 48.1283 94.653 48.1472 93.5319C48.1661 92.2494 47.5103 91.6795 46.1501 91.623ZM45.972 86.5847C44.9653 86.4126 45.1272 87.5122 45.1272 88.0768C45.1272 88.792 44.8681 89.741 46.0017 89.7975C47.1352 89.8539 47.8315 89.4049 47.8908 88.222C47.9421 87.2165 47.2188 86.5981 45.972 86.5847ZM42.8143 59.6857C41.2112 59.4007 39.5946 59.6077 38.256 59.5352C36.5989 59.5352 35.209 59.5674 33.8218 59.5217C33.1039 59.4975 32.888 59.7691 32.9015 60.4493C32.9366 62.2345 32.9258 64.0197 32.9285 65.8022C32.9285 69.101 32.9285 69.1279 36.2535 69.093C38.4827 69.0688 40.7308 69.3457 42.9439 68.8994C45.3728 68.4101 46.8869 66.4985 46.8086 64.138C46.7276 61.6833 45.3243 60.132 42.8143 59.6857ZM36.1104 90.9778H36.105C36.105 90.0421 36.1752 89.0985 36.0862 88.1709C35.9971 87.2353 35.6193 86.3669 34.4804 86.3776C33.417 86.3857 33.0473 87.1977 32.9474 88.0956C32.7369 90.0072 32.7369 91.9268 32.9258 93.8384C33.0176 94.7417 33.4224 95.5402 34.4696 95.5564C35.5896 95.5725 36.0133 94.7444 36.0943 93.7846C36.1725 92.8544 36.1104 91.9134 36.1104 90.9778ZM20.8728 70.4722C19.016 70.0232 17.135 70.2517 15.5454 70.1818C13.8802 70.1818 12.493 70.1979 11.1085 70.1764C10.5849 70.1684 10.2853 70.2625 10.2907 70.8943C10.3177 73.6581 10.3069 76.4219 10.2988 79.1831C10.2988 79.589 10.3636 79.8794 10.8683 79.8606C14.2094 79.7342 17.5776 80.2047 20.8944 79.538C23.3315 79.046 24.5972 77.3495 24.5837 74.8438C24.5675 72.5424 23.291 71.0583 20.8728 70.4722ZM20.19 59.7691C18.5087 59.4088 16.803 59.5809 15.3537 59.5352C13.7641 59.5352 12.4228 59.554 11.0788 59.5244C10.5066 59.5136 10.288 59.7072 10.2934 60.2906C10.315 62.6996 10.3096 65.1112 10.2961 67.5201C10.2934 68.0175 10.45 68.2568 10.9843 68.2461C13.9773 68.1762 16.9838 68.4423 19.9633 68.0283C22.2331 67.711 23.6985 66.0818 23.7093 64.0008C23.7201 61.7989 22.4274 60.2476 20.19 59.7691ZM20.19 59.7691C18.5087 59.4088 16.803 59.5809 15.3537 59.5352C13.7641 59.5352 12.4228 59.554 11.0788 59.5244C10.5066 59.5136 10.288 59.7072 10.2934 60.2906C10.315 62.6996 10.3096 65.1112 10.2961 67.5201C10.2934 68.0175 10.45 68.2568 10.9843 68.2461C13.9773 68.1762 16.9838 68.4423 19.9633 68.0283C22.2331 67.711 23.6985 66.0818 23.7093 64.0008C23.7201 61.7989 22.4274 60.2476 20.19 59.7691ZM20.8728 70.4722C19.016 70.0232 17.135 70.2517 15.5454 70.1818C13.8802 70.1818 12.493 70.1979 11.1085 70.1764C10.5849 70.1684 10.2853 70.2625 10.2907 70.8943C10.3177 73.6581 10.3069 76.4219 10.2988 79.1831C10.2988 79.589 10.3636 79.8794 10.8683 79.8606C14.2094 79.7342 17.5776 80.2047 20.8944 79.538C23.3315 79.046 24.5972 77.3495 24.5837 74.8438C24.5675 72.5424 23.291 71.0583 20.8728 70.4722ZM42.8143 59.6857C41.2112 59.4007 39.5946 59.6077 38.256 59.5352C36.5989 59.5352 35.209 59.5674 33.8218 59.5217C33.1039 59.4975 32.888 59.7691 32.9015 60.4493C32.9366 62.2345 32.9258 64.0197 32.9285 65.8022C32.9285 69.101 32.9285 69.1279 36.2535 69.093C38.4827 69.0688 40.7308 69.3457 42.9439 68.8994C45.3728 68.4101 46.8869 66.4985 46.8086 64.138C46.7276 61.6833 45.3243 60.132 42.8143 59.6857ZM59.7414 91.6606C59.4607 90.2787 59.145 88.9049 58.84 87.5283C58.7536 87.5256 58.6673 87.5203 58.5809 87.5176C58.2759 88.8834 57.9548 90.2491 57.6741 91.6203C57.6201 91.8838 57.4042 92.3301 57.8279 92.4107C58.3866 92.5156 58.9857 92.5102 59.5525 92.4296C60.0221 92.3624 59.7927 91.9187 59.7414 91.6606ZM59.7414 91.6606C59.4607 90.2787 59.145 88.9049 58.84 87.5283C58.7536 87.5256 58.6673 87.5203 58.5809 87.5176C58.2759 88.8834 57.9548 90.2491 57.6741 91.6203C57.6201 91.8838 57.4042 92.3301 57.8279 92.4107C58.3866 92.5156 58.9857 92.5102 59.5525 92.4296C60.0221 92.3624 59.7927 91.9187 59.7414 91.6606ZM42.8143 59.6857C41.2112 59.4007 39.5946 59.6077 38.256 59.5352C36.5989 59.5352 35.209 59.5674 33.8218 59.5217C33.1039 59.4975 32.888 59.7691 32.9015 60.4493C32.9366 62.2345 32.9258 64.0197 32.9285 65.8022C32.9285 69.101 32.9285 69.1279 36.2535 69.093C38.4827 69.0688 40.7308 69.3457 42.9439 68.8994C45.3728 68.4101 46.8869 66.4985 46.8086 64.138C46.7276 61.6833 45.3243 60.132 42.8143 59.6857ZM20.8728 70.4722C19.016 70.0232 17.135 70.2517 15.5454 70.1818C13.8802 70.1818 12.493 70.1979 11.1085 70.1764C10.5849 70.1684 10.2853 70.2625 10.2907 70.8943C10.3177 73.6581 10.3069 76.4219 10.2988 79.1831C10.2988 79.589 10.3636 79.8794 10.8683 79.8606C14.2094 79.7342 17.5776 80.2047 20.8944 79.538C23.3315 79.046 24.5972 77.3495 24.5837 74.8438C24.5675 72.5424 23.291 71.0583 20.8728 70.4722ZM20.19 59.7691C18.5087 59.4088 16.803 59.5809 15.3537 59.5352C13.7641 59.5352 12.4228 59.554 11.0788 59.5244C10.5066 59.5136 10.288 59.7072 10.2934 60.2906C10.315 62.6996 10.3096 65.1112 10.2961 67.5201C10.2934 68.0175 10.45 68.2568 10.9843 68.2461C13.9773 68.1762 16.9838 68.4423 19.9633 68.0283C22.2331 67.711 23.6985 66.0818 23.7093 64.0008C23.7201 61.7989 22.4274 60.2476 20.19 59.7691ZM20.19 59.7691C18.5087 59.4088 16.803 59.5809 15.3537 59.5352C13.7641 59.5352 12.4228 59.554 11.0788 59.5244C10.5066 59.5136 10.288 59.7072 10.2934 60.2906C10.315 62.6996 10.3096 65.1112 10.2961 67.5201C10.2934 68.0175 10.45 68.2568 10.9843 68.2461C13.9773 68.1762 16.9838 68.4423 19.9633 68.0283C22.2331 67.711 23.6985 66.0818 23.7093 64.0008C23.7201 61.7989 22.4274 60.2476 20.19 59.7691ZM20.8728 70.4722C19.016 70.0232 17.135 70.2517 15.5454 70.1818C13.8802 70.1818 12.493 70.1979 11.1085 70.1764C10.5849 70.1684 10.2853 70.2625 10.2907 70.8943C10.3177 73.6581 10.3069 76.4219 10.2988 79.1831C10.2988 79.589 10.3636 79.8794 10.8683 79.8606C14.2094 79.7342 17.5776 80.2047 20.8944 79.538C23.3315 79.046 24.5972 77.3495 24.5837 74.8438C24.5675 72.5424 23.291 71.0583 20.8728 70.4722ZM42.8143 59.6857C41.2112 59.4007 39.5946 59.6077 38.256 59.5352C36.5989 59.5352 35.209 59.5674 33.8218 59.5217C33.1039 59.4975 32.888 59.7691 32.9015 60.4493C32.9366 62.2345 32.9258 64.0197 32.9285 65.8022C32.9285 69.101 32.9285 69.1279 36.2535 69.093C38.4827 69.0688 40.7308 69.3457 42.9439 68.8994C45.3728 68.4101 46.8869 66.4985 46.8086 64.138C46.7276 61.6833 45.3243 60.132 42.8143 59.6857ZM42.8143 59.6857C41.2112 59.4007 39.5946 59.6077 38.256 59.5352C36.5989 59.5352 35.209 59.5674 33.8218 59.5217C33.1039 59.4975 32.888 59.7691 32.9015 60.4493C32.9366 62.2345 32.9258 64.0197 32.9285 65.8022C32.9285 69.101 32.9285 69.1279 36.2535 69.093C38.4827 69.0688 40.7308 69.3457 42.9439 68.8994C45.3728 68.4101 46.8869 66.4985 46.8086 64.138C46.7276 61.6833 45.3243 60.132 42.8143 59.6857ZM20.8728 70.4722C19.016 70.0232 17.135 70.2517 15.5454 70.1818C13.8802 70.1818 12.493 70.1979 11.1085 70.1764C10.5849 70.1684 10.2853 70.2625 10.2907 70.8943C10.3177 73.6581 10.3069 76.4219 10.2988 79.1831C10.2988 79.589 10.3636 79.8794 10.8683 79.8606C14.2094 79.7342 17.5776 80.2047 20.8944 79.538C23.3315 79.046 24.5972 77.3495 24.5837 74.8438C24.5675 72.5424 23.291 71.0583 20.8728 70.4722ZM20.19 59.7691C18.5087 59.4088 16.803 59.5809 15.3537 59.5352C13.7641 59.5352 12.4228 59.554 11.0788 59.5244C10.5066 59.5136 10.288 59.7072 10.2934 60.2906C10.315 62.6996 10.3096 65.1112 10.2961 67.5201C10.2934 68.0175 10.45 68.2568 10.9843 68.2461C13.9773 68.1762 16.9838 68.4423 19.9633 68.0283C22.2331 67.711 23.6985 66.0818 23.7093 64.0008C23.7201 61.7989 22.4274 60.2476 20.19 59.7691Z" fill="#3D3D3D"/>
</g>
<defs>
<clipPath id="clip0_5552_12189">
<rect width="81" height="115" fill="white"/>
</clipPath>
</defs>
</svg>
