<svg width="160" height="160" viewBox="0 0 160 160" fill="none" xmlns="http://www.w3.org/2000/svg">
<path fill-rule="evenodd" clip-rule="evenodd" d="M130.292 61.2304V138.548H112.161V61.2304H105.661C104.583 61.2304 103.663 60.6203 103.243 59.6276C102.823 58.6351 103.026 57.5493 103.777 56.776L119.342 40.7394C119.856 40.2107 120.49 39.9424 121.227 39.9424C121.964 39.9424 122.598 40.2107 123.111 40.7394L138.677 56.776C139.427 57.5493 139.631 58.6351 139.211 59.6276C138.791 60.6201 137.87 61.2304 136.792 61.2304H130.292ZM17.4819 90.0269C17.6534 89.9943 74.9915 79.6245 105.399 24.8468L107.903 33.7766C108.293 35.1696 109.74 35.9821 111.133 35.5915C112.526 35.2009 113.339 33.7545 112.948 32.3614L108.666 17.0902C108.275 15.6971 106.829 14.8844 105.436 15.2753L90.1648 19.5567C88.7717 19.9473 87.959 21.3936 88.3499 22.7867C88.7405 24.1798 90.1868 24.9925 91.5799 24.6017L101.013 21.957C71.868 74.8688 16.6826 84.8483 16.518 84.8795C15.0966 85.1457 14.16 86.5139 14.4262 87.9353C14.6924 89.3567 16.0605 90.2931 17.4819 90.0269ZM143 141.173C144.45 141.173 145.625 142.348 145.625 143.798C145.625 145.247 144.45 146.423 143 146.423H17C15.5502 146.423 14.375 145.247 14.375 143.798C14.375 142.348 15.5502 141.173 17 141.173H143ZM47.8393 103.999V138.548H29.7079V103.999C29.7079 102.553 30.8873 101.373 32.3337 101.373H45.2135C46.6596 101.373 47.8393 102.553 47.8393 103.999ZM75.3236 87.4531V138.548H57.1924V87.4531C57.1924 86.007 58.3718 84.8273 59.8182 84.8273H72.698C74.1442 84.8273 75.3236 86.0067 75.3236 87.4531ZM102.808 74.8174V138.548H84.6767V74.8174C84.6767 73.3713 85.8561 72.1916 87.3025 72.1916H100.182C101.628 72.1916 102.808 73.3713 102.808 74.8174Z" fill="#789904"/>
</svg>
