<svg width="64" height="64" viewBox="0 0 64 64" fill="none" xmlns="http://www.w3.org/2000/svg">
<path d="M54.8624 49.3506L35.732 60.1359C33.6875 61.2873 31.1442 61.2888 29.0969 60.1359L9.96641 49.3506C7.34598 47.873 7.34344 44.1012 9.96641 42.6249L13.9632 40.3716C14.2579 40.2054 14.6183 40.2054 14.9131 40.3717C16.9057 41.4958 14.6824 40.2424 28.1482 47.8326C30.7779 49.3166 34.0507 49.3167 36.6807 47.8326C50.0586 40.2919 49.9158 40.3717 49.9158 40.3717C50.2105 40.2054 50.5708 40.2054 50.8657 40.3716L54.8624 42.6249C57.4801 44.0982 57.4881 47.8701 54.8624 49.3506ZM54.8624 28.6368L50.8665 26.3844C50.5719 26.2184 50.212 26.2182 49.9173 26.3843C49.9173 26.3843 50.0596 26.3032 36.6807 33.8458C34.0346 35.3367 30.7646 35.32 28.1482 33.8458C14.6798 26.2528 16.9057 27.5073 14.9115 26.3843C14.6169 26.2184 14.257 26.2184 13.9623 26.3844L9.96641 28.6368C7.34417 30.1154 7.34489 33.8857 9.96641 35.3638L29.0969 46.1478C31.1613 47.3104 33.6988 47.2928 35.732 46.1478L54.8624 35.3638C57.4847 33.8852 57.4838 30.1149 54.8624 28.6368ZM54.8624 14.65L35.732 3.86473C33.6858 2.71176 31.143 2.71176 29.0969 3.86473L9.96641 14.65C7.34441 16.1285 7.34477 19.8975 9.96641 21.3757L29.0969 32.161C31.162 33.324 33.6996 33.3056 35.732 32.161L54.8624 21.3757C57.4847 19.8972 57.4837 16.1281 54.8624 14.65Z" fill="#3D3D3D"/>
</svg>
