<svg width="64" height="64" viewBox="0 0 64 64" fill="none" xmlns="http://www.w3.org/2000/svg">
<path d="M15.4264 22.3606L40.8276 7.77257L32.9507 3.51422C32.3572 3.19335 31.6419 3.19336 31.0484 3.51425L5.80859 17.1603L15.4264 22.3606Z" fill="#3D3D3D"/>
<path d="M48.5418 11.9434L23.1406 26.5314L31.9995 31.3216L58.1905 17.1603L48.5418 11.9434Z" fill="#3D3D3D"/>
<path d="M31.2768 32.6784L22.3571 27.8561V38.4515L18.5 34.2806H14.6429V23.6853L5 18.4725V45.6008C5 46.3354 5.40265 47.0108 6.0488 47.3602L31.2768 61V32.6784Z" fill="#3D3D3D"/>
<path d="M32.7236 32.6784V61L57.9516 47.3602C58.5978 47.0108 59.0004 46.3354 59.0004 45.6008V18.4725L32.7236 32.6784Z" fill="#3D3D3D"/>
</svg>
