<svg width="64" height="64" viewBox="0 0 64 64" fill="none" xmlns="http://www.w3.org/2000/svg">
<g clip-path="url(#clip0_5272_51921)">
<path d="M43.375 22.75C32.0024 22.75 22.75 32.0024 22.75 43.375C22.75 54.7476 32.0024 64 43.375 64C54.7476 64 64 54.7476 64 43.375C64 32.0024 54.7476 22.75 43.375 22.75ZM43.375 41.5C46.4767 41.5 49 44.0233 49 47.125C49 49.5663 47.4278 51.628 45.25 52.4046V56.5H41.5V52.4046C39.3222 51.628 37.75 49.5663 37.75 47.125H41.5C41.5 48.1595 42.3405 49 43.375 49C44.4095 49 45.25 48.1595 45.25 47.125C45.25 46.0905 44.4095 45.25 43.375 45.25C40.2733 45.25 37.75 42.7267 37.75 39.625C37.75 37.1837 39.3222 35.122 41.5 34.3454V30.25H45.25V34.3454C47.4278 35.122 49 37.1837 49 39.625H45.25C45.25 38.5905 44.4095 37.75 43.375 37.75C42.3405 37.75 41.5 38.5905 41.5 39.625C41.5 40.6595 42.3405 41.5 43.375 41.5Z" fill="#3D3D3D"/>
<path d="M20.875 22.75C32.44 22.75 41.5 17.808 41.5 11.5C41.5 5.192 32.44 0 20.875 0C9.31 0 0 5.192 0 11.5C0 17.808 9.31 22.75 20.875 22.75Z" fill="#3D3D3D"/>
<path d="M0 42.1948V45.25C0 51.558 9.31 56.5 20.875 56.5C21.531 56.5 22.1666 56.4396 22.8125 56.408C21.3743 54.1466 20.3016 51.6373 19.67 48.9548C11.3069 48.724 4.04525 46.1541 0 42.1948Z" fill="#3D3D3D"/>
<path d="M19.0901 45.1544C19.0471 44.5647 19 43.9756 19 43.3749C19 41.4203 19.2561 39.5286 19.6929 37.7058C11.3194 37.4789 4.04887 34.9077 0 30.9448V33.9999C0 39.9733 8.40775 44.6677 19.0901 45.1544Z" fill="#3D3D3D"/>
<path d="M20.875 33.9999C20.877 33.9999 20.8786 33.9997 20.8808 33.9997C22.1174 31.0442 23.915 28.3799 26.1474 26.1477C24.454 26.3617 22.704 26.4999 20.875 26.4999C11.9729 26.4999 4.24075 23.8453 0 19.6948V22.7499C0 29.0579 9.31 33.9999 20.875 33.9999Z" fill="#3D3D3D"/>
</g>
<defs>
<clipPath id="clip0_5272_51921">
<rect width="64" height="64" fill="white"/>
</clipPath>
</defs>
</svg>
