<svg width="160" height="160" viewBox="0 0 160 160" fill="none" xmlns="http://www.w3.org/2000/svg">
<path d="M122.97 54.0513C124.502 55.5828 126.985 55.5828 128.516 54.0513L134.851 47.7164C136.383 46.1848 136.383 43.7018 134.851 42.1703L117.03 24.3486C115.498 22.8171 113.015 22.8171 111.484 24.3486L105.149 30.6838C103.617 32.2154 103.617 34.6983 105.149 36.2299L122.97 54.0513Z" fill="#789904"/>
<path d="M99.2001 108C93.0236 108 88.8769 115.949 80.0002 115.949C71.1145 115.949 66.9877 108 60.8002 108C54.6238 108 50.4772 115.949 41.6003 115.949C32.7146 115.949 28.5879 108 22.4004 108V134.907C22.4004 136.836 23.9115 138.4 25.7754 138.4H134.225C136.089 138.4 137.6 136.836 137.6 134.907V108C131.424 108 127.277 115.949 118.4 115.949C109.515 115.949 105.388 108 99.2001 108Z" fill="#789904"/>
<path d="M60.8009 70.6748C69.5912 70.6748 73.8924 79.2001 80 79.2001C86.0725 79.2001 90.4426 70.6748 99.2007 70.6748C107.423 70.6748 111.459 78.4436 116.8 79.2001C118.982 73.839 119.963 66.9333 118.621 61.0577C118.153 58.9317 118.409 56.7665 119.292 54.8594L103.283 38.85C101.376 39.734 99.2108 39.9896 97.0848 39.5216C87.3871 37.3063 77.4084 40.1743 70.389 47.1939C69.7561 47.8268 69.4004 48.687 69.4004 49.582C69.4004 53.4997 66.2131 56.6871 62.2936 56.6871C61.3985 56.6871 60.5401 57.0426 59.9072 57.6757L40 79.2001C47.2765 81.5025 51.1732 70.5243 60.8009 70.6748Z" fill="#789904"/>
<path d="M132.939 75.5567C128.012 78.0001 124.364 83.4643 118.401 83.4643C109.515 83.4643 105.388 74.3999 99.2004 74.3999C93.0239 74.3999 88.8776 83.4643 80.0008 83.4643C71.1151 83.4643 66.9884 74.3999 60.8008 74.3999C54.6243 74.3999 50.4776 83.4643 41.6008 83.4643C35.6381 83.4643 31.9899 78.0001 27.0624 75.5567C24.8468 74.4583 22.4004 76.4052 22.4004 79.2411V103.736C31.2861 103.736 35.4133 112 41.6008 112C47.7773 112 51.9234 103.736 60.8004 103.736C69.6861 103.736 73.8133 112 80.0008 112C86.1773 112 90.3237 103.736 99.2004 103.736C108.086 103.736 112.212 112 118.401 112C124.577 112 128.724 103.736 137.6 103.736V79.2411C137.601 76.4052 135.154 74.4583 132.939 75.5567Z" fill="#789904"/>
</svg>
