<svg width="160" height="160" viewBox="0 0 160 160" fill="none" xmlns="http://www.w3.org/2000/svg">
<path d="M102.75 61.5C80.0047 61.5 61.5 80.0047 61.5 102.75C61.5 125.495 80.0047 144 102.75 144C125.495 144 144 125.495 144 102.75C144 80.0047 125.495 61.5 102.75 61.5ZM102.75 99C108.953 99 114 104.047 114 110.25C114 115.133 110.856 119.256 106.5 120.809V129H99V120.809C94.6445 119.256 91.5 115.133 91.5 110.25H99C99 112.319 100.681 114 102.75 114C104.819 114 106.5 112.319 106.5 110.25C106.5 108.181 104.819 106.5 102.75 106.5C96.5465 106.5 91.5 101.453 91.5 95.25C91.5 90.3675 94.6445 86.244 99 84.6908V76.5H106.5V84.6908C110.856 86.244 114 90.3675 114 95.25H106.5C106.5 93.181 104.819 91.5 102.75 91.5C100.681 91.5 99 93.181 99 95.25C99 97.319 100.681 99 102.75 99Z" fill="#789904"/>
<path d="M57.75 61.5C80.88 61.5 99 51.616 99 39C99 26.384 80.88 16 57.75 16C34.62 16 16 26.384 16 39C16 51.616 34.62 61.5 57.75 61.5Z" fill="#789904"/>
<path d="M16 100.39V106.5C16 119.116 34.62 129 57.75 129C59.062 129 60.3333 128.879 61.625 128.816C58.7485 124.293 56.6033 119.275 55.34 113.91C38.6138 113.448 24.0905 108.308 16 100.39Z" fill="#789904"/>
<path d="M54.1802 106.309C54.0942 105.129 54 103.951 54 102.75C54 98.8406 54.5122 95.0571 55.3857 91.4116C38.6388 90.9579 24.0977 85.8154 16 77.8896V83.9999C16 95.9466 32.8155 105.335 54.1802 106.309Z" fill="#789904"/>
<path d="M57.75 83.9999C57.754 83.9999 57.7573 83.9994 57.7615 83.9994C60.2348 78.0884 63.83 72.7599 68.2948 68.2954C64.908 68.7234 61.408 68.9999 57.75 68.9999C39.9457 68.9999 24.4815 63.6906 16 55.3896V61.4999C16 74.1159 34.62 83.9999 57.75 83.9999Z" fill="#789904"/>
</svg>
