<svg width="160" height="160" viewBox="0 0 160 160" fill="none" xmlns="http://www.w3.org/2000/svg">
<path d="M102.4 60C98.0119 38.8523 88.6543 23.2 79.9996 23.2C71.3449 23.2 61.9873 38.8523 57.5996 60H102.4Z" fill="#789904"/>
<path d="M56 80.8C55.999 86.1512 56.3558 91.4965 57.068 96.8H102.932C103.644 91.4965 104.001 86.1512 104 80.8C104.001 75.4489 103.644 70.1036 102.932 64.8H57.068C56.3558 70.1036 55.999 75.4489 56 80.8Z" fill="#789904"/>
<path d="M57.5996 101.6C61.2156 119.536 71.3449 138.4 79.9996 138.4C88.6543 138.4 98.7823 121.106 102.4 101.6H57.5996Z" fill="#789904"/>
<path d="M107.059 60.0001H136C131.652 50.4102 125.045 41.9413 116.709 35.2726C108.373 28.604 98.5405 23.9213 88 21.6001C96.7143 29.0299 103.55 42.7677 107.059 60.0001Z" fill="#789904"/>
<path d="M137.863 64.343H107.433C108.183 69.8024 108.557 75.2987 108.555 80.8002C108.556 86.3017 108.179 91.798 107.429 97.2573H137.859C141.171 86.491 141.176 75.1093 137.863 64.343Z" fill="#789904"/>
<path d="M88 140C98.5402 137.68 108.373 132.998 116.708 126.329C125.044 119.661 131.652 111.191 136 101.6H107.065C103.547 118.832 96.7127 132.57 88 140Z" fill="#789904"/>
<path d="M52.935 101.6H24C28.3485 111.191 34.9557 119.661 43.2916 126.329C51.6274 132.998 61.4598 137.68 72 140C63.2782 132.57 56.444 118.832 52.935 101.6Z" fill="#789904"/>
<path d="M72 21.6001C61.4598 23.92 51.6274 28.6022 43.2916 35.2709C34.9557 41.9396 28.3485 50.4091 24 60.0001H52.935C56.4532 42.7677 63.2873 29.0299 72 21.6001Z" fill="#789904"/>
<path d="M51.4451 80.8002C51.4446 75.2986 51.8207 69.8024 52.5715 64.343H22.1414C18.8292 75.1093 18.8292 86.491 22.1414 97.2573H52.5715C51.8207 91.798 51.4446 86.3017 51.4451 80.8002Z" fill="#789904"/>
</svg>
