<svg width="160" height="160" viewBox="0 0 160 160" fill="none" xmlns="http://www.w3.org/2000/svg">
<path d="M146.159 92.3119L134.057 70.3207C133.684 69.6454 132.83 69.3942 132.152 69.7648L113.258 80.2021C112.577 80.5776 112.329 81.4333 112.702 82.1087L128.659 111.039H135.071C139.979 111.039 144.35 108.288 146.476 103.863C147.3 102.145 147.722 100.301 147.722 98.3827C147.722 96.2347 147.181 94.1356 146.157 92.3095L146.159 92.3119Z" fill="#789904"/>
<path d="M135.073 115.919H108.715C107.37 115.919 106.277 114.83 106.277 113.481V101.364L86.7949 128.032L106.273 154.904L106.277 142.736C106.277 141.387 107.37 140.297 108.715 140.297H123.712C126.95 140.297 129.944 138.413 131.336 135.492L141.234 114.817C139.303 115.537 137.226 115.917 135.071 115.917L135.073 115.919Z" fill="#789904"/>
<path d="M15.6082 97.5146C14.043 100.36 14.2575 103.883 16.1519 106.489L29.5002 125.14C29.8001 123.107 30.4657 121.1 31.497 119.211L44.2016 96.1127C44.8477 94.9376 46.3276 94.5012 47.5101 95.1497L58.14 100.979L58.1546 100.989C58.1887 101.008 58.2058 101.011 58.2058 101.011L44.1309 71.0691L11.2002 75.2065L21.8642 81.0627C23.0442 81.7112 23.4758 83.1911 22.8273 84.3711L15.6106 97.5122L15.6082 97.5146Z" fill="#789904"/>
<path d="M40.7887 138.759C42.6538 139.783 44.7847 140.293 46.8399 140.3L70.7548 140.276C71.1327 140.276 71.4838 140.127 71.7495 139.859C71.9007 139.707 72.1518 139.381 72.1469 138.888V117.187C72.1469 116.49 71.5788 115.919 70.8791 115.919H38.87L35.7688 121.556C33.4185 125.859 33.7159 131.009 36.5514 134.995C37.6826 136.55 39.1089 137.818 40.7887 138.759Z" fill="#789904"/>
<path d="M67.3096 18.4048L67.2876 18.3999C65.3811 18.417 63.5379 18.8363 61.8093 19.6531C59.8881 20.5746 58.2327 21.9668 57.0356 23.6734L43.1485 43.1266C42.9291 43.4338 42.8437 43.8093 42.9071 44.1823C42.9437 44.3944 43.0632 44.7869 43.4654 45.0673L61.095 57.7013C61.368 57.8963 61.7045 57.9719 62.0361 57.9207C62.3701 57.8671 62.6602 57.6818 62.8577 57.4063L81.4771 31.3825L78.7026 25.5751C76.5644 21.1573 72.1979 18.4048 67.3096 18.4048Z" fill="#789904"/>
<path d="M130.635 32.582C130.652 32.5455 130.655 32.5308 130.655 32.5308L119.681 37.8336C118.464 38.4187 117.014 37.9043 116.429 36.6902L109.951 23.1858C108.546 20.2796 105.582 18.4023 102.393 18.4023H79.4434C80.9159 19.8262 82.1594 21.5279 83.0956 23.4589L94.4496 47.2372C95.0274 48.4489 94.5178 49.8995 93.3086 50.4822L82.3958 55.7484L114.856 61.7582L130.63 32.5796L130.635 32.582Z" fill="#789904"/>
</svg>
