<svg width="80" height="80" viewBox="0 0 80 80" fill="none" xmlns="http://www.w3.org/2000/svg">
<g id="Logos">
<path id="Vector" d="M68.2293 41.4588C68.0071 46.8857 66.0811 52.6826 61.8836 57.7395C61.6861 57.9862 61.5379 58.0602 61.291 58.0602C61.0441 58.0602 60.8713 57.9615 60.649 57.8135C60.254 57.5175 59.3404 56.7775 59.0441 56.5308C58.7725 56.3088 58.6243 56.1114 58.6243 55.8401C58.6243 55.5934 58.7478 55.3467 58.9206 55.1001C61.7108 51.0792 63.2169 47.6751 63.7848 43.9996C64.9947 43.4322 66.9947 42.2975 68.2293 41.4588ZM56.0317 47.4037C54.6737 47.9218 53.2416 48.4398 51.7601 48.9578V64.1778C51.7601 64.7205 52.0071 64.9918 52.4762 64.9918C52.649 64.9918 52.8219 64.9672 53.0688 64.8685C53.5626 64.6465 54.9206 63.9311 55.4392 63.5611C55.9577 63.1911 56.0317 62.8951 56.0317 62.155V47.4037ZM42.7478 51.6713V66.7926C42.7478 67.3106 42.9947 67.6066 43.5626 67.6066C44.1552 67.6066 45.3651 67.3353 46.1058 67.0886C46.7231 66.8913 46.9206 66.5952 46.9206 66.0032V50.4625C45.5626 50.8819 44.1799 51.2766 42.7478 51.6713ZM19.3404 55.5934V58.3809C19.3404 59.3676 19.5379 59.7623 20.1305 60.231C20.7231 60.7243 21.4392 61.2917 22.1799 61.933C22.4515 62.155 22.6984 62.2537 22.9206 62.2537C23.2663 62.2537 23.4885 62.0317 23.4885 61.5383V55.2974C22.1058 55.4207 20.6984 55.5194 19.3404 55.5934ZM34.2293 53.694V62.2537C34.2293 62.8704 33.9824 63.0924 33.4885 63.0924C32.97 63.0924 32.0564 62.8951 31.5379 62.5991C30.9206 62.229 30.7725 61.8837 30.7725 61.0943V54.3107C29.3651 54.5574 27.9577 54.7547 26.575 54.9521V62.4757C26.575 64.0545 27.0441 64.8932 28.5503 65.7319C30.5009 66.8419 34.5996 67.8286 36.6243 67.8286C37.8589 67.8286 38.4762 67.1379 38.4762 66.0772V52.7073C37.0441 53.0773 35.6367 53.398 34.2293 53.694ZM75.3651 30.605C75.3651 37.364 59.0441 46.1457 37.3898 51.2272C30.649 52.806 22.9453 54.064 16.8219 54.064C7.90829 54.064 4.25397 50.9066 4.25397 47.3297C4.25397 45.159 5.56261 43.1115 8.32804 41.2615C8.47619 41.1628 8.62434 41.0888 8.7478 41.0888C8.89594 41.0888 8.99471 41.1875 8.99471 41.3355C8.99471 41.4588 8.92063 41.5575 8.77249 41.6808C6.59965 43.3829 5.51323 45.159 5.51323 47.009C5.51323 49.5252 8.27866 52.2633 16.649 52.2633C17.4638 52.2633 18.3527 52.2386 19.3404 52.1893V41.8288H15.5379C15.6614 43.6789 15.9824 45.2576 16.6243 47.5271C16.6984 47.7738 16.7478 47.9958 16.7478 48.1191C16.7478 48.4644 16.575 48.6618 16.0564 48.8591C15.4392 49.0811 14.8713 49.2785 14.328 49.4758C14.1058 49.5498 13.9083 49.5992 13.7354 49.5992C13.3404 49.5992 13.1182 49.3772 12.9453 48.9331C11.7601 46.121 11.3157 42.5195 11.3157 39.6334C11.3157 31.345 15.7601 23.18 22.0564 18.4191C22.3527 18.1725 22.649 18.0985 22.8713 18.0985C23.291 18.0985 23.5379 18.4191 23.5379 18.7645V51.8686C24.5256 51.7699 25.5626 51.6219 26.6243 51.4739V45.455C26.6243 44.6903 26.9206 44.4189 27.7355 44.4189H29.7108C30.5256 44.4189 30.7972 44.6903 30.7972 45.455V50.8079C31.933 50.6105 33.0688 50.3885 34.2293 50.1419V44.4683C34.2293 43.4076 33.9577 42.9882 33.1429 42.5195C32.328 42.0262 30.6984 41.0641 29.5626 40.3981C27.5379 39.1894 26.5996 38.0793 26.5996 35.5139V17.9751C26.5996 16.6924 26.8713 15.8537 28.0317 15.1137C30.3034 13.6583 34.3527 12.3015 36.3034 12.3015C37.5132 12.3015 38.0317 12.8689 38.0317 13.8309V33.6145C38.0317 34.3792 37.7848 34.6505 36.9453 34.6505H34.9206C34.1058 34.6505 33.8342 34.3792 33.8342 33.6145V17.9998C33.8342 17.3831 33.6861 17.1611 33.2169 17.1611C32.8466 17.1611 32.1305 17.4078 31.5626 17.7531C30.97 18.1231 30.8219 18.5178 30.8219 19.2578V34.5025C30.8219 35.5879 30.9947 35.9086 31.8836 36.4513C32.9453 37.1173 34.5009 38.03 35.4638 38.5727C37.5873 39.8061 38.4268 41.0395 38.4268 43.4569V49.1305C39.8589 48.7851 41.291 48.4151 42.6984 48.0204V16.5197C42.2046 16.4457 41.2416 16.3471 40.254 16.2484C39.4638 16.1744 39.3404 15.8537 39.3404 15.2863V13.1896C39.3404 12.5729 39.6614 12.2275 40.3527 12.2275C42.9206 12.2275 47.5132 13.1402 49.4392 13.9049C50.2046 14.201 50.3527 14.497 50.3527 15.0643V17.4571C50.3527 17.9751 50.0811 18.1971 49.7108 18.1971C49.5379 18.1971 49.3651 18.1478 48.97 18.0245C48.1058 17.7531 47.3651 17.5064 46.8713 17.3831V46.8364C48.5256 46.3184 50.1305 45.7757 51.7108 45.233V15.6317C51.7108 15.1877 51.9577 14.8917 52.3527 14.8917C52.7972 14.8917 53.0194 15.237 53.3404 15.9524C54.5503 18.7645 57.4638 25.4741 59.7848 30.827C60.6243 28.5082 61.6367 25.6715 61.8589 25.0548C62.0071 24.6107 62.2293 24.3887 62.575 24.3887C62.8466 24.3887 63.0441 24.5121 63.3651 24.9068C66.0071 28.5329 67.6367 32.6278 68.0811 37.5366C71.7848 35.0945 74.0318 32.6524 74.0318 30.531C74.0318 28.4342 72.0317 26.6582 67.2169 26.4115C66.9947 26.4115 66.8713 26.2881 66.8713 26.1155C66.8713 25.9675 66.9947 25.8441 67.2416 25.8441C72.7478 25.8441 75.3651 28.2122 75.3651 30.605ZM19.3404 37.66V27.0035C17.1922 29.8896 15.8342 33.8858 15.5132 37.66H19.3404ZM56.0317 43.5802C58.97 42.3962 61.6861 41.1628 64.0811 39.8801C64.0564 36.8953 63.6367 34.7985 62.7972 33.0964C61.933 35.1685 60.6984 38.1533 60.328 39.0167C60.2046 39.3374 60.0071 39.5347 59.7601 39.5347C59.5132 39.5347 59.3651 39.3867 59.1922 39.0414C58.9206 38.5233 57.2663 35.0945 56.0317 32.5044V43.5802Z" fill="#3D3D3D"/>
</g>
</svg>
