<svg width="160" height="160" viewBox="0 0 160 160" fill="none" xmlns="http://www.w3.org/2000/svg">
<g opacity="0.99">
<path d="M31.0627 114.012V125.325C31.0627 127.396 32.7417 129.075 34.8127 129.075H125.187C127.258 129.075 128.937 127.396 128.937 125.325V114.012H31.0627Z" fill="#789904"/>
<path d="M142.275 46.8563C140.921 45.9875 139.164 46.0793 137.907 47.0843L110.605 68.9254C109.281 69.9849 108.833 71.8012 109.512 73.3552C109.929 74.3096 110.14 75.3246 110.14 76.3716C110.14 80.5331 106.755 83.9186 102.594 83.9186C98.4324 83.9186 95.0467 80.5331 95.0467 76.3716C95.0467 73.9234 96.2457 71.6164 98.2539 70.2002C99.7689 69.1319 100.276 67.1167 99.4469 65.4584L83.354 33.2731C82.7187 32.0026 81.4202 31.2001 79.9997 31.2001C78.5792 31.2001 77.2807 32.0026 76.6455 33.2731L60.5526 65.4587C59.7236 67.1167 60.2306 69.1319 61.7456 70.2004C63.7538 71.6167 64.9528 73.9236 64.9528 76.3719C64.9528 80.5334 61.5673 83.9189 57.4058 83.9189C53.2443 83.9189 49.8588 80.5334 49.8588 76.3719C49.8588 75.3249 50.0703 74.3099 50.4876 73.3554C51.1666 71.8014 50.7181 69.9852 49.3938 68.9257L22.093 47.0843C20.8367 46.079 19.0792 45.9878 17.725 46.8563C16.371 47.7253 15.722 49.361 16.1122 50.922L30.0097 106.512H129.99L143.888 50.922C144.278 49.361 143.629 47.7253 142.275 46.8563Z" fill="#789904"/>
</g>
</svg>
