<svg width="160" height="160" viewBox="0 0 160 160" fill="none" xmlns="http://www.w3.org/2000/svg">
<path d="M68.8812 19.3314C68.4466 18.556 67.8114 17.9119 67.0422 17.4665C66.2729 17.0212 65.398 16.7911 64.5092 16.8003C63.6215 16.7967 62.7489 17.0293 61.9806 17.474C61.2124 17.9188 60.5762 18.5598 60.1373 19.3314L26.6575 77.3401C22.8208 83.9855 20.8007 91.5237 20.8002 99.1971C20.7998 106.871 22.819 114.409 26.6549 121.055C30.4909 127.701 36.0085 133.22 42.6532 137.058C49.2979 140.896 56.8358 142.917 64.5092 142.919C72.1846 142.921 79.7254 140.903 86.3733 137.067C93.0213 133.23 98.5421 127.711 102.381 121.065C106.219 114.418 108.241 106.878 108.241 99.2029C108.242 91.5275 106.222 83.9872 102.384 77.3401L68.8812 19.3314ZM34.596 101.754C35.1788 101.58 35.8068 101.645 36.3418 101.934C36.8769 102.223 37.2752 102.713 37.4493 103.296C38.6492 107.298 40.7227 110.984 43.52 114.088C46.3174 117.191 49.7689 119.635 53.6254 121.243C53.9061 121.358 54.1612 121.528 54.3759 121.742C54.5906 121.956 54.7607 122.211 54.8763 122.491C54.9918 122.771 55.0506 123.072 55.0492 123.375C55.0478 123.679 54.9862 123.979 54.868 124.258C54.6999 124.681 54.4079 125.044 54.0301 125.298C53.6524 125.553 53.2065 125.688 52.751 125.684C52.4503 125.681 52.1532 125.618 51.8767 125.5C47.3893 123.633 43.3729 120.792 40.1178 117.183C36.8626 113.573 34.45 109.286 33.0543 104.63C32.8803 104.044 32.9446 103.413 33.2333 102.875C33.522 102.336 34.0118 101.933 34.596 101.754Z" fill="#789904"/>
<path d="M135.289 69.7926L115.017 34.6331C114.54 33.8041 113.853 33.1161 113.024 32.6391C112.196 32.1622 111.256 31.9133 110.3 31.9179C109.346 31.9108 108.408 32.1588 107.583 32.6362C106.757 33.1136 106.075 33.8031 105.605 34.6331L94.3305 54.1687L96.9767 58.7707L106.365 75.0389C112.254 85.0994 114.267 96.9639 112.025 108.404C111.703 109.968 111.312 111.533 110.852 113.052C118.416 112.905 125.622 109.799 130.922 104.4C136.222 99.0014 139.194 91.7397 139.2 84.174C139.191 79.1186 137.841 74.1561 135.289 69.7926Z" fill="#789904"/>
</svg>
