<svg width="114" height="136" viewBox="0 0 114 136" fill="none" xmlns="http://www.w3.org/2000/svg">
<g id="Group">
<g id="Page-1_20_">
<g id="_x30_21---Broken-Shield">
<path id="Path_131_" fill-rule="evenodd" clip-rule="evenodd" d="M113.277 25.7508V79.8232C113.277 99.1918 96.6281 123.344 58.5477 135.771C57.5385 136.076 56.4618 136.076 55.4525 135.771C17.3719 123.344 0.723389 99.1918 0.723389 79.8232V25.7508C0.725186 23.9233 1.73536 22.246 3.3497 21.3893L43.8218 0.262168C44.4451 -0.0602519 45.18 -0.0865398 45.8246 0.190269C46.4692 0.467078 46.9561 1.01845 47.1514 1.6925L48.488 6.1711L10.3137 25.9382C8.75198 26.7815 7.77281 28.4077 7.75775 30.1825V79.8232C7.75775 95.5573 22.4835 116.52 55.4523 127.916C55.947 128.065 56.46 128.143 56.9765 128.151C57.5259 128.147 58.0714 128.06 58.5945 127.893C91.5163 116.52 106.242 95.5573 106.242 79.8234V30.1825C106.223 28.3902 105.224 26.7525 103.639 25.9149L67.8801 7.39045C68.0444 5.77251 68.2084 4.20153 68.3491 2.88826C68.4306 2.11513 68.8903 1.43276 69.5761 1.06631C70.2618 0.69985 71.0846 0.697378 71.7726 1.05934L110.65 21.3893C112.265 22.2458 113.275 23.9233 113.277 25.7508Z" fill="#789904"/>
<path id="Path_130_" fill-rule="evenodd" clip-rule="evenodd" d="M12.518 30.0888L49.8715 10.7437L51.7473 17.0514C52.0066 17.9218 51.7732 18.8646 51.1378 19.5135L44.0095 26.6653C43.1072 27.5681 43.0362 29.0079 43.8452 29.9951L67.4814 58.0162C67.9207 58.5528 68.1148 59.2488 68.0168 59.935C67.9189 60.6214 67.5374 61.2353 66.9655 61.6273L49.1916 73.5391C48.1162 74.2527 47.7781 75.6776 48.4178 76.7984L62.1117 100.856C62.5148 101.571 63.3749 101.89 64.1467 101.612C64.9185 101.333 65.3764 100.538 65.2303 99.7308L62.1585 81.1595C62.0077 80.2623 62.3584 79.3543 63.0729 78.7911L81.8553 64.1357C82.3777 63.718 82.7113 63.1087 82.7816 62.4436C82.8522 61.7785 82.6536 61.1128 82.2303 60.5949L58.3366 32.246C57.5956 31.3446 57.5763 30.0506 58.2896 29.1274L66.356 19.0212C66.6377 18.6527 66.8159 18.2155 66.8719 17.7549C66.8719 17.7549 67.1064 15.4335 67.4111 12.4321L101.552 30.1828V79.8235C101.552 93.8927 87.788 112.839 57.1406 123.438C57.0714 123.454 57.0006 123.462 56.9296 123.461C26.2119 112.839 12.4476 93.8924 12.4476 79.8233L12.518 30.0888Z" fill="#789904"/>
</g>
</g>
</g>
</svg>
